<?xml version="1.0" encoding="UTF-8" standalone="no"?>
<!-- Created with Inkscape (http://www.inkscape.org/) -->

<svg
   width="59.53125mm"
   height="59.53125mm"
   viewBox="0 0 59.53125 59.53125"
   version="1.1"
   id="svg53"
   inkscape:version="1.1.2 (b8e25be833, 2022-02-05)"
   sodipodi:docname="ELECTROBEACH.svg"
   xmlns:inkscape="http://www.inkscape.org/namespaces/inkscape"
   xmlns:sodipodi="http://sodipodi.sourceforge.net/DTD/sodipodi-0.dtd"
   xmlns="http://www.w3.org/2000/svg"
   xmlns:svg="http://www.w3.org/2000/svg">
  <sodipodi:namedview
     id="namedview55"
     pagecolor="#ffffff"
     bordercolor="#666666"
     borderopacity="1.0"
     inkscape:pageshadow="2"
     inkscape:pageopacity="0.0"
     inkscape:pagecheckerboard="0"
     inkscape:document-units="mm"
     showgrid="false"
     fit-margin-top="0"
     fit-margin-left="0"
     fit-margin-right="0"
     fit-margin-bottom="0"
     inkscape:zoom="0.71090067"
     inkscape:cx="-331.97324"
     inkscape:cy="-83.696644"
     inkscape:window-width="1920"
     inkscape:window-height="991"
     inkscape:window-x="-9"
     inkscape:window-y="-9"
     inkscape:window-maximized="1"
     inkscape:current-layer="layer1" />
  <defs
     id="defs50" />
  <g
     inkscape:label="Capa 1"
     inkscape:groupmode="layer"
     id="layer1"
     transform="translate(-193.17046,-170.83964)">
    <g
       id="g822"
       transform="translate(0.74436043,1.1165418)">
      <path
         style="fill:#fdfdfd;stroke-width:0.264583"
         d="M 192.4261,199.48872 V 169.7231 h 29.76562 29.76563 v 29.76562 29.76563 H 222.19172 192.4261 Z m 30.36855,10.30029 c 7.36889,-1.97469 13.49224,-3.64859 13.60743,-3.71978 0.11519,-0.0712 0.20944,-2.20041 0.20944,-4.7316 v -4.60216 l 0.85989,-0.23453 c 0.47295,-0.12899 2.55989,-0.70014 4.63766,-1.26921 l 3.77777,-1.03467 0.27764,-1.03048 c 0.2431,-0.90228 0.21048,-1.09763 -0.26218,-1.57029 l -0.53981,-0.53981 -5.76455,1.67371 c -3.1705,0.92054 -5.88762,1.82306 -6.03804,2.0056 -0.15042,0.18255 -0.79638,2.16007 -1.43547,4.3945 -0.63909,2.23443 -1.17853,4.09011 -1.19876,4.12374 -0.0202,0.0336 -7.29192,2.27663 -16.15932,4.98446 -8.8674,2.70783 -16.17215,4.97227 -16.23278,5.03209 -0.0606,0.0598 2.35876,0.10877 5.37643,0.10877 h 5.48667 z m -17.56789,-3.17945 c 6.87859,-1.87842 6.8153,-1.84634 8.07892,-4.09466 l 0.56835,-1.01124 -1.00053,0.135 c -0.55029,0.0743 -3.96372,0.93003 -7.58541,1.90174 -7.276,1.95216 -7.49643,2.07111 -7.1601,3.86395 0.0978,0.52135 0.29918,0.94792 0.44748,0.94792 0.14831,0 3.14139,-0.78422 6.65129,-1.74271 z m 11.2344,-0.75639 c 0.77725,-0.20688 1.57713,-0.59242 1.77752,-0.85675 0.28267,-0.37288 0.36623,-1.76177 0.37276,-6.19582 0.008,-5.31522 -0.16739,-7.03796 -0.78618,-7.73004 -0.10626,-0.11885 -0.86392,-0.0211 -1.68368,0.21721 l -1.49048,0.4333 v 7.25726 c 0,3.9915 0.0893,7.25586 0.19844,7.25413 0.10914,-0.002 0.83437,-0.17241 1.61162,-0.37929 z m 11.73248,-3.22431 1.53871,-0.43174 v -7.27062 -7.27062 l -0.95429,0.17902 c -1.79364,0.33649 -2.21968,0.62733 -2.75776,1.88262 -0.46682,1.08906 -0.52128,1.83379 -0.52128,7.12791 0,5.40779 0.0395,5.9221 0.46302,6.03278 0.25466,0.0666 0.51474,0.13482 0.57795,0.1517 0.0632,0.0169 0.80736,-0.16359 1.65365,-0.40105 z m -22.93525,-1.51881 5.82083,-1.14337 v -1.2842 -1.2842 l -1.24546,-0.38678 c -1.21881,-0.3785 -1.35114,-0.35897 -6.18368,0.91293 -5.49407,1.44601 -5.84693,1.66292 -5.52209,3.3945 0.1388,0.73985 0.30204,0.94645 0.7437,0.9412 0.31123,-0.004 3.18524,-0.52123 6.3867,-1.15008 z m 17.91861,-2.73326 c 0.41383,-0.37451 0.46993,-0.94376 0.46993,-4.76774 0,-4.01003 -0.0354,-4.33224 -0.46302,-4.20919 -0.25466,0.0733 -0.96903,0.27875 -1.5875,0.45658 l -1.12448,0.32334 v 4.48985 4.48985 l 1.11757,-0.1787 c 0.61466,-0.0983 1.32904,-0.37009 1.5875,-0.60399 z m -16.56961,-2.60797 c 3.90778,-0.51798 7.13731,-0.97405 7.17675,-1.01348 0.0574,-0.0574 -1.72403,-4.37534 -1.89124,-4.58399 -0.0251,-0.0313 -3.0073,0.75073 -6.62712,1.7379 -7.24959,1.97706 -7.46772,2.09475 -7.13815,3.85149 0.14211,0.7575 0.29935,0.94986 0.77646,0.94986 0.32904,0 3.79553,-0.4238 7.7033,-0.94178 z m 32.19211,-4.63609 7.08278,-2.49192 0.27668,-1.01843 c 0.23125,-0.85123 0.20195,-1.10098 -0.17848,-1.52135 -0.25033,-0.27661 -0.58552,-0.50396 -0.74487,-0.50523 -0.15934,-0.001 -2.79003,0.72307 -5.84597,1.60963 -4.03197,1.16972 -5.69148,1.76917 -6.04919,2.18511 -0.47538,0.55277 -2.28518,3.9575 -2.28518,4.29905 0,0.092 0.14882,0.11497 0.33073,0.0511 0.1819,-0.0638 3.51798,-1.23744 7.4135,-2.60799 z"
         id="path838" />
      <path
         style="fill:#b0b4c8;stroke-width:0.264583"
         d="m 214.76741,198.95956 c 1.4e-4,-4.07459 0.0369,-5.70449 0.0816,-3.62201 0.0448,2.08247 0.0446,5.41622 -2.4e-4,7.40833 -0.0449,1.99211 -0.0815,0.28826 -0.0814,-3.78632 z m 21.68884,2.38125 c 2.7e-4,-2.61938 0.0399,-3.65515 0.088,-2.30172 0.0481,1.35343 0.0479,3.49655 -5.3e-4,4.7625 -0.0484,1.26594 -0.0878,0.15859 -0.0875,-2.46078 z"
         id="path836" />
      <path
         style="fill:#8c92b4;stroke-width:0.264583"
         d="m 223.48945,193.66789 c 2.7e-4,-2.32833 0.0408,-3.24541 0.0899,-2.03796 0.0491,1.20746 0.0489,3.11246 -5.3e-4,4.23334 -0.0495,1.12087 -0.0898,0.13295 -0.0894,-2.19538 z"
         id="path834" />
      <path
         style="fill:#5e6595;stroke-width:0.264583"
         d="m 218.46802,198.69497 c 2e-4,-3.20145 0.0384,-4.47478 0.0849,-2.8296 0.0465,1.64517 0.0463,4.26455 -3.7e-4,5.82083 -0.0467,1.55629 -0.0847,0.21023 -0.0845,-2.99123 z m 11.11582,-3.83645 c 0,-4.00183 0.0368,-5.63894 0.0817,-3.63802 0.045,2.00091 0.045,5.27513 0,7.27604 -0.045,2.00091 -0.0817,0.3638 -0.0817,-3.63802 z m -9.00364,-0.1323 c -2.7e-4,-2.47385 0.0395,-3.52149 0.0884,-2.32809 0.0489,1.1934 0.0492,3.21746 5.3e-4,4.49792 -0.0486,1.28045 -0.0886,0.30403 -0.0889,-2.16983 z"
         id="path832" />
      <path
         style="fill:#df0913;stroke-width:0.264583"
         d="m 232.24746,191.44365 1.20265,-2.32856 5.84933,-1.7387 c 6.2845,-1.86805 6.85906,-1.90663 6.81848,-0.45787 -0.0411,1.46666 -0.26285,1.61528 -4.76099,3.19042 -2.3917,0.83752 -5.69035,2.00438 -7.33033,2.59302 l -2.9818,1.07025 z"
         id="path830" />
      <path
         style="fill:#263381;stroke-width:0.264583"
         d="m 200.36319,213.06631 c 0.50909,-0.14593 0.98534,-0.34355 1.05833,-0.43916 0.073,-0.0956 0.25177,-0.17616 0.39729,-0.179 0.6729,-0.0131 3.04271,-0.78145 3.04271,-0.98652 0,-0.1266 0.12427,-0.15337 0.27617,-0.0595 0.1519,0.0939 0.44955,0.0268 0.66146,-0.14907 0.21191,-0.17587 0.38528,-0.23108 0.38528,-0.12268 0,0.1084 0.1786,0.0489 0.39688,-0.13229 0.21828,-0.18116 0.39687,-0.24069 0.39687,-0.13229 0,0.1084 0.15979,0.0645 0.35508,-0.0976 0.19529,-0.16208 0.4169,-0.23286 0.49247,-0.15729 0.0756,0.0756 0.48133,-0.004 0.9017,-0.17701 0.42036,-0.17293 0.91312,-0.29011 1.09502,-0.26039 0.18191,0.0297 0.33073,-0.0665 0.33073,-0.21385 0,-0.14733 0.1786,-0.19935 0.39688,-0.11558 0.21828,0.0838 0.39696,0.0503 0.39706,-0.0744 10e-5,-0.12471 0.26799,-0.24491 0.59531,-0.2671 0.32732,-0.0222 0.95232,-0.18786 1.38888,-0.36815 0.43656,-0.1803 0.97234,-0.353 1.19062,-0.38379 0.96417,-0.13598 2.63763,-0.70017 2.78524,-0.93901 0.089,-0.14394 0.2599,-0.20104 0.37987,-0.12689 0.18749,0.11587 1.58723,-0.28045 2.92031,-0.82684 0.21828,-0.0895 0.74802,-0.20814 1.1772,-0.26372 0.42918,-0.0556 0.87384,-0.24828 0.98814,-0.42823 0.11429,-0.17995 0.20963,-0.21408 0.21186,-0.0758 0.002,0.13824 0.13762,0.11778 0.30088,-0.0455 0.16325,-0.16326 0.4609,-0.23386 0.66145,-0.1569 0.20055,0.077 0.36464,0.0214 0.36464,-0.12357 0,-0.14492 0.14882,-0.25217 0.33073,-0.23832 0.55399,0.0421 2.31509,-0.3963 2.31529,-0.57644 1e-4,-0.0929 0.26799,-0.18715 0.59531,-0.20934 0.32732,-0.0222 0.95231,-0.18707 1.38887,-0.36641 0.43657,-0.17933 1.07057,-0.36236 1.4089,-0.40673 0.64163,-0.0842 1.37713,-0.56714 1.31805,-0.86553 -0.0188,-0.0952 0.10487,-0.51047 0.27493,-0.92287 0.17006,-0.41239 0.24179,-0.85888 0.1594,-0.99219 -0.0824,-0.1333 -0.0527,-0.24238 0.066,-0.24238 0.27818,0 0.93037,-2.07564 0.74595,-2.37404 -0.077,-0.12463 -0.0483,-0.26653 0.0639,-0.31534 0.11215,-0.0488 0.42335,-0.79466 0.69155,-1.65744 0.47546,-1.52953 1.01292,-2.39114 1.30769,-2.09637 0.0804,0.0804 0.30294,0.048 0.49452,-0.0721 0.19158,-0.12003 0.64599,-0.25833 1.00979,-0.30733 0.3638,-0.049 0.69693,-0.18821 0.74029,-0.30934 0.0434,-0.12114 0.31125,-0.15947 0.59531,-0.0852 0.29597,0.0774 0.51648,0.002 0.51648,-0.176 0,-0.17108 0.11564,-0.23958 0.25699,-0.15223 0.2948,0.1822 4.85964,-1.17502 4.98563,-1.48233 0.0458,-0.11167 0.23361,-0.14533 0.41739,-0.0748 0.18379,0.0705 0.64312,0.0108 1.02075,-0.13281 0.98456,-0.37433 1.42385,0.21562 1.10172,1.47956 -0.2036,0.79889 -0.36738,0.95976 -1.0356,1.01721 -0.43656,0.0375 -1.15094,0.21892 -1.5875,0.40309 -0.43656,0.18417 -0.9336,0.31261 -1.10453,0.28541 -0.17093,-0.0272 -0.3831,0.0676 -0.47149,0.2106 -0.0884,0.14302 -0.3355,0.19297 -0.54912,0.111 -0.21362,-0.082 -0.38864,-0.047 -0.38893,0.0777 -2.7e-4,0.12471 -0.44678,0.25857 -0.99219,0.29747 -0.54541,0.0389 -1.02912,0.18104 -1.0749,0.31587 -0.0458,0.13482 -0.25414,0.17956 -0.46302,0.0994 -0.20888,-0.0802 -0.37978,-0.007 -0.37978,0.16277 0,0.16968 -0.1166,0.23644 -0.25911,0.14836 -0.14252,-0.0881 -0.49971,-0.0314 -0.79375,0.12599 -0.5061,0.27086 -0.53464,0.54066 -0.53464,5.05493 0,2.90466 -0.0971,4.7088 -0.2484,4.61529 -0.29995,-0.18538 -3.55112,0.67538 -3.6768,0.97345 -0.0488,0.11576 -0.19764,0.14317 -0.33073,0.0609 -0.13309,-0.0823 -0.38578,-0.0607 -0.56152,0.0479 -0.17575,0.10862 -0.60139,0.22754 -0.94588,0.26427 -0.34449,0.0367 -0.78092,0.19506 -0.96984,0.35186 -0.18893,0.1568 -0.53719,0.21076 -0.77392,0.11992 -0.23672,-0.0908 -0.43041,-0.0445 -0.43041,0.10296 0,0.14746 -0.23813,0.20585 -0.52917,0.12974 -0.30756,-0.0804 -0.52916,-0.008 -0.52916,0.17267 0,0.17108 -0.10539,0.24593 -0.23419,0.16632 -0.20525,-0.12685 -1.14499,0.0969 -2.41165,0.57426 -0.21828,0.0823 -0.51593,0.1727 -0.66146,0.20098 -0.14552,0.0283 -0.32411,0.0776 -0.39687,0.10958 -0.0728,0.032 -0.54901,0.1117 -1.05833,0.17714 -0.50933,0.0654 -0.9635,0.22931 -1.00929,0.36416 -0.0458,0.13484 -0.24209,0.1842 -0.43625,0.1097 -0.19416,-0.0745 -0.42471,-0.0195 -0.51234,0.12231 -0.0876,0.14178 -0.39732,0.19554 -0.68822,0.11947 -0.2909,-0.0761 -0.52918,-0.0351 -0.52951,0.091 -2.6e-4,0.12611 -0.37009,0.24261 -0.82168,0.25888 -0.4516,0.0163 -0.89781,0.13534 -0.99159,0.26458 -0.0938,0.12925 -0.28956,0.23547 -0.43508,0.23604 -0.72832,0.003 -3.57188,0.76143 -3.57188,0.95285 0,0.12107 -0.15367,0.16116 -0.34149,0.0891 -0.18782,-0.0721 -1.26306,0.16978 -2.38942,0.53747 -1.88445,0.61514 -2.41163,0.6666 -6.60382,0.64465 -3.51557,-0.0184 -4.34453,-0.0845 -3.63026,-0.28918 z m -1.32251,-5.23213 c -0.52836,-0.11452 -0.66767,-0.31346 -0.69235,-0.98865 -0.0274,-0.75033 0.0915,-0.89674 1.05834,-1.30355 0.59907,-0.25206 1.17852,-0.48188 1.28766,-0.51072 0.10914,-0.0288 0.2282,-0.077 0.26458,-0.107 0.0364,-0.03 0.3638,-0.0868 0.72761,-0.12614 0.82346,-0.0891 3.26092,-0.7548 3.43958,-0.93938 0.0728,-0.0752 0.48948,-0.17477 0.92604,-0.22132 0.43656,-0.0465 0.83121,-0.18869 0.87699,-0.31586 0.0458,-0.12718 0.23361,-0.17353 0.4174,-0.10301 0.18378,0.0705 0.6821,-0.0143 1.10738,-0.18841 0.42528,-0.17415 0.89229,-0.32971 1.03781,-0.34569 0.14553,-0.016 0.89105,-0.18822 1.65673,-0.38275 1.89725,-0.48202 2.37661,-0.27455 1.51463,0.65554 -0.61212,0.66049 -0.76741,0.99678 -0.68915,1.49242 0.0172,0.10914 -0.058,0.18434 -0.1671,0.16711 -0.10914,-0.0172 -0.25797,-0.009 -0.33073,0.0179 -0.0728,0.0271 -0.50466,0.0981 -0.95977,0.15785 -0.45511,0.0598 -1.16949,0.24716 -1.5875,0.41644 -0.41801,0.16928 -0.93862,0.33378 -1.1569,0.36554 -0.69265,0.10081 -3.82099,0.9667 -4.08739,1.13134 -0.14072,0.087 -0.50705,0.18491 -0.81408,0.21764 -0.88007,0.0938 -2.89016,0.67115 -3.03603,0.87198 -0.0728,0.10018 -0.42994,0.11762 -0.79375,0.0388 z M 215.511,205.777 c -0.45556,-0.15794 -0.48139,-13.70456 -0.0267,-13.98559 0.16723,-0.10335 0.74997,-0.22808 1.29499,-0.27718 0.87644,-0.0789 1.01062,-0.0108 1.16138,0.58986 0.13975,0.55681 0.24953,11.51665 0.12433,12.41172 -0.0204,0.14552 -0.0229,0.35388 -0.006,0.46302 0.0172,0.10914 -0.20679,0.19844 -0.49783,0.19844 -0.29105,0 -0.52917,0.11532 -0.52917,0.25628 0,0.14095 -0.19061,0.18313 -0.42358,0.0937 -0.23297,-0.0894 -0.50086,-0.044 -0.59531,0.10093 -0.0945,0.1449 -0.32056,0.21186 -0.50246,0.14879 z m 10.20834,-3.42422 c -0.13837,-0.68212 -0.0589,-11.46133 0.0845,-11.46209 0.19797,-0.001 0.8565,-1.57704 0.83879,-2.00735 -0.006,-0.15764 0.12049,-0.28877 0.28218,-0.29139 0.16169,-0.003 0.79999,-0.0925 1.41846,-0.19965 l 1.12448,-0.19488 v 6.76082 c 0,6.73831 -0.002,6.76191 -0.59532,7.08662 -0.70787,0.3874 -3.08981,0.62001 -3.15311,0.30792 z m -27.07553,-0.44594 c -0.60658,-0.69109 -0.2309,-2.28582 0.53847,-2.28582 0.21317,0 0.38757,-0.12609 0.38757,-0.2802 0,-0.15411 0.10907,-0.21279 0.24238,-0.1304 0.13331,0.0824 0.57979,0.0107 0.99219,-0.1594 0.41239,-0.17006 0.83497,-0.29135 0.93906,-0.26954 0.1041,0.0218 0.52082,-0.0966 0.92605,-0.26321 0.40523,-0.16659 0.94514,-0.27679 1.1998,-0.2449 0.25466,0.0319 0.46326,-0.0388 0.46355,-0.15708 2.9e-4,-0.11828 0.3864,-0.24231 0.85802,-0.2756 0.47163,-0.0333 0.89828,-0.18287 0.94812,-0.33238 0.0498,-0.14951 0.20183,-0.2031 0.33777,-0.11909 0.13593,0.084 0.6713,0.0128 1.18969,-0.15831 0.7805,-0.25759 1.14351,-0.23432 2.1115,0.13536 1.06708,0.40752 1.16895,0.52523 1.16895,1.35059 0,0.81974 -0.20189,1.03938 -0.85989,0.93549 -0.10914,-0.0172 -0.19844,0.0948 -0.19844,0.24887 0,0.1541 -0.0926,0.22295 -0.20583,0.15298 -0.21327,-0.1318 -4.12133,0.52234 -4.82125,0.807 -0.21828,0.0888 -0.66477,0.13519 -0.99219,0.10314 -0.32742,-0.032 -0.59531,0.0656 -0.59531,0.21694 0,0.15137 -0.1729,0.20887 -0.38421,0.12778 -0.21131,-0.0811 -0.52903,-0.0579 -0.70604,0.0515 -0.177,0.10939 -0.92491,0.24725 -1.66202,0.30634 -0.7371,0.0591 -1.40165,0.20509 -1.47677,0.32443 -0.0751,0.11935 -0.25565,0.0813 -0.40117,-0.0845 z m 22.27307,-2.9874 c -0.28899,-0.289 -0.21734,-8.8775 0.0726,-8.69833 0.13912,0.086 0.6749,-0.02 1.19063,-0.23547 l 0.93769,-0.39179 v 4.21053 c 0,4.09227 -0.0167,4.21979 -0.59532,4.54062 -0.32742,0.18156 -0.70346,0.29853 -0.83565,0.25993 -0.13218,-0.0386 -0.31891,0.057 -0.41494,0.21235 -0.096,0.15539 -0.25578,0.20136 -0.35498,0.10216 z m -22.07329,-2.53631 c -0.49522,-0.61876 -0.60141,-1.41698 -0.25206,-1.89474 0.33599,-0.45949 0.80798,-0.61912 5.34394,-1.80731 1.16417,-0.30495 2.1762,-0.62439 2.24896,-0.70987 0.0728,-0.0855 0.48834,-0.18174 0.9235,-0.21392 0.43517,-0.0322 0.82981,-0.17433 0.87699,-0.31587 0.0472,-0.14154 0.23615,-0.19964 0.41994,-0.12912 0.18378,0.0705 0.68211,-0.0102 1.10738,-0.17942 0.42528,-0.16921 1.11138,-0.33967 1.52467,-0.37879 0.61976,-0.0587 0.79816,0.0629 1.01807,0.69373 0.14665,0.42068 0.34871,0.76486 0.44903,0.76486 0.10032,0 0.20177,0.25718 0.22545,0.57151 0.0237,0.31433 0.13831,0.64175 0.25474,0.7276 0.11643,0.0859 0.21169,0.3347 0.21169,0.55298 0,0.53042 -1.03997,0.76545 -5.17015,1.16844 -0.95181,0.0929 -2.38056,0.29334 -3.175,0.44548 -0.79444,0.15215 -1.88249,0.26572 -2.4179,0.25238 -0.53542,-0.0133 -1.03859,0.0811 -1.11817,0.20987 -0.0796,0.12876 -0.44587,0.17654 -0.81398,0.10617 -0.36812,-0.0704 -0.83141,0.007 -1.02955,0.17104 -0.27007,0.22414 -0.42716,0.21537 -0.62755,-0.035 z"
         id="path828" />
      <path
         style="fill:#26337c;stroke-width:0.264583"
         d="m 225.60416,195.38768 c 0,-2.11005 0.0411,-2.97325 0.0913,-1.91823 0.0502,1.05503 0.0502,2.78144 0,3.83646 -0.0502,1.05503 -0.0913,0.19183 -0.0913,-1.91823 z"
         id="path826" />
      <path
         style="fill:#162679;stroke-width:0.264583"
         d="m 200.23131,212.85018 c 0.29104,-0.12506 0.70776,-0.22739 0.92604,-0.22739 0.25016,0 0.20125,0.0841 -0.13229,0.22739 -0.29104,0.12507 -0.70776,0.22739 -0.92604,0.22739 -0.25016,0 -0.20126,-0.0841 0.13229,-0.22739 z m 11.64166,-0.52916 c 0.29105,-0.12507 0.70777,-0.22739 0.92605,-0.22739 0.25015,0 0.20125,0.0841 -0.1323,0.22739 -0.29104,0.12506 -0.70776,0.22739 -0.92604,0.22739 -0.25015,0 -0.20125,-0.0841 0.13229,-0.22739 z m 5.82084,-1.5875 c 0.29104,-0.12507 0.70776,-0.22739 0.92604,-0.22739 0.25016,0 0.20125,0.0841 -0.13229,0.22739 -0.29104,0.12506 -0.70776,0.22739 -0.92604,0.22739 -0.25016,0 -0.20126,-0.0841 0.13229,-0.22739 z m 1.67018,-0.44533 c 0.191,-0.0764 0.4192,-0.067 0.50712,0.0209 0.0879,0.0879 -0.0683,0.15045 -0.34727,0.13896 -0.30822,-0.0127 -0.37092,-0.0754 -0.15985,-0.15985 z m 2.11667,-0.52916 c 0.19099,-0.0764 0.4192,-0.067 0.50712,0.0209 0.0879,0.0879 -0.0684,0.15046 -0.34727,0.13897 -0.30823,-0.0127 -0.37092,-0.0754 -0.15985,-0.15985 z m -5.63894,-1.67135 c 0.72737,-0.31255 1.14511,-0.31255 0.66146,0 -0.21828,0.14107 -0.57547,0.24994 -0.79375,0.24194 -0.26168,-0.01 -0.21662,-0.092 0.13229,-0.24194 z m 11.45977,0.0838 c 0.191,-0.0764 0.4192,-0.067 0.50712,0.0209 0.0879,0.0879 -0.0683,0.15046 -0.34727,0.13897 -0.30822,-0.0127 -0.37092,-0.0754 -0.15985,-0.15985 z m -28.59154,-0.25907 c 0.18191,-0.0734 0.47956,-0.0734 0.66146,0 0.1819,0.0734 0.0331,0.13345 -0.33073,0.13345 -0.3638,0 -0.51263,-0.0601 -0.33073,-0.13345 z m 1.52136,-0.35394 c 0.29104,-0.12507 0.70776,-0.22739 0.92604,-0.22739 0.25016,0 0.20125,0.0841 -0.13229,0.22739 -0.29104,0.12506 -0.70776,0.22739 -0.92604,0.22739 -0.25016,0 -0.20126,-0.0841 0.13229,-0.22739 z m 1.67018,-0.44533 c 0.191,-0.0764 0.4192,-0.067 0.50712,0.0209 0.0879,0.0879 -0.0684,0.15045 -0.34727,0.13896 -0.30822,-0.0127 -0.37092,-0.0754 -0.15985,-0.15985 z m 30.42708,-0.26458 c 0.191,-0.0764 0.4192,-0.067 0.50712,0.0209 0.0879,0.0879 -0.0684,0.15045 -0.34726,0.13896 -0.30823,-0.0127 -0.37092,-0.0754 -0.15986,-0.15985 z m 1.05834,-0.26458 c 0.19099,-0.0764 0.4192,-0.067 0.50712,0.0209 0.0879,0.0879 -0.0684,0.15046 -0.34727,0.13897 -0.30823,-0.0127 -0.37092,-0.0754 -0.15985,-0.15985 z m -28.575,-0.26459 c 0.19099,-0.0764 0.4192,-0.067 0.50712,0.0209 0.0879,0.0879 -0.0684,0.15045 -0.34727,0.13896 -0.30822,-0.0127 -0.37092,-0.0754 -0.15985,-0.15985 z m 16.93333,0 c 0.191,-0.0764 0.4192,-0.067 0.50712,0.0209 0.0879,0.0879 -0.0684,0.15045 -0.34727,0.13896 -0.30822,-0.0127 -0.37092,-0.0754 -0.15985,-0.15985 z m 12.8819,-0.0838 c 0.29104,-0.12507 0.70776,-0.22739 0.92604,-0.22739 0.25016,0 0.20126,0.0841 -0.13229,0.22739 -0.29104,0.12507 -0.70776,0.22739 -0.92604,0.22739 -0.25016,0 -0.20125,-0.0841 0.13229,-0.22739 z m -35.9216,-0.562 c 0.17948,-0.18082 0.39297,-0.26211 0.47444,-0.18065 0.0815,0.0815 -0.0654,0.22941 -0.32632,0.32876 -0.37709,0.14359 -0.40748,0.1132 -0.14812,-0.14811 z m 16.21014,-6.84633 c 0,-3.92907 0.0893,-7.14384 0.19844,-7.14394 0.10914,-1e-4 0.16474,3.11583 0.12355,6.9243 -0.0585,5.41153 -7.2e-4,6.97154 0.26458,7.13988 0.2495,0.15831 0.21676,0.21648 -0.12355,0.21946 -0.42964,0.004 -0.46302,-0.51098 -0.46302,-7.1397 z m 21.27599,2.51354 c 2.7e-4,-2.61938 0.0399,-3.65515 0.088,-2.30172 0.0481,1.35343 0.0479,3.49655 -5.3e-4,4.7625 -0.0484,1.26594 -0.0878,0.15859 -0.0875,-2.46078 z m -20.00268,4.18488 c 0.191,-0.0764 0.4192,-0.067 0.50712,0.0209 0.0879,0.0879 -0.0684,0.15045 -0.34727,0.13896 -0.30822,-0.0127 -0.37092,-0.0754 -0.15985,-0.15985 z m -7.22643,-0.34842 c 0.29104,-0.12507 0.70776,-0.22739 0.92604,-0.22739 0.25016,0 0.20125,0.0841 -0.13229,0.22739 -0.29104,0.12506 -0.70776,0.22739 -0.92604,0.22739 -0.25016,0 -0.20126,-0.0841 0.13229,-0.22739 z m 8.28476,0.0838 c 0.191,-0.0764 0.4192,-0.067 0.50712,0.0209 0.0879,0.0879 -0.0683,0.15045 -0.34726,0.13896 -0.30823,-0.0127 -0.37092,-0.0754 -0.15986,-0.15985 z m -15.42851,-0.61301 c 0.29104,-0.12507 0.70776,-0.22739 0.92604,-0.22739 0.25016,0 0.20125,0.0841 -0.13229,0.22739 -0.29104,0.12507 -0.70776,0.22739 -0.92604,0.22739 -0.25016,0 -0.20126,-0.0841 0.13229,-0.22739 z m 10.05715,-0.62888 c 0.25011,-0.38172 0.50478,-0.69404 0.56592,-0.69404 0.19139,0 -0.42463,1.0197 -0.73006,1.20847 -0.15984,0.0988 -0.086,-0.13271 0.16414,-0.51443 z m -7.32864,-0.081 c 0.191,-0.0764 0.4192,-0.067 0.50712,0.0209 0.0879,0.0879 -0.0684,0.15045 -0.34726,0.13896 -0.30823,-0.0127 -0.37092,-0.0754 -0.15986,-0.15985 z m 13.65536,-5.24322 c 2.1e-4,-3.05593 0.0387,-4.26985 0.0856,-2.69759 0.0469,1.57225 0.0467,4.07257 -3.9e-4,5.55625 -0.0471,1.48368 -0.0854,0.19728 -0.0852,-2.85866 z m -11.80327,4.71406 c 0.19099,-0.0764 0.4192,-0.067 0.50712,0.0209 0.0879,0.0879 -0.0684,0.15046 -0.34727,0.13897 -0.30822,-0.0127 -0.37092,-0.0754 -0.15985,-0.15985 z m 1.05833,-0.26459 c 0.191,-0.0764 0.4192,-0.067 0.50712,0.0209 0.0879,0.0879 -0.0683,0.15045 -0.34727,0.13896 -0.30822,-0.0127 -0.37092,-0.0754 -0.15985,-0.15985 z m 18.90621,-0.53178 c 0.25743,-0.0671 0.61462,-0.0627 0.79375,0.01 0.17913,0.0725 -0.0315,0.12737 -0.46806,0.12197 -0.43656,-0.005 -0.58312,-0.0647 -0.32569,-0.13177 z m -15.20204,-0.52655 c 0.19099,-0.0764 0.4192,-0.067 0.50712,0.0209 0.0879,0.0879 -0.0684,0.15045 -0.34727,0.13896 -0.30822,-0.0127 -0.37092,-0.0754 -0.15985,-0.15985 z m 1.63711,-0.0838 c -0.3193,-0.20635 -0.27745,-0.25728 0.21405,-0.26054 0.34067,-0.002 0.53859,0.113 0.4474,0.26054 -0.19663,0.31816 -0.16913,0.31816 -0.66145,0 z m 15.875,0.1606 c 0,-0.0572 0.18477,-0.17489 0.41061,-0.26156 0.23546,-0.0904 0.34167,-0.046 0.24897,0.10399 -0.15538,0.25141 -0.65958,0.37185 -0.65958,0.15757 z m -29.29757,-0.34396 c 0.25743,-0.0671 0.61462,-0.0627 0.79375,0.01 0.17913,0.0725 -0.0315,0.12737 -0.46806,0.12197 -0.43656,-0.005 -0.58312,-0.0647 -0.32569,-0.13177 z m 1.73129,-0.26197 c 0.191,-0.0764 0.4192,-0.067 0.50712,0.0209 0.0879,0.0879 -0.0683,0.15045 -0.34727,0.13896 -0.30822,-0.0127 -0.37092,-0.0754 -0.15985,-0.15985 z m 1.32292,-0.26458 c 0.19099,-0.0764 0.4192,-0.067 0.50712,0.0209 0.0879,0.0879 -0.0684,0.15045 -0.34727,0.13896 -0.30822,-0.0127 -0.37092,-0.0754 -0.15985,-0.15985 z m 1.04179,-0.25907 c 0.18191,-0.0734 0.47956,-0.0734 0.66146,0 0.1819,0.0734 0.0331,0.13345 -0.33073,0.13345 -0.3638,0 -0.51263,-0.0601 -0.33073,-0.13345 z m 1.60404,-0.2701 c 0.191,-0.0764 0.4192,-0.067 0.50712,0.0209 0.0879,0.0879 -0.0683,0.15045 -0.34727,0.13896 -0.30822,-0.0127 -0.37092,-0.0754 -0.15985,-0.15985 z m 26.79342,-0.23818 c 0.0127,-0.30823 0.0754,-0.37092 0.15985,-0.15985 0.0764,0.19099 0.067,0.4192 -0.0209,0.50712 -0.0879,0.0879 -0.15045,-0.0684 -0.13896,-0.34727 z m -25.48704,-0.0209 c 0.1819,-0.0734 0.47956,-0.0734 0.66146,0 0.1819,0.0734 0.0331,0.13345 -0.33073,0.13345 -0.3638,0 -0.51263,-0.0601 -0.33073,-0.13345 z m 1.32292,-0.26458 c 0.1819,-0.0734 0.47955,-0.0734 0.66146,0 0.1819,0.0734 0.0331,0.13345 -0.33073,0.13345 -0.36381,0 -0.51263,-0.06 -0.33073,-0.13345 z m -8.99095,-0.66309 c 0.15375,-0.15375 0.43572,-0.22749 0.6266,-0.16386 0.19816,0.0661 0.0782,0.18598 -0.27955,0.27954 -0.44009,0.11509 -0.54339,0.0807 -0.34705,-0.11568 z m 11.90136,0.13392 c 0.18191,-0.0734 0.33073,-0.53222 0.33073,-1.01962 0,-0.66451 -0.13734,-0.92975 -0.5491,-1.06044 -0.30201,-0.0959 -0.4908,-0.23258 -0.41954,-0.30385 0.0713,-0.0713 0.37789,0.003 0.6814,0.16576 0.74006,0.39607 0.81527,2.40527 0.0888,2.37249 -0.27661,-0.0125 -0.32987,-0.0746 -0.1323,-0.15434 z m 21.52005,0.0429 c 0.0276,-0.50118 0.46851,-1.3451 0.48387,-0.92604 0.008,0.21828 -0.10087,0.57547 -0.24194,0.79375 -0.14106,0.21828 -0.24993,0.27781 -0.24193,0.13229 z m -9.4815,-1.4764 c 0.40671,-0.23689 0.47018,-0.79099 0.52194,-4.55602 l 0.0589,-4.28633 0.0802,4.19794 c 0.0794,4.15286 -0.0532,4.94297 -0.8258,4.92214 -0.16409,-0.004 -0.09,-0.12941 0.16469,-0.27773 z m -18.90118,-0.15955 c 0.191,-0.0764 0.4192,-0.067 0.50712,0.0209 0.0879,0.0879 -0.0684,0.15045 -0.34726,0.13896 -0.30823,-0.0127 -0.37092,-0.0754 -0.15986,-0.15985 z m 1.85209,-0.52917 c 0.19099,-0.0764 0.4192,-0.067 0.50712,0.0209 0.0879,0.0879 -0.0684,0.15045 -0.34727,0.13896 -0.30822,-0.0127 -0.37092,-0.0754 -0.15985,-0.15985 z m 1.05833,-0.26458 c 0.191,-0.0764 0.4192,-0.067 0.50712,0.0209 0.0879,0.0879 -0.0684,0.15045 -0.34727,0.13896 -0.30822,-0.0127 -0.37092,-0.0754 -0.15985,-0.15985 z m 26.37618,-0.66749 c 0.23263,-1.22474 0.63355,-2.06236 0.98511,-2.05814 0.23162,0.003 0.2461,0.0649 0.0462,0.19844 -0.16008,0.10691 -0.48821,0.73017 -0.72919,1.38501 -0.24097,0.65485 -0.37693,0.86846 -0.30214,0.47469 z m -34.52865,-0.22572 c 0,-0.15411 0.11906,-0.20661 0.26458,-0.11668 0.14552,0.0899 0.26458,0.21603 0.26458,0.2802 0,0.0642 -0.11906,0.11668 -0.26458,0.11668 -0.14552,0 -0.26458,-0.12609 -0.26458,-0.2802 z m 1.39409,-0.16774 c 0.25744,-0.0671 0.61462,-0.0627 0.79375,0.01 0.17914,0.0725 -0.0315,0.12737 -0.46805,0.12197 -0.43656,-0.005 -0.58313,-0.0647 -0.3257,-0.13177 z m 1.85209,-0.26458 c 0.25743,-0.0671 0.61462,-0.0627 0.79375,0.01 0.17913,0.0725 -0.0315,0.12737 -0.46806,0.12197 -0.43656,-0.005 -0.58312,-0.0647 -0.32569,-0.13177 z m 2.38125,-0.26458 c 0.25743,-0.0671 0.61462,-0.0627 0.79375,0.01 0.17913,0.0725 -0.0315,0.12736 -0.46806,0.12197 -0.43656,-0.005 -0.58312,-0.0647 -0.32569,-0.13177 z m 34.52309,0.008 c 0.1819,-0.0734 0.47955,-0.0734 0.66146,0 0.1819,0.0734 0.0331,0.13345 -0.33073,0.13345 -0.36381,0 -0.51263,-0.06 -0.33073,-0.13345 z m -32.67101,-0.27271 c 0.25743,-0.0671 0.61462,-0.0627 0.79375,0.01 0.17913,0.0725 -0.0315,0.12736 -0.46806,0.12197 -0.43656,-0.005 -0.58312,-0.0647 -0.32569,-0.13178 z m 1.97934,-0.25646 c 0.1819,-0.0734 0.47956,-0.0734 0.66146,0 0.1819,0.0734 0.0331,0.13346 -0.33073,0.13346 -0.3638,0 -0.51263,-0.0601 -0.33073,-0.13346 z m 2.1332,-0.27009 c 0.191,-0.0764 0.4192,-0.067 0.50712,0.0209 0.0879,0.0879 -0.0684,0.15045 -0.34726,0.13896 -0.30823,-0.0127 -0.37092,-0.0754 -0.15986,-0.15985 z m 1.97288,-0.2672 c 0.25743,-0.0671 0.61462,-0.0627 0.79375,0.01 0.17913,0.0725 -0.0315,0.12736 -0.46806,0.12197 -0.43656,-0.005 -0.58312,-0.0647 -0.32569,-0.13178 z m 1.10856,-0.36341 c -0.0959,-0.15521 -0.11765,-0.33893 -0.0483,-0.40829 0.0694,-0.0693 0.1966,0.0576 0.28277,0.28219 0.17891,0.46622 0.0264,0.54823 -0.23447,0.1261 z m 30.70255,0.0176 c 0.29104,-0.12506 0.70776,-0.22739 0.92604,-0.22739 0.25016,0 0.20125,0.0841 -0.13229,0.22739 -0.29104,0.12506 -0.70776,0.22739 -0.92604,0.22739 -0.25016,0 -0.20126,-0.0841 0.13229,-0.22739 z m -45.18202,-0.29741 c 0.17948,-0.18083 0.39297,-0.26212 0.47444,-0.18066 0.0815,0.0815 -0.0654,0.22941 -0.32632,0.32877 -0.37709,0.14358 -0.40748,0.11319 -0.14812,-0.14811 z m 46.9227,-0.3861 c 0.0127,-0.30822 0.0754,-0.37092 0.15985,-0.15985 0.0764,0.191 0.067,0.4192 -0.0209,0.50712 -0.0879,0.0879 -0.15045,-0.0684 -0.13896,-0.34727 z m -8.27258,-0.0264 c 0.19099,-0.0764 0.4192,-0.067 0.50712,0.0209 0.0879,0.0879 -0.0684,0.15045 -0.34727,0.13897 -0.30823,-0.0127 -0.37092,-0.0754 -0.15985,-0.15986 z m -36.5125,-0.26458 c 0.19099,-0.0764 0.4192,-0.067 0.50712,0.0209 0.0879,0.0879 -0.0684,0.15045 -0.34727,0.13896 -0.30822,-0.0127 -0.37092,-0.0754 -0.15985,-0.15985 z m 38.14961,-0.21614 c 0.50932,-0.19613 1.10463,-0.35661 1.32291,-0.35661 0.21828,0 -0.0198,0.16048 -0.52916,0.35661 -0.50933,0.19614 -1.10464,0.35662 -1.32292,0.35662 -0.21828,0 0.0198,-0.16048 0.52917,-0.35662 z m -36.29753,-0.31303 c 0.191,-0.0764 0.4192,-0.067 0.50712,0.0209 0.0879,0.0879 -0.0684,0.15045 -0.34727,0.13897 -0.30822,-0.0127 -0.37092,-0.0754 -0.15985,-0.15986 z m 43.20738,-0.24988 c -0.0414,-0.75904 -0.5714,-1.14015 -1.22131,-0.87819 -0.29104,0.11731 -0.70776,0.2126 -0.92604,0.21175 -0.21828,-8.4e-4 0.0198,-0.15758 0.52916,-0.34832 0.81789,-0.30629 0.98313,-0.29234 1.41483,0.11939 0.27362,0.26097 0.43272,0.68453 0.36142,0.96223 -0.11168,0.43499 -0.13114,0.42676 -0.15806,-0.0669 z m -41.3553,-0.27928 c 0.191,-0.0764 0.4192,-0.067 0.50712,0.0209 0.0879,0.0879 -0.0684,0.15046 -0.34726,0.13897 -0.30823,-0.0127 -0.37092,-0.0754 -0.15986,-0.15985 z m 37.30625,0 c 0.191,-0.0764 0.4192,-0.067 0.50712,0.0209 0.0879,0.0879 -0.0684,0.15046 -0.34726,0.13897 -0.30823,-0.0127 -0.37092,-0.0754 -0.15986,-0.15985 z m -36.24791,-0.26459 c 0.19099,-0.0764 0.4192,-0.067 0.50712,0.0209 0.0879,0.0879 -0.0684,0.15045 -0.34727,0.13897 -0.30822,-0.0127 -0.37092,-0.0754 -0.15985,-0.15986 z m 1.24023,-0.34842 c 0.29104,-0.12507 0.70776,-0.22739 0.92604,-0.22739 0.25016,0 0.20126,0.0841 -0.13229,0.22739 -0.29104,0.12506 -0.70776,0.22739 -0.92604,0.22739 -0.25016,0 -0.20125,-0.0841 0.13229,-0.22739 z m 9.525,-0.26459 c 0.29104,-0.12506 0.76729,-0.22389 1.05833,-0.21961 0.4254,0.006 0.39945,0.0493 -0.13229,0.21961 -0.90465,0.28972 -1.60026,0.28972 -0.92604,0 z m -7.85482,-0.18074 c 0.191,-0.0764 0.4192,-0.067 0.50712,0.0209 0.0879,0.0879 -0.0684,0.15045 -0.34726,0.13897 -0.30823,-0.0127 -0.37092,-0.0754 -0.15986,-0.15986 z m 2.40957,-0.6408 c 0.35209,-0.1391 0.73269,-0.15999 0.84578,-0.0464 0.11309,0.11358 -0.17498,0.2274 -0.64016,0.25293 -0.79393,0.0436 -0.80654,0.0309 -0.20562,-0.20651 z m 14.84606,0.16008 c 0,-0.14552 0.11542,-0.44317 0.25648,-0.66145 0.14107,-0.21828 0.25648,-0.27782 0.25648,-0.1323 0,0.14553 -0.11541,0.44318 -0.25648,0.66146 -0.14106,0.21828 -0.25648,0.27782 -0.25648,0.13229 z m 0.78565,-1.71979 c 0.15576,-0.29104 0.34273,-0.52916 0.41549,-0.52916 0.0728,0 0.005,0.23812 -0.15091,0.52916 -0.15576,0.29104 -0.34273,0.52917 -0.41549,0.52917 -0.0728,0 -0.005,-0.23813 0.15091,-0.52917 z m 1.85208,-0.89314 c 0.50933,-0.19764 0.97565,-0.31566 1.03629,-0.26227 0.19401,0.17084 -0.0871,0.29583 -1.03629,0.46073 l -0.92604,0.16088 z"
         id="path824" />
    </g>
  </g>
</svg>
