<?xml version="1.0" encoding="UTF-8" standalone="no"?>
<!-- Created with Inkscape (http://www.inkscape.org/) -->

<svg
   width="59.081963mm"
   height="59.081963mm"
   viewBox="0 0 59.081963 59.081963"
   version="1.1"
   id="svg125"
   inkscape:version="1.1.2 (b8e25be833, 2022-02-05)"
   sodipodi:docname="LOLLA.svg"
   xmlns:inkscape="http://www.inkscape.org/namespaces/inkscape"
   xmlns:sodipodi="http://sodipodi.sourceforge.net/DTD/sodipodi-0.dtd"
   xmlns="http://www.w3.org/2000/svg"
   xmlns:svg="http://www.w3.org/2000/svg">
  <sodipodi:namedview
     id="namedview127"
     pagecolor="#ffffff"
     bordercolor="#666666"
     borderopacity="1.0"
     inkscape:pageshadow="2"
     inkscape:pageopacity="0.0"
     inkscape:pagecheckerboard="0"
     inkscape:document-units="mm"
     showgrid="false"
     fit-margin-top="0"
     fit-margin-left="0"
     fit-margin-right="0"
     fit-margin-bottom="0"
     inkscape:zoom="2.0107307"
     inkscape:cx="94.990342"
     inkscape:cy="83.303048"
     inkscape:window-width="1920"
     inkscape:window-height="991"
     inkscape:window-x="-9"
     inkscape:window-y="-9"
     inkscape:window-maximized="1"
     inkscape:current-layer="layer1" />
  <defs
     id="defs122" />
  <g
     inkscape:label="Capa 1"
     inkscape:groupmode="layer"
     id="layer1"
     transform="translate(-167.51259,-90.602821)">
    <rect
       style="fill:#ff0000;stroke-width:0.264999"
       id="rect944"
       width="59.081963"
       height="59.081963"
       x="167.51259"
       y="90.602821" />
    <path
       style="fill:#000000;stroke-width:0.264583"
       d="m 181.34534,145.09462 c -1.15329,-0.62576 -1.52468,-1.65688 -1.52468,-4.23301 0,-1.88079 0.1059,-2.48065 0.59001,-3.34201 0.56377,-1.00309 0.56854,-1.0618 0.10718,-1.31999 -0.95135,-0.5324 -1.48423,-2.28883 -1.31362,-4.32978 l 0.15591,-1.86501 -1.75352,-0.86326 c -0.96444,-0.47479 -1.88872,-1.11585 -2.05395,-1.42459 -0.20585,-0.38465 -0.2685,-2.23256 -0.19903,-5.87069 l 0.10139,-5.30935 -1.61271,0.0882 c -2.20677,0.12067 -2.60471,-0.27666 -2.41148,-2.40771 0.20783,-2.29198 0.5677,-2.57527 3.27145,-2.57527 2.1418,0 2.20795,-0.0186 2.20795,-0.62238 0,-0.34232 0.53578,-3.03881 1.19062,-5.9922 0.65485,-2.95339 1.19063,-5.414157 1.19063,-5.468363 0,-0.303218 3.76571,-2.469134 4.29289,-2.469134 0.72082,0 1.2633,0.44872 1.26349,1.045104 1.1e-4,0.339129 0.42368,0.414234 2.4474,0.433966 1.34599,0.01312 3.00165,0.108042 3.67924,0.210931 l 1.23198,0.187071 0.1895,-2.274974 c 0.11317,-1.358509 0.3376,-2.423067 0.55712,-2.64259 0.47471,-0.474711 2.45599,-0.769376 3.73063,-0.554839 0.54796,0.09223 1.88926,0.294524 2.98067,0.449546 1.0914,0.155022 2.1332,0.405039 2.3151,0.555594 0.20954,0.173432 0.33073,0.983536 0.33073,2.210835 v 1.937101 l 1.12448,-0.482608 c 1.57677,-0.676724 6.99274,-0.963665 8.25267,-0.437231 1.57658,0.658736 1.85112,1.402759 1.99993,5.419871 l 0.13229,3.57116 1.50226,-0.0703 c 1.7199,-0.0804 1.88423,0.0804 2.18231,2.13582 0.14002,0.96553 0.31021,1.2828 0.76142,1.41948 0.74667,0.22617 1.72999,1.1235 2.15581,1.96728 0.1836,0.3638 0.48276,1.95018 0.6648,3.52528 0.29354,2.53976 0.28178,2.99266 -0.10387,4.00249 -0.55836,1.46203 -1.17521,2.00343 -2.73079,2.39678 -1.25078,0.31627 -1.25733,0.32374 -1.33672,1.52556 -0.0439,0.66425 -0.22608,1.32915 -0.40489,1.47755 -0.17882,0.1484 -0.97635,0.30672 -1.7723,0.35181 -1.14714,0.065 -1.41976,0.16427 -1.3149,0.47886 0.0728,0.21828 0.11776,2.06997 0.1,4.11487 -0.0366,4.21731 -0.30077,5.07811 -1.83621,5.98404 -0.84926,0.50108 -1.19649,1.01359 -0.6867,1.01359 0.1226,0 0.43309,0.39028 0.68997,0.86728 0.37518,0.69665 0.44844,1.35133 0.3724,3.32781 -0.0946,2.45767 -0.0958,2.46161 -1.08297,3.36606 l -0.9883,0.90552 -13.96066,-0.0106 c -11.83241,-0.009 -14.07107,-0.0705 -14.68493,-0.40359 z m 8.95069,-2.09936 c 0.55192,-0.84233 0.87723,-0.83315 1.57707,0.0445 0.62274,0.78099 1.44131,0.71377 1.44131,-0.11836 0,-0.57314 -1.21644,-3.76199 -1.5699,-4.11546 -0.13389,-0.13389 -0.53743,-0.16965 -0.89675,-0.0795 -0.52582,0.13198 -0.79399,0.54971 -1.37425,2.14068 -0.39652,1.0872 -0.65077,2.1596 -0.565,2.38312 0.23464,0.61145 0.89989,0.48916 1.38752,-0.25505 z m 6.11671,0.13229 c 0.0761,-0.29104 0.22511,-0.52917 0.3311,-0.52917 0.106,0 0.40822,0.23813 0.67161,0.52917 0.99002,1.09396 2.17279,0.3339 1.37505,-0.88361 -0.26091,-0.3982 -0.31922,-0.74718 -0.16543,-0.99014 0.37111,-0.58632 0.28714,-1.48648 -0.18246,-1.95608 -0.31571,-0.31571 -0.81914,-0.40747 -1.91823,-0.34963 l -1.49018,0.0784 -0.0786,1.95961 c -0.0432,1.07779 -0.0172,2.11959 0.0578,2.31511 0.21396,0.55758 1.24139,0.43005 1.39927,-0.17368 z m 0.12738,-2.66568 c 0.0521,-0.15643 0.20792,-0.28442 0.34616,-0.28442 0.13825,0 0.29402,0.12799 0.34616,0.28442 0.0522,0.15644 -0.10362,0.28443 -0.34616,0.28443 -0.24253,0 -0.39831,-0.12799 -0.34616,-0.28443 z m 5.71402,0.92047 c 0.0595,-1.67274 -0.013,-2.21607 -0.33073,-2.47979 -0.3251,-0.26981 -0.48672,-0.27148 -0.80379,-0.008 -0.28999,0.24066 -0.39688,0.87884 -0.39688,2.36955 0,2.21011 0.096,2.45523 0.91515,2.33796 0.48538,-0.0695 0.54777,-0.29417 0.61625,-2.21939 z m 4.653,2.02246 c 1.07656,-0.40931 1.38254,-1.26452 0.8237,-2.30222 -0.39092,-0.72589 -0.41161,-0.94172 -0.12353,-1.28883 0.82248,-0.99103 -1.92264,-1.85359 -3.01469,-0.94727 -0.49906,0.41418 -0.57407,1.8948 -0.11905,2.34982 0.23861,0.23861 0.19921,0.43504 -0.16881,0.8417 -0.71912,0.79463 -0.12986,1.36085 1.62628,1.56269 0.17243,0.0198 0.61167,-0.0773 0.9761,-0.21589 z m -21.42158,-0.67412 c 0.0913,-0.36381 0.32628,-0.66146 0.52216,-0.66146 0.71698,0 1.75044,-1.08061 1.75044,-1.83028 0,-1.16114 -0.7628,-1.65254 -2.41847,-1.55799 l -1.41799,0.081 -0.0803,1.71162 c -0.10836,2.31048 0.0688,2.91858 0.85039,2.91858 0.44892,0 0.67502,-0.18841 0.79375,-0.66145 z m 0.0236,-2.24896 c -0.21577,-0.34913 0.1006,-0.84457 0.41516,-0.65016 0.32136,0.19861 0.31927,0.91474 -0.003,0.91474 -0.13693,0 -0.32255,-0.11906 -0.41249,-0.26458 z m 15.47812,-4.22341 v -1.0484 l -2.44739,-0.0761 c -2.2789,-0.0708 -2.45301,-0.11544 -2.52887,-0.64789 -0.068,-0.47746 0.35957,-0.81935 2.59129,-2.07192 l 2.67276,-1.50012 -0.0777,-1.76453 -0.0777,-1.76453 -0.92605,-0.0345 -0.92604,-0.0345 0.8599,0.11744 0.85989,0.11744 -0.003,1.63688 -0.003,1.63689 -2.5749,1.4552 c -2.57684,1.45631 -3.0724,2.02405 -2.43602,2.79084 0.23229,0.27989 0.92049,0.38416 2.53539,0.38416 h 2.21657 v 0.79375 0.79375 h -4.08165 c -3.66479,0 -4.09399,-0.0473 -4.20264,-0.46302 -0.091,-0.34843 -0.12859,-0.31569 -0.15169,0.13229 -0.0307,0.59455 -0.0251,0.59532 4.33493,0.59532 h 4.36562 z m -7.20184,-3.02072 c 0.76842,-0.27548 1.35254,-0.54546 1.29805,-0.59995 -0.1426,-0.14259 -2.31923,0.65291 -2.73847,1.00085 -0.205,0.17014 -0.33687,0.75233 -0.31383,1.38552 l 0.0397,1.09208 0.1587,-1.18882 c 0.15415,-1.15475 0.19874,-1.20317 1.55581,-1.68968 z m -4.40003,2.19575 c 1.11086,-0.59452 1.3193,-1.78148 1.0047,-5.72129 -0.32947,-4.12607 -0.62474,-4.92576 -1.98443,-5.3745 -1.16863,-0.38568 -5.47757,-0.10279 -6.5125,0.42757 -0.96661,0.49533 -1.20653,1.46918 -1.41114,5.72768 l -0.17475,3.63713 0.79464,0.79464 0.79465,0.79465 h 3.47733 c 1.98494,0 3.70658,-0.1227 4.0115,-0.28588 z m -5.76718,-3.02723 c -0.085,-0.22148 -0.07,-1.30426 0.0332,-2.40616 0.22596,-2.41127 0.67562,-3.01198 2.25459,-3.01198 1.65076,0 2.11667,0.64445 2.11667,2.92781 0,2.70551 -0.15548,2.89302 -2.39886,2.89302 -1.41322,0 -1.88763,-0.0953 -2.00561,-0.40269 z m 27.97465,2.05216 c 0.7672,-0.85927 0.77146,-0.88279 0.76744,-4.23333 -0.002,-1.8531 -0.0915,-3.50027 -0.19844,-3.66039 -0.54143,-0.81086 -1.48101,-0.96885 -4.65704,-0.78308 -3.33744,0.19522 -4.50619,0.55242 -4.79609,1.46581 -0.23992,0.75592 0.0423,1.0636 0.97579,1.0636 0.52834,0 1.02904,-0.23209 1.42696,-0.66145 1.17255,-1.26521 3.81328,-0.69752 3.81328,0.81975 0,0.95112 -0.9534,1.4292 -2.85013,1.4292 -2.19988,0 -3.15465,0.49175 -3.38994,1.74598 -0.23729,1.26486 0.26118,2.84976 1.01125,3.21528 1.11351,0.54263 1.38777,0.57608 4.2589,0.51934 l 2.86653,-0.0566 z m -4.99643,-0.90864 c -0.17463,-0.17462 -0.3175,-0.70365 -0.3175,-1.17562 0,-1.07549 0.79065,-1.68188 2.19293,-1.68188 1.54424,0 2.0404,0.37543 2.0404,1.5439 0,1.34391 -0.37268,1.6311 -2.11666,1.6311 -0.81492,0 -1.62454,-0.14287 -1.79917,-0.3175 z m -8.51958,-1.89511 c 1.12919,-0.43954 1.47521,-0.70783 1.5445,-1.19752 0.0491,-0.34708 -0.07,-0.732 -0.26458,-0.85537 -0.19464,-0.12337 -1.48498,-0.20308 -2.86742,-0.17712 l -2.51355,0.0472 2.64584,0.1472 c 2.45438,0.13654 2.65172,0.18848 2.72714,0.71782 0.0682,0.4787 -0.16621,0.66073 -1.4552,1.12994 -0.84509,0.30762 -1.77465,0.67655 -2.06569,0.81983 -0.8711,0.42885 0.54849,0.0299 2.24896,-0.63197 z m -4.7625,-1.8584 c 0,-0.0562 -0.3509,-0.15376 -0.77978,-0.21671 -0.42888,-0.0629 -0.71951,-0.0169 -0.64584,0.10226 0.1311,0.21214 1.42562,0.31606 1.42562,0.11445 z m -1.66223,-2.47379 c -0.0608,-0.40218 -0.1122,-0.13593 -0.11418,0.59168 -0.002,0.7276 0.0478,1.05666 0.11057,0.73124 0.0628,-0.32542 0.0644,-0.92073 0.004,-1.32292 z m -12.62527,-1.62488 c 0,-1.61003 0.10869,-2.43906 0.34555,-2.63564 0.19005,-0.15772 1.5295,-0.32598 2.97656,-0.37389 l 2.63101,-0.0871 -2.69308,-0.0554 c -3.45174,-0.071 -3.52463,-0.009 -3.52463,3.00624 0,1.22653 -0.0654,2.23006 -0.14543,2.23006 -0.08,0 -0.49127,-0.17884 -0.91396,-0.39743 -0.71571,-0.3701 -0.7749,-0.52015 -0.86108,-2.18281 l -0.0925,-1.78539 -0.0518,1.78983 c -0.0509,1.75709 -0.0361,1.79941 0.80807,2.31411 1.436,0.87555 1.52136,0.7733 1.52136,-1.82258 z m 19.11614,1.3637 c -0.47294,-0.0587 -1.24685,-0.0587 -1.71979,0 -0.47294,0.0587 -0.086,0.10672 0.8599,0.10672 0.94588,0 1.33284,-0.048 0.85989,-0.10672 z m -3.57777,-0.26628 c -0.54895,-0.0573 -1.38239,-0.0563 -1.85209,0.002 -0.46969,0.0585 -0.0206,0.10531 0.99809,0.10414 1.01865,-0.001 1.40294,-0.049 0.854,-0.10627 z m 6.42441,-1.82309 c 1.56959,-0.62803 1.65269,-0.9326 1.3099,-4.8012 -0.31933,-3.60386 -0.70444,-4.70007 -1.85592,-5.28281 -0.83126,-0.42068 -6.57148,-0.44431 -7.94531,-0.0327 -1.3575,0.40672 -2.39655,1.52991 -2.44937,2.64771 -0.0398,0.84195 0.008,0.89033 0.95078,0.96837 0.85927,0.0711 1.0275,-0.01 1.25202,-0.60005 0.32728,-0.86081 1.21769,-1.20188 3.13764,-1.20188 1.83063,0 2.68748,0.50059 2.68748,1.5701 0,1.15938 -0.58807,1.4329 -3.4521,1.60565 -3.29943,0.19902 -3.69165,0.48004 -3.69165,2.64508 0,2.19037 0.40196,2.47271 3.79787,2.66761 4.66184,0.26755 5.16259,0.25267 6.25866,-0.18588 z m -5.4654,-1.42163 c -1.24851,-0.50374 -1.12529,-1.89135 0.20925,-2.35658 1.22513,-0.42708 3.02722,-0.36312 3.51509,0.12475 0.59674,0.59675 0.51357,1.6024 -0.17226,2.08277 -0.63408,0.44412 -2.61477,0.52725 -3.55208,0.14906 z m 19.88282,-0.39864 c 0,-0.78748 -0.012,-0.79392 -1.52267,-0.8155 l -1.52268,-0.0218 1.45653,0.1011 c 1.34531,0.0934 1.45653,0.15101 1.45653,0.75472 v 0.65363 l -5.4901,-0.0715 -5.49011,-0.0715 -0.0713,-5.73662 -0.0712,-5.73662 0.66984,-0.11645 c 0.62293,-0.10828 0.61865,-0.11418 -0.061,-0.0842 l -0.73088,0.0322 -0.0714,5.80195 c -0.055,4.4638 0.006,5.85183 0.26459,6.01821 0.18481,0.11895 2.7768,0.18698 5.75998,0.15118 l 5.42395,-0.0651 z m -28.90069,-0.30584 c -0.17913,-0.0725 -0.53632,-0.0769 -0.79375,-0.01 -0.25743,0.0671 -0.11087,0.12638 0.32569,0.13177 0.43657,0.005 0.64719,-0.0495 0.46806,-0.12197 z m -9.44777,-7.68507 c -0.0725,-0.1889 -0.3439,-0.33985 -0.60313,-0.33542 -0.44667,0.008 -0.44711,0.0222 -0.008,0.27773 0.40191,0.23409 0.47068,0.76556 0.52105,4.02685 l 0.058,3.75717 0.0821,-3.69143 c 0.0451,-2.03028 0.0228,-3.84599 -0.0497,-4.0349 z m 11.24607,7.32014 c 0.46827,-0.25061 0.51177,-0.58633 0.51177,-3.94985 0,-2.989 -0.0777,-3.75366 -0.41577,-4.09173 -0.57983,-0.57983 -0.82118,-0.52252 -0.2867,0.0681 0.36242,0.40046 0.43789,1.10598 0.43789,4.09348 v 3.60962 l -0.8599,0.24828 c -0.47294,0.13656 -0.64371,0.25903 -0.37948,0.27215 0.26423,0.0131 0.71071,-0.0994 0.99219,-0.25003 z m 18.79528,-0.0133 c -0.61746,-0.24698 -0.62986,-0.31111 -0.46992,-2.43063 0.42316,-5.60785 0.42969,-5.96932 0.0584,-3.23528 -0.63169,4.6515 -0.48919,5.98235 0.63561,5.93635 0.23483,-0.01 0.13906,-0.12519 -0.22409,-0.27044 z m 4.13993,0.0945 c -0.54571,-0.0571 -1.43867,-0.0571 -1.98438,0 -0.5457,0.0571 -0.0992,0.10378 0.99219,0.10378 1.09141,0 1.53789,-0.0467 0.99219,-0.10378 z m -25.05613,-1.00467 c 0.42933,-0.22201 0.78061,-0.59239 0.78061,-0.82306 0,-0.31119 -0.13043,-0.25824 -0.50555,0.20524 -0.41134,0.50822 -0.84276,0.65384 -2.31511,0.78143 l -1.80955,0.1568 1.53449,0.0416 c 0.93449,0.0254 1.83972,-0.11621 2.31511,-0.36204 z m -4.46117,-0.40038 c -0.50202,-0.46771 -0.57906,-0.8197 -0.57906,-2.64584 0,-1.75358 0.0886,-2.19498 0.52917,-2.63552 0.29104,-0.29104 0.41686,-0.52917 0.27959,-0.52917 -0.65589,0 -1.07334,1.23484 -1.07334,3.175 0,1.99104 0.41885,3.175 1.12323,3.175 0.16471,0 0.0389,-0.24276 -0.27959,-0.53947 z m 34.43519,-0.21465 c 2.46003,-0.16249 2.63973,-0.21488 3.27629,-0.95514 0.6521,-0.75833 0.6679,-0.86341 0.49722,-3.30729 -0.097,-1.38824 -0.29477,-2.9662 -0.4396,-3.50658 -0.43623,-1.62757 -0.91973,-1.79562 -5.16614,-1.79562 -3.3468,0 -3.81325,0.0561 -4.41763,0.53152 -0.78212,0.61523 -1.15862,2.05368 -1.41687,5.41334 -0.17075,2.22144 -0.17044,2.22293 0.64026,3.03363 0.75406,0.75405 0.93813,0.80923 2.61739,0.78458 0.99346,-0.0146 2.97755,-0.10388 4.40908,-0.19844 z m -4.12887,-3.05872 c -0.81991,-0.81991 -0.8887,-2.84427 -0.12893,-3.79393 0.16843,-0.21053 0.97064,-0.33073 2.20727,-0.33073 2.26447,0 2.49045,0.21155 2.49045,2.33146 0,1.64795 -0.32532,1.92521 -2.45994,2.09655 -1.3282,0.10662 -1.76116,0.0443 -2.10885,-0.30335 z m -25.06454,-0.0236 c 0,-2.38598 -0.42776,-2.79612 -2.84427,-2.72714 l -1.78594,0.051 1.71466,0.0955 c 2.30843,0.1286 2.65096,0.46734 2.65096,2.62165 0,0.92333 0.0595,1.67878 0.13229,1.67878 0.0728,0 0.1323,-0.7739 0.1323,-1.71979 z m -13.69219,-2.68877 c -0.1819,-0.0734 -0.33073,-0.32197 -0.33073,-0.55237 0,-0.23041 -0.0742,-0.34469 -0.16498,-0.25395 -0.25811,0.25811 0.11013,0.98391 0.48741,0.96066 0.26554,-0.0164 0.26734,-0.0498 0.008,-0.15434 z m 2.11667,-0.27608 c -0.32743,-0.0631 -0.86321,-0.0631 -1.19063,0 -0.32742,0.0631 -0.0595,0.11466 0.59531,0.11466 0.65485,0 0.92274,-0.0516 0.59532,-0.11466 z m -2.26666,-1.45038 c -0.0845,-0.21107 -0.14716,-0.14837 -0.15985,0.15985 -0.0115,0.27891 0.051,0.43518 0.13896,0.34727 0.0879,-0.0879 0.0973,-0.31613 0.0209,-0.50712 z m 13.97447,0.31419 c -0.29104,-0.12506 -1.60073,-0.21297 -2.91042,-0.19534 l -2.38125,0.032 2.51354,0.16329 c 1.38245,0.0898 2.69214,0.17771 2.91042,0.19534 0.21828,0.0176 0.15875,-0.0703 -0.13229,-0.19534 z m 20.24062,-0.66146 c 0,-0.87651 -0.046,-0.92392 -0.85989,-0.8864 -0.80035,0.0369 -0.80951,0.0473 -0.13229,0.14987 0.60335,0.0914 0.7276,0.24277 0.7276,0.8864 0,0.42689 0.0595,0.77617 0.13229,0.77617 0.0728,0 0.13229,-0.41672 0.13229,-0.92604 z m -27.7041,0.20127 c -0.90345,-0.0515 -2.45126,-0.0519 -3.43958,-8.5e-4 -0.98832,0.0511 -0.24913,0.0932 1.64264,0.0937 1.89177,4.5e-4 2.7004,-0.0413 1.79694,-0.0928 z m 21.70173,-0.59566 c 0.11843,-0.10727 0.11117,-0.59819 -0.0161,-1.09094 l -0.2315,-0.89592 -2.27481,-0.0761 c -1.4087,-0.0471 -2.3791,-0.20175 -2.54871,-0.40612 -0.18935,-0.22815 -0.15217,-2.64765 0.12044,-7.8382 0.30783,-5.86117 0.32407,-7.551595 0.074,-7.706131 -0.45775,-0.282908 -2.16463,0.0176 -2.50645,0.441285 -0.30478,0.377753 -0.63534,7.600026 -0.63664,13.909566 l -7.5e-4,3.61597 0.7276,0.25711 c 0.79848,0.28215 6.94486,0.10472 7.29294,-0.21053 z m -9.19671,-0.89191 c 0.0863,-0.34367 0.11828,-1.02828 0.0712,-1.52136 l -0.0856,-0.8965 -2.11667,0.01 c -1.16416,0.005 -3.16025,0.0572 -4.43574,0.11508 -1.55602,0.0706 -2.42163,0.003 -2.63073,-0.2064 -0.23913,-0.23913 -0.20677,-1.34319 0.13911,-4.74529 0.47889,-4.710547 0.54512,-6.15344 0.28244,-6.15344 -0.43732,0 -2.73678,1.441793 -2.87534,1.80287 -0.31236,0.81399 -2.25369,9.84962 -2.25369,10.48945 0,0.38219 0.21909,0.7709 0.52756,0.93598 0.50257,0.26897 6.38254,0.67114 11.04292,0.75529 2.08309,0.0376 2.18459,0.0122 2.3346,-0.58552 z m 22.60742,-1.71643 c 1.35805,-0.16077 1.461,-0.223 1.54204,-0.9321 0.12406,-1.0857 -0.27198,-1.33487 -2.14028,-1.34653 l -1.65072,-0.0103 v -3.9251 -3.925087 l -0.74236,-0.638972 c -0.62984,-0.542119 -1.01082,-0.636908 -2.51354,-0.625381 -5.40142,0.04143 -6.65527,0.639087 -6.87398,3.27652 l -0.12211,1.47239 h 0.95377 c 0.82543,0 0.97521,-0.0979 1.11319,-0.7276 0.0877,-0.40019 0.20528,-0.87644 0.26132,-1.05834 0.13636,-0.44262 3.85808,-0.45407 4.29892,-0.0132 0.17462,0.17463 0.3175,0.71336 0.3175,1.19718 0,1.03337 -0.65322,1.39574 -2.51602,1.39574 -0.84335,0 -1.36066,0.17376 -1.901,0.63855 -0.67192,0.57796 -0.74236,0.80188 -0.74236,2.35993 0,1.45767 0.0983,1.82599 0.64143,2.40416 0.63696,0.67801 0.66928,0.68259 4.63021,0.65661 2.19383,-0.0144 4.64362,-0.10369 5.44399,-0.19844 z m -7.01146,-1.28437 c -1.24625,-0.29006 -1.63412,-2.11913 -0.60259,-2.84165 0.82398,-0.57713 2.6572,-0.53599 3.20741,0.072 0.87051,0.9619 0.30358,2.69115 -0.88229,2.69115 -0.26874,0 -0.64719,0.0454 -0.841,0.10084 -0.1938,0.0555 -0.59049,0.0454 -0.88153,-0.0223 z m -5.15938,-0.73998 c 0,-1.17611 -0.0109,-1.19063 -0.89364,-1.19063 -1.18166,0 -1.43895,-0.37363 -1.55496,-2.25811 l -0.0972,-1.57834 -0.05,1.77662 c -0.0546,1.93958 0.21895,2.32442 1.65237,2.32442 0.60092,0 0.67885,0.10754 0.67885,0.93674 v 0.93674 l -2.18281,-0.0768 -2.18282,-0.0768 -0.15869,-1.19063 -0.1587,-1.19062 -0.0397,1.07156 c -0.0219,0.58936 0.10313,1.21444 0.27776,1.38906 0.19594,0.19594 1.15829,0.3175 2.51354,0.3175 h 2.19604 z m -16.80104,-0.0592 c -1.12327,-0.27611 -1.23686,-0.58335 -1.09659,-2.96614 l 0.13341,-2.26637 -0.27394,2.19727 c -0.24475,1.96322 -0.22431,2.2521 0.19187,2.71198 0.2562,0.28309 0.71525,0.5009 1.02011,0.48402 0.53332,-0.0295 0.53428,-0.0356 0.0251,-0.16076 z m 2.1859,-0.25492 c -0.25297,-0.0662 -0.72922,-0.0686 -1.05833,-0.005 -0.32912,0.0633 -0.12215,0.11747 0.45993,0.1204 0.58208,0.003 0.85136,-0.0488 0.5984,-0.11506 z m 2.11667,-0.26459 c -0.25297,-0.0662 -0.72922,-0.0686 -1.05834,-0.005 -0.32912,0.0633 -0.12215,0.11747 0.45994,0.12041 0.58208,0.003 0.85136,-0.0488 0.5984,-0.11507 z m 1.68431,-0.54581 c 0.31554,-0.40235 0.31112,-0.42434 -0.0337,-0.16782 -0.21828,0.16236 -0.57547,0.36132 -0.79375,0.44213 -0.33199,0.12291 -0.32647,0.15035 0.0337,0.16782 0.23684,0.0115 0.59403,-0.18747 0.79375,-0.44213 z m -0.94777,-0.71558 c 0.52417,-0.52416 0.64225,-0.89417 0.61218,-1.91823 l -0.0373,-1.26879 -0.17124,1.41773 c -0.19375,1.60421 -0.70515,2.15414 -2.00322,2.15414 -0.8764,0 -1.56772,-0.4063 -1.80075,-1.05833 -0.11464,-0.32075 -0.14585,-0.31094 -0.16273,0.0511 -0.0586,1.25749 2.48379,1.70156 3.56301,0.62234 z m 1.44318,-2.50667 c 0,-2.74497 -0.26531,-3.46345 -1.27567,-3.45458 -0.30395,0.003 -0.23536,0.10932 0.21734,0.33792 0.6322,0.31924 0.66479,0.45363 0.73686,3.0388 0.0415,1.48764 0.13077,2.7048 0.19844,2.7048 0.0677,0 0.12303,-1.18212 0.12303,-2.62694 z m 5.75073,-1.27567 c -0.0545,-0.69122 -0.0991,-0.12567 -0.0991,1.25677 0,1.38245 0.0446,1.948 0.0991,1.25677 0.0545,-0.69122 0.0545,-1.82231 0,-2.51354 z m -10.10909,-0.50105 c 0.26992,-0.19736 0.99703,-0.35884 1.61581,-0.35884 0.86266,0 1.22111,0.13714 1.53693,0.58804 0.22653,0.32342 0.41187,0.48162 0.41187,0.35156 0,-0.6528 -0.9329,-1.20419 -2.03741,-1.20419 -1.55903,0 -2.47469,0.86876 -2.42739,2.30308 l 0.0331,1.00422 0.18816,-1.16251 c 0.1057,-0.65302 0.40324,-1.31978 0.67891,-1.52136 z m 12.75741,-3.269257 c -0.009,-1.081464 -0.0282,-1.045077 -0.20715,0.396875 -0.10833,0.873125 -0.19238,2.123282 -0.18678,2.778122 0.009,1.08146 0.0282,1.04508 0.20715,-0.39687 0.10833,-0.87313 0.19238,-2.123283 0.18678,-2.778127 z m -14.74905,1.664027 c 0.36381,-0.18332 0.49224,-0.33507 0.28542,-0.33721 -0.73783,-0.008 -1.34502,0.83978 -1.3062,1.82304 l 0.0375,0.95118 0.16089,-1.05185 c 0.11696,-0.76464 0.34151,-1.14287 0.82235,-1.38516 z m 12.36532,-3.185381 c -0.0545,-0.691224 -0.0991,-0.125677 -0.0991,1.256771 0,1.382443 0.0446,1.94799 0.0991,1.256773 0.0545,-0.691226 0.0545,-1.82232 0,-2.513544 z m -8.45797,2.919801 c -0.39758,-0.0604 -1.11196,-0.0616 -1.5875,-0.003 -0.47555,0.0589 -0.15026,0.10828 0.72286,0.10976 0.87313,0.001 1.26221,-0.0467 0.86464,-0.10706 z m 11.1739,-3.647405 c 0,-0.876508 -0.046,-0.923921 -0.85989,-0.886399 -0.80035,0.0369 -0.80951,0.04728 -0.13229,0.149866 0.60335,0.0914 0.7276,0.242771 0.7276,0.886399 0,0.426897 0.0595,0.776176 0.13229,0.776176 0.0728,0 0.13229,-0.416719 0.13229,-0.926042 z m -1.97737,-1.139527 c -0.0815,-0.08146 -0.29496,-1.67e-4 -0.47443,0.180654 -0.25936,0.261306 -0.22897,0.291698 0.14811,0.148112 0.26094,-0.09936 0.40778,-0.247304 0.32632,-0.328766 z"
       id="path822" />
  </g>
</svg>
