<?xml version="1.0" encoding="UTF-8" standalone="no"?>
<svg
   version="1.0"
   width="409.12073pt"
   height="121.98026pt"
   viewBox="0 0 409.12073 121.98025"
   preserveAspectRatio="xMidYMid meet"
   id="svg28"
   sodipodi:docname="parookaville.svg"
   inkscape:version="1.1.2 (b8e25be833, 2022-02-05)"
   xmlns:inkscape="http://www.inkscape.org/namespaces/inkscape"
   xmlns:sodipodi="http://sodipodi.sourceforge.net/DTD/sodipodi-0.dtd"
   xmlns="http://www.w3.org/2000/svg"
   xmlns:svg="http://www.w3.org/2000/svg">
  <defs
     id="defs32" />
  <sodipodi:namedview
     id="namedview30"
     pagecolor="#ffffff"
     bordercolor="#666666"
     borderopacity="1.0"
     inkscape:pageshadow="2"
     inkscape:pageopacity="0.0"
     inkscape:pagecheckerboard="0"
     inkscape:document-units="pt"
     showgrid="false"
     fit-margin-top="0"
     fit-margin-left="0"
     fit-margin-right="0"
     fit-margin-bottom="0"
     inkscape:zoom="1.2363139"
     inkscape:cx="208.68487"
     inkscape:cy="73.201476"
     inkscape:window-width="1920"
     inkscape:window-height="991"
     inkscape:window-x="-9"
     inkscape:window-y="-9"
     inkscape:window-maximized="1"
     inkscape:current-layer="g26" />
  <g
     transform="matrix(0.1,0,0,-0.1,-0.7,121.88025)"
     fill="#000000"
     stroke="none"
     id="g26">
    <path
       d="m 3004,1213 -51,-4 -7,-76 c -3,-42 -6,-101 -6,-132 0,-31 -8,-85 -17,-121 -8,-36 -17,-99 -18,-140 -2,-54 -12,-100 -35,-165 -18,-49 -36,-94 -41,-99 -40,-45 -28,479 16,647 7,28 13,53 12,54 -1,0 -32,-1 -68,-4 l -65,-5 -2,-147 c 0,-80 -6,-174 -13,-208 -13,-67 -9,-125 31,-378 15,-93 17,-122 7,-134 -10,-12 -8,-13 13,-8 14,4 44,7 67,7 34,0 41,3 37,15 -4,8 26,100 65,203 70,187 71,190 96,391 14,112 30,226 35,253 12,61 12,58 3,56 -5,-1 -31,-3 -59,-5 z"
       id="path2" />
    <path
       d="m 4040,1093 c -30,-6 -71,-12 -91,-12 -20,-1 -51,-4 -68,-7 -25,-5 -30,-10 -25,-28 5,-20 -59,-547 -72,-593 -7,-27 -7,-27 76,-7 36,8 85,14 110,12 44,-2 45,-2 54,35 5,20 8,39 5,41 -2,2 -34,-1 -72,-7 -37,-6 -69,-8 -71,-6 -2,2 3,49 10,104 7,55 13,103 14,108 0,4 20,7 44,7 41,0 44,2 50,31 10,51 9,52 -39,46 -31,-5 -45,-3 -45,5 0,6 5,51 11,100 13,100 19,105 105,95 39,-4 44,-2 44,15 0,11 5,28 11,39 16,31 8,35 -51,22 z"
       id="path4" />
    <path
       d="m 3651,1081 -44,-6 -1,-77 c -1,-61 -5,-82 -22,-105 -16,-21 -19,-34 -13,-51 9,-23 -33,-341 -52,-389 -5,-14 -8,-27 -6,-29 2,-2 54,-1 115,3 l 112,6 10,36 c 16,58 16,58 -50,47 -33,-5 -62,-7 -66,-3 -6,5 4,81 56,430 6,37 16,85 24,107 15,45 20,42 -63,31 z"
       id="path6" />
    <path
       d="m 3303,953 c -1,-40 -7,-82 -14,-94 -6,-12 -13,-56 -14,-98 -3,-86 -37,-301 -54,-345 -6,-16 -10,-30 -8,-32 2,-2 30,1 63,7 54,10 103,15 162,18 22,1 28,11 46,69 7,20 5,21 -16,13 -13,-4 -49,-12 -82,-16 l -59,-7 7,34 c 3,18 15,98 26,178 36,259 42,295 55,321 l 14,25 h -62 -62 z"
       id="path8" />
    <path
       d="m 292,1000 c -27,-17 -37,-18 -48,-9 -11,9 -31,9 -88,-1 L 82,977 78,793 C 75,628 73,607 57,595 41,584 40,578 51,559 72,519 46,136 14,22 L 7,-1 46,16 c 22,9 53,19 69,21 l 30,5 -3,75 c -3,41 -1,121 3,179 l 7,104 29,-15 c 16,-9 48,-18 72,-21 39,-6 48,-3 75,22 l 32,29 20,243 c 23,282 24,334 8,350 -18,18 -59,14 -96,-8 z m 12,-88 c 10,-17 -33,-435 -46,-444 -23,-14 -88,-9 -94,7 -6,15 13,368 22,412 3,14 13,23 32,26 49,7 81,7 86,-1 z"
       id="path10" />
    <path
       d="m 3111,978 c 11,-37 3,-106 -15,-127 -6,-8 -10,-38 -8,-70 2,-31 -3,-85 -12,-121 -8,-36 -18,-99 -21,-140 -4,-41 -14,-92 -21,-114 -17,-47 -17,-49 -2,-40 7,5 33,8 58,9 44,0 45,1 47,35 6,82 68,536 78,575 6,18 1,20 -54,23 l -60,2 z"
       id="path12" />
    <path
       d="m 2518,974 c -4,-3 -36,-6 -73,-7 -57,-2 -70,-5 -86,-26 -10,-13 -19,-35 -19,-50 0,-14 -5,-42 -11,-61 -5,-19 -12,-78 -14,-130 -4,-123 -30,-347 -44,-383 -10,-27 -10,-28 11,-20 13,4 40,7 61,6 l 37,-3 v 47 c 0,25 5,97 12,159 11,108 13,114 34,114 13,0 34,-5 48,-12 25,-11 26,-13 20,-82 -6,-71 -18,-153 -29,-191 -6,-19 -2,-20 53,-17 l 59,4 -5,46 c -2,26 5,112 17,192 41,286 51,393 40,407 -11,13 -100,19 -111,7 z m 12,-94 c 0,-29 -22,-224 -26,-229 -2,-2 -13,7 -24,21 -11,14 -30,28 -43,32 -23,5 -23,7 -14,88 5,46 14,89 19,96 6,6 28,12 49,12 32,0 39,-3 39,-20 z"
       id="path14" />
    <path
       d="m 2025,953 c -71,-9 -76,-12 -64,-35 12,-23 7,-148 -8,-171 -4,-6 -6,-34 -5,-62 6,-88 -32,-333 -64,-409 -6,-17 -4,-18 17,-13 13,4 42,7 64,7 h 41 l -4,37 c -6,49 19,273 30,273 5,0 24,-7 43,-14 34,-14 35,-17 35,-68 -1,-29 -7,-89 -15,-133 -8,-43 -13,-80 -12,-80 1,-1 27,1 57,4 l 55,6 v 90 c 0,50 4,111 8,137 l 8,48 -45,28 -45,29 27,20 c 17,13 47,61 79,131 l 52,112 -42,-4 c -23,-2 -52,-4 -64,-5 -16,-1 -20,-6 -16,-22 5,-19 -37,-167 -57,-198 -7,-12 -13,-13 -35,-3 -27,12 -27,13 -20,83 7,74 27,172 40,202 8,18 5,18 -60,10 z"
       id="path16" />
    <path
       d="m 1770,910 c -14,-4 -53,-8 -87,-9 -54,-1 -64,-4 -82,-27 -12,-15 -21,-41 -21,-58 -1,-17 -7,-47 -14,-67 -8,-23 -10,-44 -4,-60 6,-15 4,-64 -6,-134 -27,-193 -38,-304 -30,-316 4,-8 24,-9 58,-4 28,3 83,10 123,13 54,5 76,12 86,26 9,12 21,84 32,190 9,94 23,194 30,221 20,71 22,214 4,226 -17,10 -55,10 -89,-1 z m 0,-117 c 0,-72 -50,-456 -61,-470 -13,-14 -67,-17 -87,-5 -10,7 -7,55 13,238 14,126 28,235 30,242 6,16 42,31 78,31 25,1 27,-2 27,-36 z"
       id="path18" />
    <path
       d="m 1388,854 c -4,-3 -35,-6 -71,-7 -73,-2 -107,-23 -107,-64 0,-13 -7,-37 -15,-52 -9,-19 -12,-38 -6,-57 4,-17 -2,-120 -15,-249 -15,-158 -19,-224 -11,-233 8,-10 25,-12 56,-8 25,3 77,9 114,12 55,5 71,11 82,28 8,12 22,100 33,211 11,105 25,201 30,215 14,38 13,193 -1,202 -14,9 -81,11 -89,2 z m 2,-108 c -1,-44 -48,-457 -53,-462 -10,-10 -84,-16 -90,-8 -8,14 42,466 54,480 11,13 55,22 77,16 6,-2 12,-14 12,-26 z"
       id="path20" />
    <path
       d="m 905,822 c -92,-4 -90,-3 -91,-80 0,-37 -4,-77 -9,-88 -4,-10 -7,-45 -6,-78 4,-80 -17,-319 -34,-385 l -13,-53 32,7 c 17,4 43,7 57,7 l 26,-1 7,145 c 10,212 17,232 63,181 47,-50 55,-83 51,-201 l -3,-111 h 53 52 v 75 c 0,87 -21,180 -50,220 -25,35 -25,40 -1,40 10,0 24,6 30,14 16,20 42,288 28,304 -10,12 -32,13 -192,4 z m 93,-84 c 7,-9 7,-44 -1,-110 -9,-88 -12,-96 -28,-88 -10,6 -30,10 -46,10 h -29 l 8,78 c 3,42 7,85 7,94 1,15 11,19 67,27 6,0 16,-5 22,-11 z"
       id="path22" />
    <path
       d="m 545,792 c -65,-6 -74,-11 -84,-50 -6,-20 -11,-53 -11,-73 0,-20 -7,-42 -15,-49 -11,-9 -12,-17 -5,-30 21,-39 -2,-326 -33,-432 l -14,-45 59,1 c 55,1 59,2 53,23 -5,21 22,293 30,301 8,8 64,-10 76,-24 15,-18 6,-163 -14,-240 l -13,-51 56,1 56,1 v 80 c -1,81 31,519 39,543 3,7 0,22 -5,33 -9,16 -20,19 -78,17 -37,-2 -80,-4 -97,-6 z m 84,-169 c -1,-49 -4,-100 -8,-115 l -6,-26 -43,25 -43,26 7,71 c 9,93 16,106 59,106 h 35 z"
       id="path24" />
  </g>
</svg>
