<?xml version="1.0" encoding="UTF-8" standalone="no"?>
<svg
   version="1.0"
   width="226.08809pt"
   height="225pt"
   viewBox="0 0 226.08809 225"
   preserveAspectRatio="xMidYMid meet"
   id="svg30"
   sodipodi:docname="pukkelpop.svg"
   inkscape:version="1.1.2 (b8e25be833, 2022-02-05)"
   xmlns:inkscape="http://www.inkscape.org/namespaces/inkscape"
   xmlns:sodipodi="http://sodipodi.sourceforge.net/DTD/sodipodi-0.dtd"
   xmlns="http://www.w3.org/2000/svg"
   xmlns:svg="http://www.w3.org/2000/svg">
  <defs
     id="defs34" />
  <sodipodi:namedview
     id="namedview32"
     pagecolor="#ffffff"
     bordercolor="#666666"
     borderopacity="1.0"
     inkscape:pageshadow="2"
     inkscape:pageopacity="0.0"
     inkscape:pagecheckerboard="0"
     inkscape:document-units="pt"
     showgrid="false"
     fit-margin-top="0"
     fit-margin-left="0"
     fit-margin-right="0"
     fit-margin-bottom="0"
     inkscape:zoom="1.880904"
     inkscape:cx="218.51195"
     inkscape:cy="140.62387"
     inkscape:window-width="1920"
     inkscape:window-height="991"
     inkscape:window-x="-9"
     inkscape:window-y="-9"
     inkscape:window-maximized="1"
     inkscape:current-layer="g28" />
  <g
     transform="matrix(0.1,0,0,-0.1,0,225.2906)"
     fill="#000000"
     stroke="none"
     id="g28">
    <rect
       style="fill:#88aa00;fill-opacity:1;stroke-width:5.58118"
       id="rect1117-5"
       width="2260.8809"
       height="1248.0701"
       x="0"
       y="-1250.9761"
       transform="scale(1,-1)" />
    <rect
       style="fill:#ccff00;stroke-width:5.00064"
       id="rect1117"
       width="2260.8809"
       height="1001.9299"
       x="0"
       y="-2252.906"
       transform="scale(1,-1)" />
    <path
       d="M 0,1380.906 C 0,510.90601 0,509.90601 20,527.90601 c 19,18 20,17 20,-2 0,-15 13,-23 70,-37 81,-21 83,-40 4,-34 -59,5 -61,-1 -8,-27 27,-13 38,-14 44,-5 5,8 18,2 44,-20 20,-18 36,-26 36,-19 0,8 7,6 20,-6 27,-24 37,-12 16,20 -22,33 -8,32 43,-6 24,-17 45,-28 48,-25 3,3 -6,21 -21,40 -42,56 -31,89 22,62 16,-8 34,-22 41,-30 8,-9 18,-16 24,-16 6,0 -3,15 -21,33 -18,18 -32,38 -32,44 0,6 -16,23 -36,38 -51,39 -32,45 21,7 52,-37 60,-38 69,-16 4,11 -1,22 -14,31 -17,12 -18,18 -9,29 6,8 18,14 25,14 10,0 14,13 14,43 -1,39 -2,40 -13,19 -10,-17 -15,-20 -25,-10 -15,15 -16,38 -1,38 13,0 39,25 39,38 0,6 -10,8 -22,4 l -22,-5 22,37 c 16,26 22,53 22,94 v 56 l -35,-34 c -19,-18 -37,-31 -40,-29 -2,3 13,23 35,44 l 40,39 v 162.99999 163 h 119 119 l 6,-72 c 3,-40 5,-99 4,-131 0,-32 2,-60.99999 6,-63.99999 12,-13 143,126.99999 156,166.99999 7,22 22,42 36,49 28,13 30,5 7,-23 -10,-12 5,0 32,26 43,41 57,48 100,52 28,2 55,4 62,5 18,2 3,40 -20,47 -15,5 -26,0 -38,-15 -9,-11 -21,-21 -25,-21 -4,0 0,8 8,18 8,9 19,24 23,32 7,13 6,13 -7,2 -13,-10 -17,-10 -22,3 -8,22 -39,18 -56,-7 -8,-13 -15,-25 -15,-28 0,-3 -6,-15 -13,-28 -7,-12 -10,-26 -8,-31 6,-9 -23,-25 -31,-17 -3,2 3,19 12,38 l 17,33 -42,-40 c -23,-22 -48,-53 -56,-68 -8,-15 -19,-25 -24,-22 -5,3 -11,1 -15,-5 -3,-5 -10,-10 -14,-10 -4,0 -7,189 -7,421 l 1,420 280,-3 280,-3 63,-34 c 34,-19 62,-39 62,-45 1,-19 40,35 40,56 0,14 5,18 19,13 14,-4 28,5 55,38 20,24 36,49 36,55 0,5 21,32 47,59 l 47,48 13,-100 c 6,-55 20,-124 29,-153 9,-30 14,-66 10,-83 -3,-16 -1,-29 4,-29 29,0 -9,-49 -57,-74 -29,-14 -33,-15 -33,-1 0,8 6,15 13,15 6,1 -1,8 -17,16 l -28,16 28,29 c 26,28 52,40 39,19 -3,-5 3,-10 14,-10 13,0 21,7 21,16 0,25 -70,11 -96,-19 -11,-14 -37,-30 -58,-37 l -36,-12 6,-51 c 8,-60 30,-87 74,-87 16,0 30,-4 30,-8 0,-4 -20,-27 -44,-51 -35,-35 -50,-43 -70,-39 -14,3 -26,1 -26,-4 0,-4 -17,-27 -39,-51 -21,-23 -36,-47 -34,-53 2,-7 -8,-14 -22,-18 -14,-4 -25,-12 -25,-20 0,-22 -25,-36 -64,-38 -32,-1 -35,-3 -30,-25 4,-14 2,-23 -5,-23 -6,0 -11,5 -11,10 0,19 -39,10 -45,-10 -3,-11 -11,-20 -16,-20 -6,0 -8,-4 -5,-8 8,-13 71,-6 69,7 -2,6 6,11 18,11 19,0 19,-3 -11,-37 -17,-21 -109,-115 -203,-208 C 982,953.90601 895,865.90601 882,851.90601 l -23,-26 201,-201 202,-202 H 1105 948 l -120,118 c -65,64 -122,118 -127,120 -4,1 -119,-108 -255,-243 -136,-136 -250,-244 -252,-242 -2,2 -9,42 -14,88 -15,121 -16,126 -47,133 -16,4 -37,9 -48,12 -14,4 -10,-4 15,-26 40,-35 30,-38 -42,-10 -28,11 -53,18 -55,16 -2,-2 8,-27 21,-57 28,-59 26,-72 -4,-44 -20,18 -20,18 -20,-43 0,-66 1,-68 31,-52 13,8 19,7 19,0 0,-6 6,-10 12,-9 34,4 58,-2 58,-16 0,-8 -7,-15 -15,-15 -9,0 -26,-9 -38,-20 -12,-12 -32,-23 -44,-26 -20,-5 -23,-13.000004 -23,-55.000004 V 2.9060059 h 1010 c 556,0 1010,3 1010,8.0000001 0,4 -18,18 -40,32 -22,14 -39,29 -37,35 3,6 44,9 110,6 58,-2 110,0 116,4 14,8 -13,61.000004 -38,75.000004 -11,5 -34,10 -51,10 -18,0 -29,4 -25,10 3,6 48,10 101,10 85,0 94,2 94,18 0,20 -54,42 -101,42 -22,0 -20,3 16,40 22,23 50,43 62,47 l 23,5 V 1283.906 c 0,830 -2,938 -15,933 -8,-4 -15,-1 -15,5 0,6 5,11 10,11 6,0 10,5 10,10 0,6 -21,10 -47,10 -34,0 -57,-7 -85,-26 -21,-15 -38,-31 -38,-35 0,-5 0,-12 0,-16 0,-5 3,-8 8,-9 12,-1 46,-17 59,-26 23,-18 -43,-69 -85,-65 -17,1 -19,4 -10,20 8,16 7,17 -11,8 -11,-6 -29,-11 -41,-11 -13,0 -24,-8 -27,-20 -3,-10 -16,-26 -29,-35 -13,-8 -24,-21 -24,-28 0,-13 -98,-107 -112,-107 -12,0 -9,23 6,45 14,20 16,26 16,46 0,5 16,17 35,25 34,14 51,29 18,17 -11,-4 -14,-3 -9,5 5,8 2,10 -8,6 -9,-3 -13,-11 -10,-16 4,-6 1,-8 -7,-6 -8,3 -13,11 -11,17 1,7 -2,10 -8,6 -8,-5 -8,-11 -1,-19 8,-9 7,-13 -2,-13 -26,0 -15,37 19,67 19,16 31,30 26,30 -6,0 -26,-18 -46,-40 -59,-65 -43,-16 22,68 18,23 31,42 28,42 -8,0 -49,-41 -74,-74 -12,-16 -22,-26 -22,-22 0,17 41,86 56,94 13,7 14,11 4,17 -9,5 -23,-3 -42,-24 -16,-18 -32,-30 -36,-26 -9,8 55,66 70,63 7,-1 29,8 48,20 31,19 32,22 12,22 -25,0 -97,-33 -125,-58 -9,-8 -17,-10 -17,-4 0,5 14,22 31,36 l 31,26 H 901 0 Z m 1995,692 c -3,-5 -11,-10 -16,-10 -6,0 -7,5 -4,10 3,6 11,10 16,10 6,0 7,-4 4,-10 z m 21,-33 c 4,-4 13,-2 21,5 7,6 16,8 20,5 3,-4 -15,-28 -40,-54 -45,-45 -47,-46 -73,-33 -14,8 -21,16 -15,18 6,2 11,10 11,18 0,9 -5,12 -12,9 -7,-4 -1,4 13,18 25,22 60,29 75,14 z m -292,-338 c -42,-43 -60,-37 -24,8 21,27 50,45 59,37 3,-3 -13,-22 -35,-45 z m -124,-465 c 131,-39 221,-160 222,-297.99999 1,-103 -23,-149 -148,-277 l -113,-115 -3,-157 -3,-157 -293,293 c -161,160 -293,296 -293,301 -2,10 309,323.99999 362,366.99999 39,31 120,57 180,58 19,1 59,-6 89,-15 z M 355,812.90601 c -3,-5 -12,-10 -18,-10 -7,0 -6,4 3,10 19,12 23,12 15,0 z m -15,-65 c 0,-8 -4,-15 -10,-15 -5,0 -10,7 -10,15 0,8 5,15 10,15 6,0 10,-7 10,-15 z m 55,-135 c 3,-5 -1,-10 -9,-10 -9,0 -16,5 -16,10 0,6 4,10 9,10 6,0 13,-4 16,-10 z"
       id="path2" />
    <path
       d="m 1378,923 -99,-97 53,-53 c 29,-29 58,-53 64,-53 6,0 52,42 102,94 74,75 92,99 92,122 -1,33 -15,56 -47,72 -44,24 -64,14 -165,-85 z"
       id="path4" />
    <path
       d="m 1933,2238 c 15,-5 27,-13 27,-17 0,-9 51,-34 57,-27 7,6 -81,56 -98,55 -8,0 -2,-5 14,-11 z"
       id="path6" />
    <path
       d="m 1885,2200 c -3,-6 1,-7 9,-4 18,7 21,14 7,14 -6,0 -13,-4 -16,-10 z"
       id="path8" />
    <path
       d="m 2015,2160 c -16,-7 -17,-9 -3,-9 9,-1 20,4 23,9 7,11 7,11 -20,0 z"
       id="path10" />
    <path
       d="m 2065,2144 c -17,-13 -18,-16 -5,-24 21,-13 47,-12 56,1 5,8 -1,10 -20,7 -21,-4 -24,-3 -15,9 17,20 7,24 -16,7 z"
       id="path12" />
    <path
       d="m 1849,2073 c -13,-16 -12,-17 4,-4 9,7 17,15 17,17 0,8 -8,3 -21,-13 z"
       id="path14" />
    <path
       d="m 1918,2063 c 7,-3 16,-2 19,1 4,3 -2,6 -13,5 -11,0 -14,-3 -6,-6 z"
       id="path16" />
    <path
       d="m 1002,1761 c -9,-5 -14,-34 -15,-82 l -2,-74 63,-3 c 53,-3 73,2 129,28 36,17 63,33 60,36 -3,3 -33,-9 -68,-27 -68,-34 -67,-19 3,31 21,15 34,31 30,35 -4,5 -2,6 3,2 6,-3 26,1 44,9 34,14 35,15 13,30 -24,17 -237,30 -260,15 z m 253,-31 c -3,-5 -11,-10 -16,-10 -6,0 -7,5 -4,10 3,6 11,10 16,10 6,0 7,-4 4,-10 z"
       id="path18" />
    <path
       d="m 1274,1696 c -13,-14 -23,-86 -13,-86 15,0 39,45 39,72 0,30 -8,35 -26,14 z"
       id="path20" />
    <path
       d="m 1350,1385 c -11,-13 -10,-14 4,-9 9,3 16,10 16,15 0,13 -6,11 -20,-6 z"
       id="path22" />
    <path
       d="m 1173,1350 c -2,-28 14,-34 42,-16 34,23 31,36 -8,36 -25,0 -33,-4 -34,-20 z"
       id="path24" />
    <path
       d="m 2202,156 c 1,-10 8,-17 13,-17 15,1 12,24 -3,29 -9,3 -13,-2 -10,-12 z"
       id="path26" />
  </g>
</svg>
