<?xml version="1.0" encoding="UTF-8" standalone="no"?>
<!-- Created with Inkscape (http://www.inkscape.org/) -->

<svg
   width="110.06667mm"
   height="74.083344mm"
   viewBox="0 0 110.06667 74.083344"
   version="1.1"
   id="svg269"
   inkscape:version="1.1.2 (b8e25be833, 2022-02-05)"
   sodipodi:docname="AVA.svg"
   xmlns:inkscape="http://www.inkscape.org/namespaces/inkscape"
   xmlns:sodipodi="http://sodipodi.sourceforge.net/DTD/sodipodi-0.dtd"
   xmlns="http://www.w3.org/2000/svg"
   xmlns:svg="http://www.w3.org/2000/svg">
  <sodipodi:namedview
     id="namedview271"
     pagecolor="#ffffff"
     bordercolor="#666666"
     borderopacity="1.0"
     inkscape:pageshadow="2"
     inkscape:pageopacity="0.0"
     inkscape:pagecheckerboard="0"
     inkscape:document-units="mm"
     showgrid="false"
     fit-margin-top="0"
     fit-margin-left="0"
     fit-margin-right="0"
     fit-margin-bottom="0"
     inkscape:zoom="1.9445436"
     inkscape:cx="210.84639"
     inkscape:cy="94.880877"
     inkscape:window-width="1920"
     inkscape:window-height="991"
     inkscape:window-x="-9"
     inkscape:window-y="-9"
     inkscape:window-maximized="1"
     inkscape:current-layer="layer1" />
  <defs
     id="defs266" />
  <g
     inkscape:label="Capa 1"
     inkscape:groupmode="layer"
     id="layer1"
     transform="translate(-106.1718,-106.76414)">
    <g
       id="g1029">
      <rect
         style="fill:#ffffff;fill-rule:evenodd;stroke-width:0.264583;fill-opacity:1"
         id="rect591"
         width="67.444702"
         height="40.216667"
         x="127.81953"
         y="126.77626" />
    </g>
    <path
       style="fill:#000000;stroke-width:0.352778"
       d="M 106.1718,144.28687 V 107.2452 h 55.03333 55.03334 v 37.04167 37.04167 H 161.20513 106.1718 Z m 39.59611,11.91756 0.67181,-2.01716 3.83236,-0.0995 3.83235,-0.0995 -1.16378,-2.64584 -1.16379,-2.64583 -1.63586,-0.10752 c -0.89973,-0.0591 -1.63587,-0.27283 -1.63587,-0.47487 0,-0.20205 0.24774,-1.21954 0.55053,-2.2611 l 0.55053,-1.89374 -2.19642,-4.96369 c -1.20803,-2.73003 -2.32075,-4.83915 -2.47272,-4.68694 -0.24036,0.24074 -8.42636,23.50162 -8.42636,23.94385 0,0.0919 1.93172,0.12254 4.29271,0.0681 l 4.2927,-0.0991 z m 24.33687,-11.21165 c 2.86631,-7.27585 5.21147,-13.35278 5.21147,-13.5043 0,-0.15151 -2.02407,-0.23104 -4.49792,-0.17674 l -4.49792,0.0987 -2.46809,7.32014 c -1.35745,4.02607 -2.54868,7.32014 -2.64719,7.32014 -0.0985,0 -1.28973,-3.29407 -2.64718,-7.32014 l -2.46809,-7.32014 -4.67431,-0.0984 c -2.57087,-0.0541 -4.6743,-0.0107 -4.6743,0.0966 0,0.46144 9.64856,25.47835 10.10771,26.20742 0.48385,0.76826 0.68163,0.80089 4.27584,0.70555 l 3.76852,-0.1 z m 16.14758,13.05293 c 0,-0.77464 -8.58554,-25.0159 -8.81063,-24.87679 -0.13295,0.0822 -1.32829,2.54689 -2.65631,5.47717 l -2.41459,5.32777 0.46463,1.8322 c 0.25554,1.00771 0.53837,2.03063 0.6285,2.27317 0.11616,0.31257 -0.30806,0.44097 -1.45692,0.44097 h -1.62081 l -1.23916,2.46064 c -0.68154,1.35335 -1.23916,2.6178 -1.23916,2.80988 0,0.2011 1.52758,0.39189 3.60119,0.44978 l 3.60118,0.10054 0.45548,1.5875 c 0.25052,0.87312 0.53,1.78593 0.62108,2.02847 0.20849,0.5552 10.06552,0.64207 10.06552,0.0887 z"
       id="path469" />
  </g>
</svg>
