<?xml version="1.0" encoding="UTF-8" standalone="no"?>
<!-- Created with Inkscape (http://www.inkscape.org/) -->

<svg
   width="37.329208mm"
   height="49.477051mm"
   viewBox="0 0 37.329208 49.477051"
   version="1.1"
   id="svg197"
   inkscape:version="1.1.2 (b8e25be833, 2022-02-05)"
   sodipodi:docname="DEFQ.svg"
   xmlns:inkscape="http://www.inkscape.org/namespaces/inkscape"
   xmlns:sodipodi="http://sodipodi.sourceforge.net/DTD/sodipodi-0.dtd"
   xmlns="http://www.w3.org/2000/svg"
   xmlns:svg="http://www.w3.org/2000/svg">
  <sodipodi:namedview
     id="namedview199"
     pagecolor="#ffffff"
     bordercolor="#666666"
     borderopacity="1.0"
     inkscape:pageshadow="2"
     inkscape:pageopacity="0.0"
     inkscape:pagecheckerboard="0"
     inkscape:document-units="mm"
     showgrid="false"
     fit-margin-top="0"
     fit-margin-left="0"
     fit-margin-right="0"
     fit-margin-bottom="0"
     inkscape:zoom="2.8436027"
     inkscape:cx="96.88414"
     inkscape:cy="106.02747"
     inkscape:window-width="1920"
     inkscape:window-height="991"
     inkscape:window-x="-9"
     inkscape:window-y="-9"
     inkscape:window-maximized="1"
     inkscape:current-layer="layer1" />
  <defs
     id="defs194" />
  <g
     inkscape:label="Capa 1"
     inkscape:groupmode="layer"
     id="layer1"
     transform="translate(-212.08717,-179.21643)">
    <rect
       style="fill:#dc2323;stroke-width:0.265;fill-opacity:1;stroke:none;stroke-miterlimit:4;stroke-dasharray:none"
       id="rect944"
       width="37.497181"
       height="49.313911"
       x="212.27325"
       y="179.40253" />
    <path
       style="fill:#000000;stroke-width:0.264583"
       d="m 223.21126,226.86972 v -1.86252 l 5.55067,0.005 c 4.94054,0.004 5.57948,0.054 5.81279,0.45406 0.24455,0.41937 0.26265,0.41846 0.27016,-0.0135 0.005,-0.28395 0.2127,-0.46302 0.53721,-0.46302 0.6239,0 0.65529,0.3983 0.17723,2.24896 -0.26069,1.00923 -0.47462,1.34238 -0.90221,1.40501 -0.46668,0.0684 -0.60316,-0.10877 -0.81546,-1.05834 l -0.25497,-1.14042 -0.0283,1.14387 c -0.0232,0.93849 -0.11147,1.1281 -0.49135,1.05596 -0.34931,-0.0663 -0.48289,-0.39757 -0.54393,-1.34881 -0.10144,-1.58085 -0.58055,-1.38087 -0.58055,0.24232 0,0.99464 -0.0774,1.17971 -0.46302,1.10649 -0.35,-0.0665 -0.48288,-0.39826 -0.54436,-1.3593 -0.10312,-1.61194 -0.66342,-1.53038 -0.69189,0.10072 l -0.0205,1.17541 -2.31511,0.0643 -2.3151,0.0643 v -1.32107 c 0,-1.27223 -0.0269,-1.31994 -0.7276,-1.29039 -0.44765,0.0189 -0.54945,0.0773 -0.26459,0.1517 0.55321,0.14457 0.62704,1.14053 0.0845,1.14053 -0.20816,0 -0.41652,0.26667 -0.46302,0.59261 -0.0465,0.32594 -0.29291,0.63232 -0.54757,0.68086 -0.40548,0.0773 -0.46302,-0.14321 -0.46302,-1.77427 z m 9.97944,-0.75233 c -0.0608,-0.40219 -0.1122,-0.13593 -0.11418,0.59167 -0.002,0.72761 0.0478,1.05667 0.11057,0.73124 0.0628,-0.32542 0.0644,-0.92073 0.004,-1.32291 z m 1.43048,1.18257 c -0.26131,-0.25936 -0.2917,-0.22897 -0.14812,0.14812 0.0994,0.26093 0.24731,0.40778 0.32877,0.32632 0.0815,-0.0815 1.7e-4,-0.29496 -0.18065,-0.47444 z m -6.38284,0.0706 c 0.26459,-0.17099 0.28663,-0.25783 0.0661,-0.26053 -0.1819,-0.002 -0.33073,-0.24218 -0.33073,-0.53322 0,-0.40832 -0.16616,-0.52216 -0.7276,-0.49848 -0.44765,0.0189 -0.54945,0.0773 -0.26459,0.1517 0.25466,0.0666 0.46302,0.34166 0.46302,0.61136 0,0.2697 -0.20836,0.54482 -0.46302,0.61137 -0.31137,0.0814 -0.24638,0.12973 0.19844,0.14764 0.3638,0.0147 0.84005,-0.0888 1.05833,-0.22984 z m 7.57271,1.11024 c -0.0723,-0.11697 0.0559,-0.95656 0.28498,-1.86576 0.35687,-1.41671 0.49484,-1.64168 0.96487,-1.57327 0.32729,0.0476 0.61656,0.34656 0.71735,0.74129 l 0.16889,0.66146 0.10654,-0.65876 c 0.0586,-0.36231 0.30807,-0.69715 0.55439,-0.74408 0.36212,-0.069 0.46342,0.15841 0.52917,1.18792 0.0746,1.16872 0.14105,1.28013 0.80892,1.35697 0.51402,0.0592 0.7276,0.2339 0.7276,0.59531 0,0.45327 -0.19608,0.5116 -1.71979,0.5116 -1.16123,0 -1.71979,-0.10312 -1.71979,-0.3175 0,-0.24695 -0.0706,-0.24695 -0.3175,0 -0.36431,0.3643 -0.9131,0.41633 -1.10563,0.10482 z m 1.51939,-2.03476 c -0.0834,-0.21745 -0.27101,-0.32163 -0.41682,-0.23151 -0.16301,0.10074 -0.12686,0.25144 0.0939,0.3913 0.48176,0.30526 0.49827,0.29709 0.32295,-0.15979 z m -8.20551,-4.83728 c -1.05498,-0.91226 -1.41575,-1.63081 -1.41575,-2.81976 v -0.94344 h -1.44408 -1.44408 l -0.0773,2.05052 -0.0773,2.05052 h -3.43959 -3.43958 l -0.0849,-1.03837 c -0.0819,-1.00238 -0.0958,-1.01613 -0.40055,-0.39687 -0.47174,0.95859 -1.79248,1.50478 -3.54866,1.46753 l -1.52217,-0.0323 -0.0719,-5.09323 -0.0719,-5.09323 h 1.93122 c 2.07,0 2.95157,0.37033 3.3741,1.41738 0.19064,0.47238 0.23162,0.40143 0.24559,-0.42519 l 0.0168,-0.99219 2.11667,-0.0153 c 1.16416,-0.008 3.39659,-0.0228 4.96093,-0.032 l 2.84427,-0.0168 0.0813,0.94371 0.0813,0.9437 -1.40418,0.0805 -1.40418,0.0805 -0.0806,0.96686 -0.0806,0.96686 1.44284,0.0915 1.44285,0.0915 0.11616,-1.40624 c 0.16377,-1.98258 1.02533,-2.82709 2.88418,-2.82709 1.23804,0 1.41971,0.0839 2.24294,1.03627 0.50764,0.58726 0.89578,0.86519 0.89578,0.64143 0,-0.21716 0.30091,-0.67752 0.6687,-1.02304 0.52335,-0.49166 0.96193,-0.6282 2.0179,-0.6282 1.18524,0 1.44159,0.1034 2.10943,0.85084 l 0.76022,0.85084 v -0.81314 c 0,-0.79014 0.031,-0.81083 1.09709,-0.73177 l 1.09709,0.0813 0.87708,2.24896 0.87708,2.24896 0.0102,-2.29949 c 0.006,-1.26472 0.0995,-2.35187 0.20865,-2.41589 0.42133,-0.24715 1.91823,0.15775 1.91823,0.51887 0,0.31501 0.12248,0.3103 0.78061,-0.03 0.42933,-0.22201 1.32487,-0.40367 1.99008,-0.40367 h 1.20948 l -0.0719,5.09323 -0.0719,5.09323 -2.82405,0.0515 c -1.9291,0.0352 -2.90292,-0.0487 -3.07292,-0.26458 -0.13687,-0.17383 -0.61499,-1.26856 -1.06247,-2.43272 l -0.81362,-2.11667 -0.0822,2.38125 -0.0822,2.38125 h -0.92604 c -0.84186,0 -0.93331,-0.0745 -1.00595,-0.81967 l -0.0799,-0.81968 -0.86982,0.86983 c -0.72787,0.72786 -1.06027,0.86749 -2.03676,0.85553 -1.00416,-0.0123 -1.30533,-0.15925 -2.15912,-1.05348 -0.57052,-0.59754 -0.99219,-0.87523 -0.99219,-0.6534 0,0.55786 -1.95042,2.019 -2.6839,2.01063 -0.34287,-0.004 -0.99833,-0.33134 -1.4566,-0.7276 z m 2.68529,-0.69716 1.05833,-0.89484 0.0914,-2.68688 c 0.10364,-3.04758 -0.0191,-3.77768 -0.75956,-4.51813 -0.71154,-0.71155 -2.45369,-0.70785 -3.16827,0.007 -0.47448,0.47448 -0.52916,0.88194 -0.52916,3.94308 v 3.41392 l 0.99218,0.81054 c 0.54571,0.4458 1.05172,0.81277 1.12448,0.81548 0.0728,0.003 0.60854,-0.39774 1.19063,-0.8899 z m -2.33715,-0.86118 c -0.097,-0.097 -0.17639,-1.51726 -0.17639,-3.1561 0,-3.212 0.22346,-3.81126 1.42119,-3.81126 1.07503,0 1.22464,0.45708 1.22464,3.74147 0,3.21639 -0.24867,3.97135 -0.98146,2.97968 -0.35053,-0.47436 -0.38718,-0.47669 -0.63447,-0.0404 -0.27576,0.48651 -0.55864,0.58151 -0.85351,0.28663 z m 1.94027,-3.49538 c 0,-1.76509 -0.0986,-2.43071 -0.39687,-2.67823 -0.31663,-0.26278 -0.47712,-0.26278 -0.79375,0 -0.29824,0.24752 -0.39688,0.91314 -0.39688,2.67823 v 2.34885 h 0.79375 0.79375 z m 13.93356,4.13479 c -0.0734,-0.1819 -0.13345,-0.0331 -0.13345,0.33073 0,0.3638 0.0601,0.51263 0.13345,0.33073 0.0734,-0.1819 0.0734,-0.47956 0,-0.66146 z m -31.66064,-3.9026 c 0,-4.32153 -0.0207,-4.49792 -0.52917,-4.49792 -0.50841,0 -0.52916,0.17639 -0.52916,4.49792 0,4.32152 0.0208,4.49791 0.52916,4.49791 0.50842,0 0.52917,-0.17639 0.52917,-4.49791 z m 2.43699,4.13721 c 0.74,-0.56222 1.00259,-1.65254 1.00259,-4.16294 0,-2.32434 -0.45796,-4.20761 -1.02319,-4.20761 -0.14104,0 -0.44478,-0.0723 -0.67496,-0.1606 -0.62583,-0.24015 -0.52689,0.61315 0.11065,0.95435 0.48387,0.25896 0.52917,0.55399 0.52917,3.44665 0,2.87691 -0.0479,3.19339 -0.52917,3.49392 -0.58691,0.36653 -0.7144,1.00165 -0.19843,0.98852 0.1819,-0.005 0.5344,-0.16316 0.78334,-0.35229 z m 6.02968,-0.0223 c 0,-0.27555 -0.38984,-0.4055 -1.38907,-0.46303 l -1.38906,-0.08 v -3.57187 -3.57188 l 1.38906,-0.08 c 0.99923,-0.0575 1.38907,-0.18748 1.38907,-0.46302 0,-0.29786 -0.41189,-0.38305 -1.85209,-0.38305 h -1.85208 v 4.49792 4.49791 h 1.85208 c 1.4402,0 1.85209,-0.0852 1.85209,-0.38304 z m 2.11666,-1.60133 v -1.98438 h 1.45521 c 1.09378,0 1.45521,-0.0951 1.45521,-0.38304 0,-0.27555 -0.38984,-0.4055 -1.38906,-0.46303 l -1.38907,-0.08 -0.0788,-1.65364 -0.0788,-1.65365 h 1.46784 c 1.12835,0 1.46783,-0.0918 1.46783,-0.39688 0,-0.31498 -0.38218,-0.39687 -1.85208,-0.39687 h -1.85209 v 4.49792 c 0,3.82175 0.0597,4.49791 0.39688,4.49791 0.3175,0 0.39687,-0.39687 0.39687,-1.98437 z m 11.25917,1.04314 c -0.61423,-0.93744 -0.58939,-6.36089 0.0323,-7.04783 0.68521,-0.75715 0.0449,-1.23063 -0.68167,-0.50406 -0.50745,0.50746 -0.55562,0.8538 -0.55562,3.99521 0,3.10734 0.0521,3.49163 0.53882,3.9784 0.71762,0.71762 1.20892,0.40661 0.66618,-0.42172 z m 2.22415,0.68224 c 0.73868,-0.39533 1.06877,-1.70452 1.06877,-4.23892 0,-1.26626 -0.13159,-2.67976 -0.29242,-3.14111 -0.25201,-0.72291 -0.91075,-1.35681 -1.40998,-1.35681 -0.30805,0 -0.13493,0.7412 0.24719,1.05833 0.31159,0.2586 0.39687,0.99774 0.39687,3.43959 0,2.44185 -0.0853,3.18098 -0.39687,3.43958 -0.38212,0.31713 -0.55524,1.05833 -0.24719,1.05833 0.0823,0 0.36746,-0.11655 0.63363,-0.25899 z m 3.18543,-2.51913 c 0,-3.63545 0.36318,-3.64898 1.77579,-0.0662 0.67084,1.70145 1.22932,2.74386 1.49882,2.79753 0.38292,0.0763 0.42956,-0.40488 0.42956,-4.43177 0,-3.83901 -0.0596,-4.51732 -0.39688,-4.51732 -0.32758,0 -0.39687,0.48507 -0.39687,2.77813 0,3.67942 -0.38598,3.69369 -1.78866,0.0661 -0.66911,-1.73044 -1.20552,-2.74294 -1.48208,-2.79752 -0.38793,-0.0766 -0.43343,0.38862 -0.43343,4.43177 0,3.839 0.0596,4.51731 0.39688,4.51731 0.32758,0 0.39687,-0.48507 0.39687,-2.77812 z m 5.82084,2.51354 c 0,-0.14552 -0.1786,-0.26458 -0.39688,-0.26458 -0.21828,0 -0.39687,0.11906 -0.39687,0.26458 0,0.14552 0.17859,0.26458 0.39687,0.26458 0.21828,0 0.39688,-0.11906 0.39688,-0.26458 z m 2.11666,-4.23333 v -4.49792 h -0.64901 c -0.95566,0 -1.99682,0.55008 -1.99682,1.05498 0,0.33936 0.18277,0.41405 0.79375,0.32437 l 0.79375,-0.11649 v 3.86648 c 0,3.6901 0.0241,3.86649 0.52917,3.86649 0.50841,0 0.52916,-0.17639 0.52916,-4.49791 z m -1.5875,0.38756 c 0,-3.00828 -0.008,-3.0478 -0.54984,-2.75775 -0.30241,0.16185 -0.71913,0.22931 -0.92604,0.14991 -0.31112,-0.11939 -0.3762,0.35768 -0.3762,2.75775 v 2.90211 h 0.92604 0.92604 z m -32.0675,2.46994 c 0.43246,-0.43246 0.43246,-5.28255 0,-5.715 -0.84064,-0.84065 -1.00541,-0.37234 -1.00541,2.8575 0,3.22983 0.16477,3.69814 1.00541,2.8575 z m 7.46142,-0.80698 1.6e-4,-1.12448 -1.32308,0.0917 -1.32308,0.0917 v -1.08387 -1.08387 h 1.32292 1.32291 v -1.05833 -1.05833 h -1.45521 -1.4552 v 3.02888 3.02888 l 1.38906,0.0972 c 0.76398,0.0534 1.41883,0.1192 1.45521,0.14611 0.0364,0.0269 0.0662,-0.45707 0.0663,-1.07553 z m 14.23442,0.80698 c 0.49526,-0.49527 0.4285,-5.34642 -0.0794,-5.76792 -0.31663,-0.26278 -0.47712,-0.26278 -0.79375,0 -0.30275,0.25126 -0.39687,0.93666 -0.39687,2.8899 0,2.34362 0.2116,3.19552 0.79375,3.19552 0.0873,0 0.30162,-0.14288 0.47625,-0.3175 z m -14.76375,-2.9898 c 0,-0.26458 -0.26459,-0.39687 -0.79375,-0.39687 -0.52917,0 -0.79375,0.13229 -0.79375,0.39687 0,0.26459 0.26458,0.39688 0.79375,0.39688 0.52916,0 0.79375,-0.13229 0.79375,-0.39688 z m 1.12572,-8.1708 c -2.49296,-1.41854 -3.77156,-2.4098 -3.77156,-2.92398 0,-0.36055 11.15385,-11.52709 11.514,-11.52709 0.45174,0 11.24017,10.95923 11.24017,11.41813 0,0.64881 -1.49622,1.83878 -4.08918,3.25221 l -2.31726,1.26314 -1.42699,-1.40927 c -0.78484,-0.77509 -1.42699,-1.52471 -1.42699,-1.66583 0,-0.14111 0.26267,-0.53616 0.58371,-0.87789 l 0.5837,-0.62133 -1.58137,-1.58137 -1.58137,-1.58137 -1.56493,1.58143 c -1.48954,1.50525 -1.54345,1.60518 -1.119,2.07419 0.24526,0.27101 0.44593,0.66604 0.44593,0.87783 0,0.35014 -2.62725,3.16676 -2.91874,3.12912 -0.0682,-0.009 -1.22474,-0.64237 -2.57012,-1.40792 z m 3.85413,-0.51232 c 1.11728,-1.13843 1.11937,-1.14424 0.58426,-1.62851 -0.29537,-0.2673 -0.53703,-0.6791 -0.53703,-0.91511 0,-0.23601 0.83456,-1.25728 1.85457,-2.26948 l 1.85458,-1.84036 2.03667,2.03667 2.03667,2.03667 -0.58395,0.62159 c -0.32118,0.34188 -0.58396,0.73858 -0.58396,0.88157 0,0.14299 0.46447,0.71352 1.03215,1.26785 l 1.03215,1.00787 2.30287,-1.2553 c 1.26658,-0.69041 2.59193,-1.50674 2.94521,-1.81406 l 0.64235,-0.55878 -5.43254,-5.4215 -5.43254,-5.42151 -5.29694,5.28922 c -2.97981,2.97546 -5.26433,5.46282 -5.22241,5.68609 0.0608,0.32403 5.01289,3.41387 5.50326,3.43376 0.0788,0.003 0.64793,-0.50831 1.26463,-1.13668 z m -9.78788,-4.13267 c -0.48428,-0.57302 -1.41621,-2.05726 -2.07096,-3.29833 l -1.19044,-2.25649 1.44599,-1.46417 c 0.79529,-0.8053 1.56144,-1.46417 1.70255,-1.46417 0.14112,0 0.53564,0.26217 0.87672,0.58259 l 0.62014,0.5826 2.63806,-2.62815 2.63805,-2.62816 v -3.3784 -3.3784 h -1.05833 -1.05834 v -1.84189 -1.84188 l 1.12448,-0.29311 c 0.61847,-0.16121 1.9317,-0.52908 2.91831,-0.8175 1.07114,-0.31313 2.35027,-0.49228 3.175,-0.44469 l 1.38117,0.0797 0.0706,6.99319 0.0706,6.9932 -5.75123,5.77295 c -3.16317,3.17512 -5.95388,5.77295 -6.20157,5.77295 -0.2477,0 -0.84659,-0.46883 -1.33087,-1.04184 z m 12.48094,-17.28656 c 0,-5.92835 -0.0432,-6.57564 -0.44965,-6.73159 -0.45969,-0.1764 -4.54947,0.76004 -6.09878,1.39644 -0.79244,0.3255 -0.8599,0.44768 -0.8599,1.55734 v 1.20412 h 1.05833 1.05834 v 3.89809 3.89809 l -2.70726,2.71649 c -1.48898,1.49408 -2.88029,2.7165 -3.0918,2.7165 -0.2115,0 -0.63661,-0.23681 -0.9447,-0.52624 l -0.56015,-0.52623 -1.14224,1.16385 -1.14224,1.16386 1.1288,2.07436 c 0.62084,1.1409 1.42488,2.47418 1.78676,2.96285 l 0.65796,0.88849 5.65327,-5.64869 5.65326,-5.64868 z m 7.33994,12.5715 -5.75244,-5.75689 v -7.0754 -7.0754 h 1.38962 c 0.7643,0 2.63928,0.35719 4.16663,0.79375 1.52736,0.43657 2.80703,0.79375 2.84372,0.79375 0.0367,0 0.0667,0.83344 0.0667,1.85209 v 1.85208 h -0.92604 -0.92604 v 3.51095 3.51096 l 2.50589,2.49547 2.50589,2.49548 0.62002,-0.58247 c 0.341,-0.32036 0.73547,-0.58247 0.87658,-0.58247 0.37174,0 3.01662,2.73487 3.01662,3.11925 0,0.43542 -2.60071,5.06038 -3.26732,5.81043 -0.291,0.32743 -0.71771,0.59532 -0.94825,0.59532 -0.23053,0 -3.00775,-2.5906 -6.17158,-5.7569 z m 8.28326,2.00474 c 0.72058,-1.27824 1.31014,-2.42666 1.31014,-2.55203 0,-0.12537 -0.49907,-0.72207 -1.10903,-1.326 l -1.10903,-1.09805 -0.56167,0.52766 c -0.30892,0.29021 -0.67509,0.52766 -0.81371,0.52766 -0.13863,0 -1.53346,-1.2854 -3.09962,-2.85643 l -2.84758,-2.85644 0.074,-3.692 0.074,-3.69201 0.99219,-0.0821 0.99218,-0.0821 v -1.2684 -1.2684 l -1.91823,-0.56318 c -2.93854,-0.86274 -4.59806,-1.19574 -5.06535,-1.01643 -0.37413,0.14357 -0.42475,0.94414 -0.42475,6.71748 v 6.55449 l 5.61129,5.61584 c 6.47967,6.48493 5.72779,6.25538 7.89524,2.41047 z"
       id="path822" />
  </g>
</svg>
