<?xml version="1.0" encoding="UTF-8" standalone="no"?>
<!-- Created with Inkscape (http://www.inkscape.org/) -->

<svg
   width="110.06667mm"
   height="74.083336mm"
   viewBox="0 0 110.06667 74.083336"
   version="1.1"
   id="svg5"
   inkscape:version="1.1.2 (b8e25be833, 2022-02-05)"
   sodipodi:docname="dibujo.svg"
   xmlns:inkscape="http://www.inkscape.org/namespaces/inkscape"
   xmlns:sodipodi="http://sodipodi.sourceforge.net/DTD/sodipodi-0.dtd"
   xmlns="http://www.w3.org/2000/svg"
   xmlns:svg="http://www.w3.org/2000/svg">
  <sodipodi:namedview
     id="namedview7"
     pagecolor="#ffffff"
     bordercolor="#666666"
     borderopacity="1.0"
     inkscape:pageshadow="2"
     inkscape:pageopacity="0.0"
     inkscape:pagecheckerboard="0"
     inkscape:document-units="mm"
     showgrid="false"
     inkscape:snap-global="true"
     fit-margin-top="0"
     fit-margin-left="0"
     fit-margin-right="0"
     fit-margin-bottom="0"
     inkscape:zoom="0.71090067"
     inkscape:cx="578.84317"
     inkscape:cy="187.78995"
     inkscape:window-width="1920"
     inkscape:window-height="991"
     inkscape:window-x="-9"
     inkscape:window-y="-9"
     inkscape:window-maximized="1"
     inkscape:current-layer="layer1" />
  <defs
     id="defs2" />
  <g
     inkscape:label="Capa 1"
     inkscape:groupmode="layer"
     id="layer1"
     transform="translate(-62.575687,-69.401939)">
    <path
       style="fill:#000000;stroke-width:0.352778"
       d="m 66.632627,113.0267 c -2.73369,-1.00257 -4.36311,-3.97847 -3.8934,-7.11072 0.49626,-3.30929 3.43793,-5.6459 6.66148,-5.29128 2.22156,0.24439 3.76505,1.16594 4.63182,2.76546 0.78531,1.44917 0.69426,1.6624 -0.81111,1.89965 -0.83826,0.13211 -1.2945,-0.0594 -2.16209,-0.90748 -1.86043,-1.81862 -4.14546,-1.2374 -4.97115,1.26447 -1.21905,3.69375 2.71124,6.85136 4.77247,3.83422 0.74028,-1.0836 1.51567,-1.36205 2.91573,-1.04707 0.94349,0.21226 0.97934,0.54936 0.22703,2.13473 -1.10777,2.33445 -4.56451,3.48721 -7.37078,2.45802 z m 17.8275,0.0688 c -2.62864,-0.94505 -3.67592,-4.55455 -2.0301,-6.99679 1.0255,-1.52175 2.13385,-2.07406 4.17517,-2.08058 2.45362,-0.008 4.54549,2.01109 4.54549,4.387 0,0.89747 -0.007,0.89946 -3.175,0.89946 -2.82222,0 -3.175,0.0706 -3.175,0.635 0,0.34925 0.1905,0.8255 0.42333,1.05834 0.59135,0.59135 2.22521,0.5285 2.75167,-0.10584 0.25143,-0.30295 1.02069,-0.52916 1.79952,-0.52916 1.32097,0 1.34879,0.0254 0.96077,0.877 -0.83099,1.82381 -3.86722,2.72153 -6.27585,1.85557 z m 3.62074,-5.42479 c 0.31533,-0.31533 -0.33417,-1.41813 -0.9815,-1.66653 -0.80667,-0.30955 -2.29868,0.49555 -2.29868,1.24037 0,0.53022 0.27965,0.64893 1.5287,0.64893 0.84079,0 1.62896,-0.10025 1.75148,-0.22277 z m 4.95691,5.35599 c -1.41148,-0.61412 -1.88,-2.26003 -1.01787,-3.5758 0.66165,-1.00981 1.5084,-1.39461 3.83732,-1.74385 1.24805,-0.18716 1.64346,-0.39749 1.64346,-0.87421 0,-0.34527 -0.26049,-0.72772 -0.57886,-0.84989 -0.69589,-0.26704 -1.89058,0.0636 -1.89058,0.5232 0,0.18095 -0.71438,0.329 -1.5875,0.329 -1.80842,0 -1.93034,-0.26764 -0.74809,-1.64209 0.74017,-0.8605 1.13497,-0.99257 3.33939,-1.11714 2.39753,-0.13547 2.54385,-0.0974 3.57031,0.92907 1.050303,1.0503 1.070333,1.13686 1.070333,4.62525 v 3.55491 h -1.411113 c -0.77611,0 -1.41111,-0.15065 -1.41111,-0.33478 0,-0.18412 -0.55053,-0.10475 -1.22339,0.17639 -1.49507,0.62468 -2.15643,0.62467 -3.5923,-6e-5 z m 3.89658,-1.71103 c 0.38874,-0.28425 0.58186,-0.79656 0.5084,-1.34866 -0.1094,-0.82224 -0.20738,-0.867 -1.28158,-0.58558 -1.31763,0.34519 -1.76885,1.0936 -1.12621,1.86793 0.53577,0.64557 1.08117,0.66461 1.89939,0.0663 z m 32.038473,1.52026 c -3.18663,-1.44629 -3.40056,-6.25507 -0.36073,-8.1084 1.33948,-0.81666 3.90134,-0.93455 5.15776,-0.23734 1.17426,0.65161 2.17859,2.34041 2.18128,3.66788 l 0.002,1.14652 h -3.175 c -2.92087,0 -3.175,0.0555 -3.175,0.69315 0,1.26683 2.32283,1.92115 3.175,0.89435 0.46602,-0.56152 3.175,-0.75261 3.175,-0.22396 0,0.75254 -1.56007,2.1724 -2.75008,2.5029 -1.82087,0.50572 -2.49576,0.45226 -4.23056,-0.3351 z m 4.15841,-5.29523 c 0,-0.4156 -1.28828,-1.76388 -1.68539,-1.76388 -0.56265,0 -1.84238,1.11658 -1.84238,1.6075 0,0.37581 0.46197,0.50916 1.76389,0.50916 0.97013,0 1.76388,-0.15875 1.76388,-0.35278 z m 9.66193,5.65148 c -2.73927,-1.10679 -3.44464,-5.92581 -1.19645,-8.174 1.07583,-1.07583 2.92427,-1.3537 4.25772,-0.64006 0.63643,0.3406 0.68236,0.23375 0.68236,-1.5875 v -1.95269 h 1.5875 1.5875 v 6.17361 6.17361 h -1.38171 c -0.75994,0 -1.43781,-0.16828 -1.50636,-0.37395 -0.0804,-0.24128 -0.49763,-0.17947 -1.17593,0.17421 -1.16819,0.60913 -1.75381,0.65155 -2.85463,0.20677 z m 3.65228,-3.2289 c 0.56423,-1.18295 0.20767,-3.04105 -0.67413,-3.51298 -2.03908,-1.09128 -3.56623,2.18475 -1.95557,4.19505 0.60227,0.7517 2.1355,0.35402 2.6297,-0.68207 z m 5.49899,3.07946 c -1.22488,-0.5537 -2.0438,-1.74374 -1.74171,-2.53099 0.2686,-0.69995 2.33129,-0.66783 2.33129,0.0363 0,0.75831 1.63137,1.32173 2.49254,0.86085 1.27152,-0.6805 0.61752,-1.51249 -1.48661,-1.89119 -2.79137,-0.50239 -3.95358,-2.63651 -2.44821,-4.49556 0.58688,-0.72476 0.98003,-0.83283 3.02978,-0.83283 2.04976,0 2.4429,0.10807 3.02978,0.83283 0.37092,0.45806 0.67439,1.05337 0.67439,1.32291 0,0.67949 -2.02072,0.63643 -2.715,-0.0579 -0.66718,-0.66718 -2.0475,-0.53561 -2.0475,0.19516 0,0.33488 0.74848,0.76608 2.03863,1.17444 2.401,0.75997 3.26074,1.77042 2.90078,3.40929 -0.13102,0.59654 -0.59192,1.31638 -1.02423,1.59964 -1.18435,0.77601 -3.72959,0.96663 -5.03393,0.377 z m -76.668753,-4.44073 v -4.58314 l 1.14653,0.14961 c 0.63059,0.0823 1.26559,0.16032 1.41111,0.17342 0.14552,0.0131 0.26458,0.27345 0.26458,0.57858 0,0.45988 0.15899,0.42971 0.92952,-0.17639 0.51124,-0.40214 1.30499,-0.73116 1.76389,-0.73116 0.73325,0 0.83437,0.16508 0.83437,1.36219 0,1.25389 -0.0684,1.34911 -0.86088,1.19762 -0.60071,-0.11483 -1.13378,0.10834 -1.76389,0.73844 -0.79793,0.79793 -0.90301,1.19222 -0.90301,3.38849 v 2.48548 h -1.41111 -1.41111 z m 26.183213,0.0852 0.0987,-4.49791 1.16904,-0.0584 c 0.73884,-0.0369 1.24134,0.13002 1.36552,0.45363 0.17012,0.44333 0.30741,0.43934 1.02341,-0.0298 1.03348,-0.67716 2.96985,-0.70013 3.86464,-0.0459 0.58275,0.42612 0.81338,0.42612 1.6374,0 1.46075,-0.75537 3.21722,-0.62737 4.08603,0.29778 0.64953,0.69164 0.75449,1.27025 0.8159,4.49791 l 0.0705,3.70417 -1.45996,0.10848 -1.45996,0.10848 v -2.81366 c 0,-3.37783 -0.17577,-3.92969 -1.25164,-3.92969 -1.14946,0 -1.31318,0.4214 -1.42603,3.6705 l -0.0992,2.85589 -1.42029,0.10782 -1.4203,0.10782 -0.10169,-3.28282 -0.10169,-3.28282 h -1.04243 c -1.26133,0 -1.51701,0.6758 -1.56824,4.14514 l -0.0352,2.38125 h -1.42166 -1.42164 z m 16.15012,0.97014 v -3.52778 h -0.90537 c -0.77957,0 -0.88987,-0.13481 -0.79375,-0.97014 0.0794,-0.6897 0.31112,-0.97013 0.80179,-0.97013 0.50342,0 0.75778,-0.32941 0.94009,-1.21749 0.33333,-1.62372 1.19088,-2.18805 3.13224,-2.06122 1.42221,0.0929 1.5875,0.19388 1.5875,0.96975 0,0.62601 -0.23718,0.92203 -0.85579,1.06806 -1.18133,0.27887 -1.29975,0.93399 -0.2179,1.20552 0.65958,0.16554 0.8973,0.45708 0.8973,1.10043 0,0.69839 -0.17819,0.87522 -0.88194,0.87522 h -0.88195 v 3.52778 3.52778 h -1.41111 -1.41111 z m 5.29167,-1.00406 v -4.53184 h 1.41111 1.41111 v 4.53184 4.53184 h -1.41111 -1.41111 z m 13.75833,-1.64177 v -6.17361 h 1.41111 1.41111 v 6.17361 6.17361 h -1.41111 -1.41111 z m 22.38027,5.30894 c -1.70246,-2.59829 2.92127,-4.53835 6.5442,-2.74587 l 1.48235,0.73341 -0.20554,-0.7663 c -0.11304,-0.42146 -0.2077,-1.28323 -0.21035,-1.91503 l -0.005,-1.14874 -1.46404,1.06054 c -1.73196,1.25463 -2.49793,1.39181 -1.4312,0.25633 0.87364,-0.92995 1.09144,-2.56042 0.4903,-3.67051 -0.56677,-1.04661 -0.52537,-2.40473 0.0888,-2.91448 0.27836,-0.23102 1.02956,-0.36952 1.66932,-0.30778 1.61051,0.15544 2.04294,1.41724 1.29125,3.76783 -0.58686,1.83517 -0.46785,2.35679 0.87631,3.84096 0.47088,0.51993 1.1236,0.79375 1.8921,0.79375 2.06576,0 3.31281,2.04335 2.02997,3.32619 -0.94765,0.94766 -2.24914,0.66148 -3.89622,-0.85674 -1.20718,-1.11274 -1.80507,-1.41111 -2.82767,-1.41111 -1.06062,0 -1.53405,0.25699 -2.59952,1.41111 -1.55233,1.68148 -2.85626,1.87274 -3.72529,0.54644 z m -36.1386,-10.42422 c 0,-0.99954 0.0784,-1.05833 1.41111,-1.05833 1.33272,0 1.41111,0.0588 1.41111,1.05833 0,0.99954 -0.0784,1.05833 -1.41111,1.05833 -1.33272,0 -1.41111,-0.0588 -1.41111,-1.05833 z"
       id="path21" />
  </g>
</svg>
