<?xml version="1.0" encoding="UTF-8" standalone="no"?>
<!-- Created with Inkscape (http://www.inkscape.org/) -->

<svg
   width="183.11279mm"
   height="174.55263mm"
   viewBox="0 0 183.11279 174.55263"
   version="1.1"
   id="svg245"
   inkscape:version="1.1.2 (b8e25be833, 2022-02-05)"
   sodipodi:docname="QAPITAL.svg"
   xmlns:inkscape="http://www.inkscape.org/namespaces/inkscape"
   xmlns:sodipodi="http://sodipodi.sourceforge.net/DTD/sodipodi-0.dtd"
   xmlns="http://www.w3.org/2000/svg"
   xmlns:svg="http://www.w3.org/2000/svg">
  <sodipodi:namedview
     id="namedview247"
     pagecolor="#ffffff"
     bordercolor="#666666"
     borderopacity="1.0"
     inkscape:pageshadow="2"
     inkscape:pageopacity="0.0"
     inkscape:pagecheckerboard="0"
     inkscape:document-units="mm"
     showgrid="false"
     fit-margin-top="0"
     fit-margin-left="0"
     fit-margin-right="0"
     fit-margin-bottom="0"
     inkscape:zoom="1.0053654"
     inkscape:cx="239.71385"
     inkscape:cy="319.78424"
     inkscape:window-width="1920"
     inkscape:window-height="991"
     inkscape:window-x="-9"
     inkscape:window-y="-9"
     inkscape:window-maximized="1"
     inkscape:current-layer="layer1" />
  <defs
     id="defs242" />
  <g
     inkscape:label="Capa 1"
     inkscape:groupmode="layer"
     id="layer1"
     transform="translate(-76.940788,-96.294174)">
    <rect
       style="fill:#ff9955;fill-opacity:1;stroke-width:0.288144"
       id="rect1454"
       width="183.11279"
       height="174.55263"
       x="76.940788"
       y="96.294174" />
    <path
       style="fill:#000000;stroke:#000000;stroke-width:0.264583;stroke-opacity:1"
       d="m 117.72353,233.51463 c -0.26865,-0.35384 -0.69129,-1.01225 -0.93918,-1.46315 l -0.45071,-0.81981 h -3.54506 c -3.24515,0 -3.62111,-0.0508 -4.44407,-0.60058 -1.87353,-1.2516 -1.83471,-0.90587 -1.75985,-15.67129 l 0.0671,-13.22917 6.08542,-0.0821 c 7.16825,-0.0967 8.43229,0.0907 9.96794,1.4781 2.11792,1.91342 2.0706,1.60372 2.0706,13.55091 0,11.42358 -0.004,11.46418 -1.42968,13.15442 l -0.71612,0.84925 1.08284,1.36989 c 0.59556,0.75344 1.03887,1.50237 0.98514,1.66429 -0.0627,0.18883 -1.24308,0.32097 -3.29179,0.36848 -3.1132,0.0722 -3.20644,0.0578 -3.68255,-0.56925 z m 4.82606,-0.39389 c -0.0901,-0.14575 -0.0398,-0.34161 0.11167,-0.43524 0.1515,-0.0936 0.24274,-0.0274 0.20276,0.14708 -0.04,0.17453 0.0877,0.37575 0.28372,0.44715 0.48438,0.17645 0.058,-0.60894 -0.87962,-1.62012 -0.55968,-0.60359 -0.66615,-0.90713 -0.51044,-1.4552 0.10821,-0.38089 0.20645,-0.7719 0.21831,-0.86892 0.0119,-0.097 0.12996,-0.2756 0.26243,-0.39687 0.1422,-0.13018 0.15421,-0.071 0.0293,0.14457 -0.14403,0.24854 -0.0942,0.32876 0.15602,0.25136 0.20215,-0.0625 0.63545,-0.63899 0.96287,-1.28101 0.58596,-1.14899 0.59531,-1.32287 0.59531,-11.06859 0,-10.78851 -0.0719,-11.43018 -1.44217,-12.8693 -1.41003,-1.4809 -2.88139,-1.74071 -9.40575,-1.66088 l -5.68854,0.0696 -0.0589,12.63274 -0.0589,12.63274 0.67348,0.9933 c 1.0309,1.52047 1.435,1.64872 5.13292,1.62904 1.81901,-0.01 3.49031,0.0547 3.714,0.14305 0.22369,0.0884 0.64041,0.68853 0.92604,1.3337 0.56192,1.26923 0.57915,1.2767 3.25849,1.41195 1.07503,0.0543 1.62179,-0.0107 1.51704,-0.18016 z m -10.20526,-6.60104 c -0.002,-0.19049 -0.11064,-0.28046 -0.24091,-0.19995 -0.13028,0.0805 -0.30402,-0.0286 -0.38609,-0.24249 -0.2448,-0.63793 -0.24405,-18.95526 7.7e-4,-19.20009 0.26608,-0.26608 7.5997,-0.3857 8.01231,-0.13069 0.43407,0.26827 0.39067,19.09561 -0.0446,19.36465 -0.18008,0.11129 -1.80483,0.16923 -3.61057,0.12876 -2.49795,-0.056 -3.33622,0.0101 -3.505,0.27628 -0.18105,0.28556 -0.22258,0.28621 -0.22588,0.004 z m 6.87511,-10.10469 v -8.99584 h -3.43958 -3.43959 v 8.99584 8.99583 h 3.43959 3.43958 z m 7.5934,14.64895 c -0.10179,-0.10179 -0.18507,-2.33945 -0.18507,-4.9726 0,-4.02919 0.10212,-5.28997 0.64468,-7.95954 0.35458,-1.74461 0.95478,-4.77936 1.3338,-6.7439 0.37901,-1.96453 0.74939,-3.77271 0.82305,-4.01817 0.10661,-0.35524 -0.0711,-0.46321 -0.87077,-0.52917 l -1.00471,-0.0829 v -2.64584 -2.64583 l 8.27752,-0.0699 8.27753,-0.0699 -0.0754,2.71576 -0.0755,2.71577 -0.96276,0.0804 -0.96275,0.0804 0.34861,1.63943 c 0.32802,1.54255 1.12953,5.65557 2.0983,10.76755 0.31705,1.67302 0.40649,3.4686 0.34927,7.01146 l -0.0769,4.7625 -2.48982,0.0766 c -1.41809,0.0437 -2.60381,-0.0374 -2.75463,-0.18817 -0.14564,-0.14565 -0.23762,-1.10287 -0.2044,-2.12716 l 0.0604,-1.86235 h -3.44621 -3.4462 l -0.0773,2.05052 -0.0773,2.05052 -2.65921,0.0748 c -1.46257,0.0411 -2.74249,-0.008 -2.84427,-0.11024 z m 4.49644,-0.98537 c 0.11731,-0.11696 0.27282,-1.00669 0.34558,-1.97718 l 0.13229,-1.76453 3.78456,-0.13229 c 2.2291,-0.0779 3.88745,-0.029 4.0349,0.11906 0.13768,0.13825 0.25033,1.04773 0.25033,2.02108 v 1.76972 l 0.93855,0.17607 c 0.5162,0.0968 1.4703,0.0963 2.12022,-10e-4 l 1.18166,-0.1772 -0.0853,-5.06265 c -0.0509,-3.019 -0.20784,-5.35102 -0.38884,-5.77701 -0.16694,-0.39289 -0.36548,-1.1668 -0.44121,-1.71979 -0.28781,-2.10157 -0.88019,-5.05406 -1.07838,-5.37474 -0.11354,-0.18372 -0.24347,-0.82359 -0.28873,-1.42195 -0.0453,-0.59836 -0.22425,-1.77875 -0.39775,-2.6231 -0.3498,-1.70226 -0.23669,-1.95233 0.95333,-2.1076 0.75807,-0.0989 0.79743,-0.16741 0.87553,-1.52355 0.045,-0.78098 0.0125,-1.6961 -0.0722,-2.0336 l -0.15401,-0.61363 -7.33609,0.0703 -7.3361,0.0703 v 1.98437 1.98438 l 0.92604,0.13229 c 0.86271,0.12324 0.92439,0.19562 0.90198,1.05833 -0.0287,1.1037 -1.01841,6.47602 -2.09598,11.37708 -0.45914,2.08831 -0.82432,9.48197 -0.54252,10.98409 l 0.1641,0.87474 1.6974,-0.0496 c 0.93358,-0.0273 1.79338,-0.14532 1.91069,-0.26227 z m 0.48213,-8.43806 c -0.20024,-0.59439 -0.2228,-1.11732 -0.0656,-1.52136 0.0849,-0.21828 0.21741,-0.75406 0.29446,-1.19062 0.077,-0.43656 0.26598,-1.38906 0.41985,-2.11667 0.28013,-1.32475 0.7477,-3.82202 1.41184,-7.54062 0.49764,-2.78633 0.7762,-3.22458 1.98554,-3.1238 1.12001,0.0933 1.58878,0.79157 1.78689,2.66155 0.0655,0.61804 0.22773,1.59996 0.36057,2.18204 0.27971,1.22563 0.69071,3.29455 1.10379,5.55625 0.15946,0.87312 0.39236,2.06375 0.51756,2.64583 0.12519,0.58209 0.2328,1.44529 0.23914,1.91823 l 0.0115,0.8599 h -3.97705 c -2.94584,0 -4.00595,-0.0858 -4.08848,-0.33073 z m 7.15085,-1.05834 c -0.0721,-0.32742 -0.30293,-1.48828 -0.51305,-2.57968 -2.26712,-11.77593 -2.11302,-11.1365 -2.66443,-11.05608 -0.58399,0.0852 -0.51744,-0.15742 -1.72636,6.29358 -0.44996,2.40109 -0.92573,4.84187 -1.05727,5.42396 -0.13154,0.58208 -0.28866,1.38575 -0.34916,1.78593 l -0.11,0.72761 h 3.27564 c 3.25939,0 3.27499,-0.003 3.14463,-0.59532 z m 8.48094,10.42638 c -0.20023,-0.32398 -0.21862,-28.8334 -0.0188,-29.15671 0.0935,-0.15125 2.96578,-0.25352 7.12022,-0.25352 7.58071,0 8.11672,0.085 9.45872,1.49968 1.15646,1.21912 1.2736,1.90809 1.2736,7.49106 v 5.25212 l -1.33482,4.05722 c -2.16537,6.58168 -2.74229,7.09992 -7.90392,7.09992 h -3.17441 l -0.0773,2.05052 -0.0773,2.05052 -2.55831,0.0755 c -1.40707,0.0415 -2.62554,-0.0333 -2.70772,-0.16628 z m 4.65959,-2.62117 0.0773,-2.05052 3.57187,-0.1466 c 3.71782,-0.1526 4.62008,-0.34404 4.39431,-0.9324 -0.0814,-0.21223 0.005,-0.29605 0.21939,-0.21364 0.39578,0.15188 1.30517,-1.00336 1.58592,-2.01465 0.101,-0.3638 0.28612,-0.89958 0.41138,-1.19062 0.31936,-0.74203 1.19421,-3.64947 1.19421,-3.96875 0,-0.14553 0.0909,-0.33212 0.20193,-0.41465 0.45576,-0.33871 0.98846,-4.45672 0.98471,-7.61228 -0.005,-4.52238 -0.51845,-5.95815 -2.46604,-6.90097 -1.09598,-0.53055 -1.49852,-0.55596 -7.74355,-0.48879 l -6.58747,0.0709 -0.0685,13.74123 c -0.054,10.81764 0.002,13.78623 0.26458,13.95272 0.18323,0.11632 1.1318,0.21332 2.10795,0.21554 l 1.7748,0.004 0.0773,-2.05052 z m 0.45573,-6.47376 c -0.48661,-0.18094 -0.51075,-0.51444 -0.51075,-7.05556 0,-5.24495 -0.0781,-6.89715 -0.33073,-6.99909 -0.19757,-0.0797 -0.14431,-0.14187 0.1323,-0.15434 0.53397,-0.0241 0.62051,-0.44241 0.13229,-0.63941 -0.23847,-0.0962 -0.24283,-0.13928 -0.0156,-0.15434 0.17331,-0.0115 0.3887,0.0982 0.47863,0.24369 0.0899,0.14552 0.28259,0.26458 0.42811,0.26458 0.14552,0 0.17517,-0.14882 0.0659,-0.33073 -0.13846,-0.23045 -0.0648,-0.22215 0.24291,0.0274 0.33337,0.27033 1.24405,0.33518 3.71546,0.26458 1.80061,-0.0514 3.38091,0.0134 3.51178,0.14403 0.36055,0.35995 0.13536,5.9723 -0.28241,7.03849 -0.19957,0.50933 -0.573,1.4023 -0.82983,1.98438 -0.25683,0.58208 -0.43984,1.20716 -0.40669,1.38906 0.0332,0.1819 -0.064,0.33073 -0.21591,0.33073 -0.1519,0 -0.27618,0.15402 -0.27618,0.34226 0,0.18825 -0.32758,0.99192 -0.72795,1.78594 l -0.72794,1.44368 -1.93631,0.13229 c -1.06497,0.0728 -2.16615,0.0468 -2.44706,-0.0576 z m 4.42265,-2.12572 c 0.31228,-0.7637 1.05642,-2.55952 1.65365,-3.99072 1.01029,-2.42107 1.08587,-2.77557 1.08587,-5.09323 v -2.49105 h -3.43958 -3.43959 v 6.4823 6.48229 l 1.78594,-5.3e-4 1.78594,-5.3e-4 0.56777,-1.38854 z m 9.27145,11.2729 c -0.10006,-0.10006 -0.18193,-1.41224 -0.18193,-2.91595 v -2.73403 h 1.19063 1.19062 v -9.26042 -9.26041 h -1.19062 -1.19063 v -2.77813 -2.77812 h 5.30092 5.30093 l -0.0754,2.71198 -0.0754,2.71198 -1.24733,0.0803 -1.24734,0.0803 0.0567,9.18016 0.0567,9.18016 1.19063,0.13229 1.19062,0.13229 v 2.77813 2.77812 l -5.04359,0.0717 c -2.77398,0.0394 -5.12546,-0.0102 -5.22552,-0.11025 z m 9.50938,-2.40883 c 0.022,-1.06967 -0.0714,-1.65508 -0.26458,-1.6577 -0.16423,-0.002 -0.12622,-0.11311 0.0845,-0.2464 0.38735,-0.24506 0.0824,-0.37254 -1.44141,-0.60258 -0.5142,-0.0776 -0.53291,-0.33422 -0.66146,-9.07228 -0.0728,-4.94582 -0.0728,-9.40912 0,-9.91844 0.12187,-0.85308 0.21568,-0.93646 1.19063,-1.05833 l 1.05833,-0.13229 0.0794,-1.67675 c 0.0477,-1.00843 -0.0443,-1.82573 -0.23083,-2.05052 -0.24335,-0.29323 -1.21445,-0.37378 -4.5061,-0.37378 -4.15949,0 -4.19722,0.005 -4.34886,0.60946 -0.25976,1.03498 -0.0222,3.48831 0.34132,3.52466 0.1819,0.0182 0.69906,0.048 1.14925,0.0661 0.57795,0.0234 0.85896,0.18773 0.95612,0.55927 0.0757,0.2894 0.2349,0.46606 0.35382,0.39256 0.11892,-0.0735 0.30238,0.006 0.40768,0.17615 0.11211,0.18139 0.0773,0.23924 -0.0839,0.13958 -0.51792,-0.32009 -0.5903,1.02271 -0.5291,9.81513 0.0571,8.20777 0.0298,8.81064 -0.4056,8.94874 -0.25678,0.0814 -0.39858,0.25857 -0.31511,0.39361 0.20038,0.32423 -0.0573,0.31061 -0.70754,-0.0374 -0.90832,-0.48611 -1.28861,0.12359 -1.28861,2.06598 0,1.69445 0.009,1.71647 0.66777,1.59059 0.36727,-0.0702 0.73348,-0.0214 0.81378,0.10859 0.0803,0.12993 1.83363,0.20326 3.89629,0.16295 l 3.75028,-0.0733 z m 6.36902,2.41224 c -0.10193,-0.10194 -0.18533,-5.5782 -0.18533,-12.16948 v -11.98414 l -2.3151,-0.0764 -2.31511,-0.0764 v -2.64584 -2.64583 l 7.34219,-0.0703 7.34219,-0.0703 v 2.78231 2.78231 h -2.24629 -2.24629 l -0.0688,12.10468 -0.0688,12.10469 -2.52665,0.0751 c -1.38966,0.0413 -2.61005,-0.008 -2.71198,-0.11024 z m 4.57196,-12.65607 c 0.008,-6.54422 0.10297,-11.98633 0.21021,-12.09357 0.10723,-0.10723 1.18126,-0.21603 2.38673,-0.24176 l 2.19177,-0.0468 -0.0767,-2.01541 -0.0766,-2.01541 -6.47481,-0.053 c -4.79758,-0.0392 -6.52711,0.0293 -6.67668,0.26459 -0.11103,0.17466 -0.20369,1.05944 -0.20592,1.96617 -0.005,1.88431 -0.0285,1.86723 2.77408,1.98746 l 1.5875,0.0681 0.0688,12.07861 0.0688,12.07861 2.10379,-0.0395 2.10379,-0.0395 0.0152,-11.89858 z m 6.54027,12.6558 c -0.27714,-0.27715 -0.2231,-9.48211 0.0632,-10.76148 0.13653,-0.61014 0.61812,-3.07388 1.0702,-5.47497 0.45208,-2.4011 0.92896,-4.84188 1.05975,-5.42396 0.60067,-2.67345 0.63655,-2.47301 -0.45894,-2.56366 l -0.99321,-0.0822 v -2.64584 -2.64583 l 8.27753,-0.0699 8.27753,-0.0699 -0.0755,2.71576 -0.0754,2.71577 -0.96276,0.0804 -0.96276,0.0804 0.35648,1.63943 c 0.19606,0.90169 0.84093,4.13974 1.43305,7.19568 1.05234,5.43113 1.07493,5.66647 1.00316,10.45104 l -0.0734,4.89479 h -2.64583 -2.64584 l -0.0773,-2.05052 -0.0773,-2.05052 h -3.41732 -3.41733 l -0.0773,2.05052 -0.0773,2.05052 -2.65921,0.0748 c -1.46256,0.0411 -2.74248,-0.008 -2.84427,-0.11024 z m 4.47391,-0.82852 c 0.16135,-0.10692 0.30042,-0.93411 0.30905,-1.83822 0.009,-0.9041 0.092,-1.7673 0.18529,-1.91822 0.10486,-0.16968 1.67837,-0.27441 4.12272,-0.27441 h 3.95314 v 1.95353 c 0,2.22763 -0.005,2.22376 2.69453,2.17363 l 1.40651,-0.0261 0.075,-4.23333 c 0.0675,-3.81171 -0.006,-4.65496 -0.73574,-8.46667 -0.44589,-2.32833 -0.91804,-4.65005 -1.04922,-5.15937 -0.13118,-0.50933 -0.31519,-1.52136 -0.40891,-2.24896 -0.0937,-0.72761 -0.33342,-1.75555 -0.53264,-2.28431 -0.4428,-1.17523 -0.11894,-1.7433 1.06405,-1.86642 l 0.79375,-0.0826 0.0375,-2.04272 0.0375,-2.04271 -7.25717,0.0583 c -6.11571,0.0492 -7.29761,0.12076 -7.51425,0.45521 -0.14139,0.21828 -0.22629,1.11125 -0.18866,1.98438 l 0.0684,1.5875 0.92604,0.13229 c 0.88661,0.12666 0.92512,0.17736 0.90421,1.19062 -0.0225,1.089 -0.17,2.03287 -0.64103,4.10104 -0.14914,0.65485 -0.44259,2.14313 -0.65211,3.3073 -0.68583,3.81076 -0.88882,4.82139 -1.17645,5.85726 -0.30642,1.10354 -0.40089,9.41848 -0.11031,9.70905 0.23903,0.23903 3.32165,0.21722 3.68883,-0.0261 z m 3.67541,-8.24646 c -3.76551,-0.17791 -3.60998,0.0393 -2.77916,-3.88166 0.64724,-3.05465 1.21846,-6.05014 1.68496,-8.83606 0.46243,-2.76162 0.75379,-3.22524 1.96308,-3.1238 1.21418,0.10186 1.45581,0.56728 2.0338,3.91755 0.2385,1.38245 0.55004,2.95699 0.69231,3.499 0.14227,0.54199 0.32558,1.60563 0.40736,2.36363 0.0818,0.75799 0.25305,1.65266 0.3806,1.98815 0.12755,0.33549 0.31134,1.38522 0.40841,2.33272 0.1411,1.37718 0.10283,1.72347 -0.19077,1.72636 -0.20199,0.002 -0.60539,0.0397 -0.89643,0.0839 -0.29104,0.0441 -1.95791,0.0128 -3.70416,-0.0698 z m 3.98649,-1.40679 c -0.0685,-0.32742 -0.49249,-2.55984 -0.94211,-4.96093 -0.44961,-2.4011 -0.92713,-4.84188 -1.06116,-5.42396 -0.13402,-0.58208 -0.31812,-1.56435 -0.4091,-2.18281 -0.12635,-0.85886 -0.28124,-1.12448 -0.65572,-1.12448 -0.65714,0 -0.66877,0.0285 -1.18935,2.91041 -0.24971,1.38245 -0.54722,2.9898 -0.66113,3.57188 -0.1139,0.58208 -0.39088,2.01083 -0.6155,3.175 -0.22462,1.16417 -0.51848,2.68221 -0.65302,3.37344 l -0.24463,1.25677 h 3.27818 c 3.26012,0 3.27748,-0.003 3.15354,-0.59532 z m 7.96802,10.47726 c -0.0993,-0.0993 -0.18056,-6.82821 -0.18056,-14.95312 v -14.77257 h 2.77813 2.77812 v 12.03229 12.03229 l 4.56407,0.0724 4.56406,0.0724 v 2.77813 2.77812 l -7.16163,0.0703 c -3.9389,0.0387 -7.24289,-0.0109 -7.34219,-0.11024 z m 13.71007,-2.73819 v -1.98438 l -3.80038,-0.0736 c -2.78372,-0.0539 -3.91208,0.0169 -4.21797,0.26458 -0.3217,0.26052 -0.37197,0.26223 -0.21891,0.007 0.12504,-0.20813 0.0458,-0.33073 -0.21379,-0.33073 -0.36739,0 -0.41293,-1.29449 -0.41654,-11.84011 -0.002,-6.51205 -0.0915,-11.9723 -0.19844,-12.13387 -0.10691,-0.16158 -0.98393,-0.31404 -1.94892,-0.33881 -1.41235,-0.0362 -1.78714,0.0399 -1.92172,0.39067 -0.20959,0.54618 -0.19946,27.21612 0.0105,27.76339 0.13283,0.34614 1.03223,0.3916 6.54007,0.33055 l 6.38605,-0.0708 z m -44.72159,-31.59353 c -0.44041,-0.34728 -6.45306,-4.54897 -13.36145,-9.3371 -6.90839,-4.78813 -13.48345,-9.34909 -14.61123,-10.13547 -1.42411,-0.993 -2.05038,-1.59509 -2.05005,-1.97091 7.9e-4,-0.89108 1.72326,-5.51302 2.1564,-5.78623 0.30943,-0.19519 3.68984,2.09543 14.71736,9.97271 7.87361,5.62435 14.48068,10.28942 14.68238,10.36682 0.35167,0.13495 5.64043,-3.71563 5.59602,-4.07428 -0.0117,-0.0947 -0.30111,-1.09664 -0.64307,-2.22649 l -0.62174,-2.05427 -0.67985,0.6195 c -1.41664,1.29088 -5.04804,3.88591 -5.43782,3.88591 -0.69253,0 -4.92729,-2.96734 -4.84359,-3.39395 0.0957,-0.4877 13.41785,-10.60198 13.98508,-10.61756 0.44629,-0.0123 0.67708,0.61401 2.77448,7.52922 0.66205,2.18281 1.49523,4.91247 1.85151,6.0659 0.35628,1.15343 0.64778,2.23973 0.64778,2.41399 0,0.26428 -8.39126,6.83612 -11.19661,8.76892 -1.10045,0.75818 -1.98025,0.75025 -2.9656,-0.0267 z m 3.60846,-1.81873 c 0.089,-0.12926 0.26763,-0.24163 0.39688,-0.24971 0.46336,-0.029 4.60024,-3.43085 4.45597,-3.66429 -0.0811,-0.13118 0.008,-0.1791 0.19706,-0.10649 0.18946,0.0726 0.64213,-0.13711 1.00593,-0.46605 0.3638,-0.32894 1.28554,-1.0148 2.0483,-1.52412 1.556,-1.03898 1.56005,-1.06585 0.59795,-3.96875 -0.26526,-0.80036 -0.72065,-2.22911 -1.01199,-3.175 -0.29133,-0.94588 -0.97124,-3.14854 -1.51089,-4.89479 -0.53966,-1.74625 -1.11561,-3.26421 -1.27989,-3.37324 -0.17235,-0.11438 -0.55049,0.0877 -0.894,0.47778 -0.32743,0.3718 -0.59532,0.59526 -0.59532,0.49657 0,-0.0987 -0.17728,-0.0323 -0.39396,0.14751 -0.21668,0.17983 -0.32689,0.43549 -0.24491,0.56812 0.082,0.13264 0.0509,0.21899 -0.0691,0.19188 -0.43789,-0.0989 -1.61656,0.54159 -2.10159,1.14207 -0.27377,0.33894 -0.8319,0.76506 -1.24029,0.94693 -0.44944,0.20015 -0.66828,0.4508 -0.55443,0.63501 0.10345,0.16739 0.0791,0.23698 -0.0541,0.15465 -0.32525,-0.20101 -3.06958,1.7768 -2.81653,2.02985 0.10936,0.10936 0.0671,0.15915 -0.094,0.11065 -0.4518,-0.1361 -2.78194,1.63031 -2.58052,1.95621 0.10139,0.16405 0.0543,0.21052 -0.11023,0.10882 -0.15795,-0.0976 -0.34618,-0.082 -0.41829,0.0346 -0.127,0.20549 2.97401,2.44233 3.38589,2.44233 0.26306,0 2.21981,-1.51651 2.9925,-2.31923 0.32743,-0.34015 0.59532,-0.53844 0.59532,-0.44065 0,0.0978 0.55039,-0.27321 1.22309,-0.82444 1.75662,-1.43942 1.89905,-1.30257 3.29311,3.16381 l 0.48811,1.56387 -1.00933,1.00933 c -0.55514,0.55514 -0.9406,1.07808 -0.85658,1.1621 0.084,0.084 -0.0396,0.0789 -0.27475,-0.0113 -0.26643,-0.10224 -0.57139,0.0414 -0.80941,0.38121 -0.21005,0.29989 -0.44851,0.47866 -0.5299,0.39727 -0.0814,-0.0814 -0.45666,0.25671 -0.83393,0.75134 -0.37727,0.49462 -0.83578,0.91438 -1.01891,0.93278 -0.18313,0.0184 -0.6322,0.10627 -0.99793,0.19526 -0.54236,0.13197 -1.24407,-0.25519 -3.80573,-2.09976 -1.72742,-1.24385 -3.26228,-2.18645 -3.41081,-2.09465 -0.15029,0.0929 -0.18996,0.0373 -0.0895,-0.12529 0.22359,-0.36179 -0.79184,-0.9414 -1.20351,-0.68697 -0.17632,0.10897 -0.22732,0.0678 -0.12371,-0.0998 0.097,-0.15688 -0.21207,-0.55609 -0.68672,-0.88714 -0.47465,-0.33105 -2.20001,-1.59031 -3.83413,-2.79835 -1.63412,-1.20804 -3.02705,-2.19644 -3.0954,-2.19644 -0.0683,0 -1.23166,-0.8305 -2.58513,-1.84556 -1.35347,-1.01505 -2.68905,-1.84849 -2.96797,-1.85208 -0.27891,-0.004 -0.4327,-0.0809 -0.34175,-0.17189 0.22345,-0.22345 -3.28056,-2.75874 -3.56763,-2.58132 -0.12475,0.0771 -0.1941,0.0229 -0.15412,-0.12041 0.04,-0.14333 -0.7905,-0.86965 -1.84552,-1.61406 l -1.91823,-1.35346 v 0.74772 c 0,0.41125 -0.10116,0.86083 -0.2248,0.99908 -0.12364,0.13824 -0.42538,0.77 -0.67055,1.40391 -0.36634,0.94723 -0.38521,1.22731 -0.10593,1.57215 0.28593,0.35303 0.27688,0.38249 -0.0571,0.18571 -0.34149,-0.20124 -0.34654,-0.17181 -0.0362,0.21088 0.19839,0.24461 0.46628,0.3795 0.59531,0.29976 0.12903,-0.0797 0.2346,-0.0279 0.2346,0.11525 0,0.14314 1.19427,1.0604 2.65394,2.03837 1.45967,0.97796 2.71363,1.87471 2.7866,1.99277 0.073,0.11806 0.32697,0.14008 0.56447,0.049 0.26012,-0.0998 0.36528,-0.0581 0.26449,0.10502 -0.19572,0.31667 1.95484,1.93587 2.57115,1.93587 0.23087,0 0.39001,0.10586 0.35362,0.23523 -0.0605,0.21522 2.05348,1.78724 4.11895,3.06295 0.46309,0.28603 1.77552,1.20912 2.9165,2.05131 1.14097,0.8422 2.21253,1.45229 2.38125,1.35576 0.16871,-0.0965 0.22255,-0.0821 0.11965,0.032 -0.22533,0.24986 1.5863,1.53072 1.8951,1.33987 0.11902,-0.0736 0.37873,0.0733 0.57712,0.32636 0.32641,0.41636 0.31669,0.42558 -0.10232,0.097 -0.25466,-0.19972 -0.46302,-0.28754 -0.46302,-0.19515 0,0.1445 1.10387,0.92458 3.598,2.54265 0.33647,0.21828 1.35214,0.92502 2.25705,1.57052 0.90491,0.64551 1.54849,1.01702 1.43017,0.82557 -0.14563,-0.23564 -0.0964,-0.3085 0.15243,-0.22555 0.20216,0.0674 0.36756,0.2563 0.36756,0.41981 0,0.16351 0.23813,0.47191 0.52917,0.68535 0.4793,0.35148 0.61644,0.32271 1.45521,-0.30536 0.50932,-0.38137 0.99888,-0.79917 1.08791,-0.92843 z m -41.41125,-2.79211 c -3.18737,-2.43065 -5.91787,-4.61383 -6.06779,-4.8515 -0.19506,-0.30923 -0.15195,-0.79689 0.15159,-1.71469 2.29269,-6.93224 11.18565,-33.23167 11.4632,-33.90044 l 0.36017,-0.86788 3.38361,0.0741 c 2.79457,0.0612 3.38481,0.14321 3.39053,0.471 0.004,0.21828 -0.45439,1.70656 -1.01822,3.30729 -1.29004,3.66243 -3.92247,11.16464 -6.26662,17.85937 -0.99361,2.83766 -2.30369,6.5286 -2.9113,8.20209 -0.60761,1.67349 -1.2033,3.36619 -1.32377,3.76157 -0.20695,0.67924 -0.0743,0.82873 2.4074,2.71198 1.44454,1.09621 2.71502,1.99057 2.8233,1.98745 0.10827,-0.003 0.9993,-0.52556 1.98006,-1.16099 l 1.7832,-1.15534 -1.12174,-0.9019 c -0.61696,-0.49605 -1.92541,-1.48485 -2.90768,-2.19733 -1.21391,-0.88051 -1.78463,-1.46975 -1.78187,-1.8397 0.002,-0.29936 0.33613,-1.61585 0.74197,-2.92553 0.54404,-1.75568 0.85418,-2.38125 1.18054,-2.38125 0.72435,0 13.94842,9.97891 13.94842,10.52551 0,0.32837 -2.06337,1.83413 -6.68073,4.87532 -3.6744,2.42012 -6.91885,4.43171 -7.20989,4.47021 -0.34251,0.0453 -2.57334,-1.48887 -6.32438,-4.34937 z m 7.515,2.59342 c 0.36381,-0.24182 1.09896,-0.72185 1.63368,-1.06673 0.53472,-0.34489 0.90328,-0.73861 0.81901,-0.87495 -0.0843,-0.13634 -0.0178,-0.16416 0.14783,-0.0618 0.30972,0.19142 3.3506,-1.6921 3.95709,-2.45101 0.18695,-0.23393 0.4846,-0.42764 0.66146,-0.43046 0.46176,-0.007 4.15802,-2.46238 4.15802,-2.76171 0,-0.13789 -0.13746,-0.33566 -0.30547,-0.43949 -0.20082,-0.12412 -0.23942,-0.0615 -0.11266,0.18282 0.10604,0.20438 -0.0665,0.0409 -0.38346,-0.3634 -0.50708,-0.64678 -1.92232,-1.60402 -2.41751,-1.63515 -0.097,-0.006 -0.27561,-0.11948 -0.39688,-0.25195 -0.13065,-0.14273 -0.0588,-0.15386 0.17639,-0.0273 0.52923,0.28474 0.16744,-0.0498 -1.3876,-1.28292 -0.69042,-0.54751 -1.37113,-0.92388 -1.5127,-0.83639 -0.14156,0.0875 -0.41011,-0.0897 -0.59677,-0.39373 -0.29209,-0.47577 -5.02366,-4.23023 -5.33116,-4.23023 -0.16815,0 -0.5263,1.40834 -0.45918,1.80557 0.0326,0.19269 -0.0838,0.52261 -0.25847,0.73314 -0.49459,0.59594 -0.50524,1.63458 -0.0206,2.01338 0.37475,0.29294 0.39999,0.28358 0.17383,-0.0645 -0.14552,-0.22396 0.0331,-0.0741 0.39687,0.33311 0.3638,0.40717 0.81029,0.73924 0.99219,0.73792 0.1819,-0.001 0.33073,0.10623 0.33073,0.23898 0,0.13275 0.7739,0.79361 1.71979,1.46858 1.31459,0.93807 1.71979,1.37991 1.71979,1.87531 0,0.35644 -0.12609,0.64808 -0.2802,0.64808 -0.15411,0 -0.21432,0.10659 -0.13381,0.23686 0.0805,0.13027 -0.0377,0.30751 -0.26271,0.39385 -0.225,0.0863 -0.34069,0.0463 -0.25709,-0.089 0.0836,-0.13528 -0.50301,0.17918 -1.30358,0.69879 -0.80058,0.51962 -1.41019,1.01861 -1.35468,1.10888 0.0555,0.0903 -0.31578,0.19474 -0.82507,0.23215 -0.6698,0.0492 -1.1441,-0.11552 -1.71431,-0.59532 -0.43357,-0.36482 -0.97762,-0.66332 -1.20899,-0.66332 -0.23137,0 -0.34518,-0.0755 -0.2529,-0.16777 0.0923,-0.0923 -0.72132,-0.82029 -1.80799,-1.61782 -1.08667,-0.79753 -1.97576,-1.565 -1.97576,-1.70549 0,-0.14049 0.35718,-1.26743 0.79375,-2.5043 0.43656,-1.23688 0.79375,-2.60359 0.79375,-3.03715 0,-0.43355 0.10746,-0.72187 0.23881,-0.64069 0.2993,0.18498 0.87411,-1.40148 0.64318,-1.77514 -0.0935,-0.15128 -0.0474,-0.1993 0.10242,-0.1067 0.15867,0.0981 0.41385,-0.35442 0.6111,-1.0836 0.18628,-0.68858 0.42552,-1.37103 0.53166,-1.51655 0.10613,-0.14552 0.27598,-0.65273 0.37742,-1.12714 0.10145,-0.47441 0.36129,-1.21703 0.57742,-1.65028 0.21613,-0.43324 0.30638,-0.93806 0.20056,-1.12181 -0.10583,-0.18376 -0.0951,-0.24596 0.0238,-0.13823 0.11893,0.10773 0.43178,-0.42806 0.69524,-1.19063 0.57544,-1.66566 0.59546,-1.86484 0.16554,-1.64707 -0.1819,0.0921 -0.12864,0.001 0.11836,-0.2018 0.5242,-0.43111 1.60143,-3.16771 1.60143,-4.0683 0,-0.34047 0.0828,-0.56791 0.18389,-0.5054 0.21998,0.13596 1.43822,-3.49315 1.39777,-4.16391 -0.0169,-0.28007 0.0899,-0.39572 0.26526,-0.28733 0.19,0.11743 0.23394,0.0261 0.12458,-0.25886 -0.0929,-0.24215 -0.0691,-0.44028 0.0529,-0.44028 0.25585,0 0.97204,-2.34974 0.86693,-2.84427 -0.0387,-0.1819 0.0399,-0.33073 0.17453,-0.33073 0.31437,0 1.06953,-2.273 0.86163,-2.59348 -0.26754,-0.41242 -4.41925,-0.63364 -4.7044,-0.25068 -0.48201,0.64737 -3.00773,8.69281 -2.8275,9.00679 0.10091,0.17581 0.0822,0.2276 -0.0415,0.11508 -0.27778,-0.25263 -3.0918,7.96823 -2.85737,8.34754 0.0975,0.15773 0.0397,0.1934 -0.13663,0.0844 -0.18179,-0.11235 -0.30547,-0.0191 -0.30547,0.23032 0,0.2305 -0.23493,1.08751 -0.52206,1.90445 -0.28713,0.81695 -0.44664,1.61765 -0.35446,1.77933 0.0922,0.16168 0.0685,0.20399 -0.0527,0.094 -0.19324,-0.17538 -2.20922,5.37362 -2.33156,6.41766 -0.0256,0.21828 -0.10655,0.4564 -0.17996,0.52916 -0.25748,0.25524 -1.71828,4.89104 -1.68694,5.35345 0.0174,0.25706 -0.0719,0.46739 -0.19844,0.46739 -0.12657,0 -0.23012,0.17184 -0.23012,0.38187 0,0.47648 1.05241,1.24052 1.40692,1.02142 0.14429,-0.0892 0.18367,-0.0349 0.0875,0.12073 -0.0961,0.15558 0.22071,0.52732 0.70413,0.82609 0.48343,0.29877 1.09539,0.78238 1.35993,1.07469 0.26454,0.29231 0.58412,0.46772 0.7102,0.3898 0.12607,-0.0779 0.22922,-0.0385 0.22922,0.0876 0,0.27033 2.27969,1.91863 2.65357,1.91863 0.14126,0 0.25685,0.0989 0.25685,0.21973 0,0.30066 2.27587,1.91411 2.45181,1.73818 0.0776,-0.0776 0.23088,0.004 0.3407,0.18204 0.13843,0.22398 0.0857,0.25694 -0.17195,0.10747 -0.66011,-0.38297 -0.003,0.20312 0.75087,0.66952 0.75306,0.46602 0.81058,0.45763 1.92023,-0.27997 z m 20.24063,-15.48993 c -1.43863,-0.96876 -2.11667,-1.59114 -2.11667,-1.94289 0,-0.36227 1.5082,-1.65672 5.02709,-4.31465 2.76489,-2.08842 7.22974,-5.46731 9.92187,-7.50864 2.69214,-2.04133 7.0688,-5.34514 9.72592,-7.34179 4.49123,-3.37486 4.81908,-3.67831 4.65977,-4.31303 -0.0942,-0.37552 -0.49612,-1.76992 -0.89304,-3.09867 l -0.72168,-2.41591 -2.54903,-0.0757 c -1.40196,-0.0417 -2.54902,-0.0306 -2.54902,0.0246 0,0.0552 0.47625,1.49234 1.05833,3.19366 0.58208,1.70132 1.05279,3.29759 1.04602,3.54725 -0.0147,0.54151 -3.82501,3.49665 -4.50854,3.49665 -0.39033,0 -0.93796,-1.3988 -3.01878,-7.71096 -1.39807,-4.24103 -2.47936,-7.87407 -2.40286,-8.07342 0.1146,-0.29866 1.66373,-0.35017 8.80185,-0.29268 l 8.66277,0.0698 1.76592,5.73588 c 2.14994,6.98325 2.47895,8.24026 2.28741,8.7394 -0.0819,0.21335 -4.35695,3.56435 -9.50018,7.44665 -5.14322,3.88231 -12.08976,9.13675 -15.43673,11.67654 -3.39028,2.57264 -6.31978,4.61015 -6.61459,4.60054 -0.29104,-0.009 -1.48166,-0.65865 -2.64583,-1.4426 z m 3.2861,-0.0455 c 0.14833,-0.25466 0.2733,-0.37041 0.27773,-0.25723 0.004,0.11319 0.81172,-0.41189 1.79398,-1.16683 0.98227,-0.75494 1.75322,-1.48148 1.71324,-1.61452 -0.04,-0.13304 0.0521,-0.16476 0.20464,-0.0705 0.15253,0.0943 0.84009,-0.28785 1.5279,-0.84915 0.68782,-0.5613 1.72683,-1.37172 2.30891,-1.80091 1.36504,-1.00652 1.94985,-1.47515 2.5533,-2.04608 0.26918,-0.25466 0.56032,-0.46302 0.647,-0.46302 0.42752,0 1.67809,-1.13539 1.52443,-1.38403 -0.097,-0.15687 -0.0686,-0.22121 0.063,-0.14297 0.13163,0.0782 0.61155,-0.11172 1.06649,-0.42214 1.43819,-0.98131 4.71027,-3.4938 5.2402,-4.02373 0.28018,-0.28018 0.59448,-0.50942 0.69844,-0.50942 0.10396,0 0.76731,-0.45052 1.4741,-1.00116 0.7068,-0.55063 2.23759,-1.71768 3.40176,-2.59344 1.16417,-0.87575 2.23573,-1.73492 2.38125,-1.90925 0.14552,-0.17434 0.56224,-0.47189 0.92604,-0.66123 0.63073,-0.32826 2.81517,-2.09866 2.23478,-1.8112 -0.1648,0.0816 -0.28889,-0.21921 -0.30353,-0.73586 -0.0136,-0.48066 -0.26699,-1.57456 -0.56303,-2.43089 -0.29604,-0.85634 -0.80929,-2.47142 -1.14056,-3.58909 -0.33127,-1.11767 -0.67322,-1.9883 -0.75989,-1.93474 -0.0867,0.0536 -0.16982,-0.28213 -0.18477,-0.746 -0.0149,-0.46386 -0.28502,-1.528 -0.60015,-2.36474 l -0.57295,-1.52136 h -7.36769 c -4.05222,0 -7.54132,0.0666 -7.75354,0.14807 -0.33131,0.12714 -0.31551,0.3741 0.11171,1.74678 0.27367,0.87928 0.58305,1.73539 0.68751,1.90245 0.10447,0.16706 0.21095,0.44191 0.23664,0.61078 0.11907,0.78292 2.88996,8.6991 3.07239,8.77754 0.11351,0.0488 0.14353,0.19043 0.0667,0.31472 -0.0768,0.12428 0.0993,0.20797 0.39134,0.18597 0.75532,-0.0569 2.74795,-1.70307 2.79243,-2.30691 0.0205,-0.27882 -0.0742,-0.43802 -0.21046,-0.35378 -0.14574,0.0901 -0.16997,-0.0921 -0.0588,-0.44228 0.14057,-0.44292 0.10347,-0.54259 -0.14483,-0.38913 -0.20711,0.128 -0.26761,0.0992 -0.1594,-0.0759 0.20359,-0.32943 -1.171,-4.58092 -1.42946,-4.42119 -0.0958,0.0592 -0.1177,-0.18812 -0.0486,-0.54967 0.0691,-0.36155 0.25056,-0.73455 0.40322,-0.8289 0.15266,-0.0944 1.56848,-0.22516 3.14628,-0.29068 3.03782,-0.12617 3.65672,0.0511 3.65672,1.04722 0,0.28181 0.10187,0.44943 0.22637,0.37248 0.1245,-0.0769 0.16677,0.17185 0.0939,0.55288 -0.0997,0.52132 -0.0473,0.64018 0.21139,0.48028 0.22449,-0.13874 0.27947,-0.10836 0.1584,0.0875 -0.22698,0.36726 0.35891,2.42758 0.69032,2.42758 0.13108,0 0.17521,0.10211 0.0981,0.22691 -0.0771,0.1248 -0.0252,0.62809 0.11544,1.11841 0.36339,1.26706 0.15994,1.65066 -1.47137,2.77418 -0.79501,0.54755 -1.44547,1.15015 -1.44547,1.33912 0,0.18898 -0.25249,0.47872 -0.5611,0.64388 -0.42153,0.2256 -0.51432,0.22461 -0.37305,-0.004 0.10342,-0.16734 -0.65473,0.31065 -1.68478,1.0622 -1.03005,0.75155 -1.79628,1.4903 -1.70273,1.64166 0.0987,0.15971 0.0419,0.19598 -0.13538,0.0864 -0.168,-0.10384 -0.30546,-0.0557 -0.30546,0.10702 0,0.1627 -0.0973,0.2357 -0.21614,0.16224 -0.17923,-0.11078 -3.05098,1.92922 -3.48803,2.47778 -0.0728,0.0913 -0.54901,0.42218 -1.05833,0.73524 -0.50933,0.31306 -1.24827,0.87233 -1.6421,1.24281 -0.39383,0.37048 -0.78879,0.6736 -0.87769,0.6736 -0.22606,0 -2.16779,1.56102 -3.12655,2.51354 -0.43942,0.43656 -0.70215,0.63068 -0.58384,0.43137 0.11831,-0.19931 -0.38011,0.0984 -1.1076,0.66146 -0.72749,0.56311 -1.26071,1.13153 -1.18492,1.26315 0.0758,0.13163 0.0242,0.16911 -0.11467,0.0833 -0.13885,-0.0858 -0.76932,0.25298 -1.40103,0.75287 -0.63171,0.4999 -1.22111,0.90947 -1.30977,0.91017 -0.0887,7.9e-4 -0.61524,0.41826 -1.17018,0.92792 -0.55492,0.50966 -1.32883,1.10292 -1.71979,1.31836 -0.87788,0.48375 -2.57165,1.93893 -2.41405,2.07399 0.41201,0.35308 3.56518,2.29304 3.72707,2.29304 0.10935,0 0.32018,-0.20836 0.46851,-0.46302 z m -14.3986,-8.56221 c -3.34698,-2.47243 -6.124,-4.66835 -6.17116,-4.87983 -0.0472,-0.21148 0.0879,-0.94958 0.30013,-1.64024 0.6048,-1.96814 4.40768,-12.84517 4.53579,-12.97327 0.14103,-0.14103 16.06918,-0.095 16.21103,0.0468 0.26072,0.26072 4.8288,14.08513 4.735,14.32956 -0.15705,0.40926 -12.82485,9.64709 -13.20325,9.6283 -0.17717,-0.009 -3.06056,-2.03889 -6.40754,-4.51132 z m 7.30445,2.91958 c 0.42436,-0.30216 0.69224,-0.67775 0.59528,-0.83463 -0.097,-0.15687 -0.0612,-0.21408 0.0795,-0.12712 0.34688,0.21438 1.73413,-0.72053 1.48172,-0.99858 -0.11032,-0.12152 -0.0504,-0.13448 0.13308,-0.0288 0.20124,0.11588 0.65156,-0.12577 1.13466,-0.60886 0.44055,-0.44055 0.86874,-0.78802 0.95154,-0.77214 0.38211,0.0733 3.25971,-2.27249 2.99125,-2.43841 -0.19868,-0.12279 -0.15822,-0.23591 0.12296,-0.34381 0.23048,-0.0884 0.41906,-0.0463 0.41906,0.0937 0,0.27805 2.27767,-1.3856 2.85583,-2.08595 0.25989,-0.31481 0.30598,-0.32505 0.16768,-0.0373 -0.16205,0.33722 -0.13517,0.34219 0.17882,0.0331 0.2592,-0.25517 0.27917,-0.39722 0.0669,-0.47571 -0.16645,-0.0616 -0.23699,-0.36294 -0.15676,-0.66976 0.10821,-0.41376 0.0562,-0.50243 -0.20125,-0.34331 -0.22762,0.14068 -0.28335,0.11132 -0.16185,-0.0853 0.10192,-0.1649 -0.18706,-1.34415 -0.64216,-2.62057 -0.4551,-1.27641 -1.17894,-3.3804 -1.60854,-4.67554 -0.42959,-1.29514 -0.86322,-2.48576 -0.96361,-2.64584 -0.10039,-0.16007 -0.19834,-0.4101 -0.21765,-0.55562 -0.0193,-0.14552 -0.12565,-0.53247 -0.23629,-0.85989 l -0.20117,-0.59532 h -7.148 c -8.23952,0 -7.80496,-0.13667 -8.42297,2.64907 -0.19331,0.87135 -0.43209,1.58427 -0.53063,1.58427 -0.0985,0 -0.24191,0.26789 -0.31861,0.59531 -0.0767,0.32742 -0.62656,1.98599 -1.22193,3.68571 -0.88308,2.52111 -1.03382,3.21844 -0.81824,3.78544 0.17538,0.46129 0.17554,0.6402 5.3e-4,0.532 -0.14515,-0.0897 -0.26385,-0.0369 -0.26385,0.11717 0,0.15411 -0.17859,0.2802 -0.39687,0.2802 -0.70358,0 -0.4148,0.37267 1.19336,1.54004 0.90051,0.6537 1.70773,1.06102 1.88525,0.95131 0.18119,-0.11198 0.24005,-0.078 0.14137,0.0817 -0.093,0.15046 1.16853,1.25783 2.80339,2.46081 1.63485,1.20299 3.49801,2.58656 4.14036,3.07461 0.64234,0.48805 1.21928,0.88736 1.28207,0.88736 0.0628,0 0.46138,-0.24723 0.88573,-0.5494 z m -1.47405,-4.49316 c 0.14227,-0.23019 -3.72207,-3.17708 -3.94957,-3.01188 -0.0886,0.0643 -0.10194,0.038 -0.0297,-0.0585 0.0722,-0.0965 -0.22942,-0.39482 -0.67034,-0.66297 -0.44093,-0.26814 -0.87336,-0.67432 -0.96097,-0.90262 -0.0876,-0.22829 0.20622,-1.54797 0.65294,-2.93262 0.44672,-1.38464 0.74155,-2.71522 0.65518,-2.95683 -0.0864,-0.24162 -0.0567,-0.34803 0.0659,-0.23646 0.12262,0.11156 0.37528,-0.15946 0.56147,-0.60226 l 0.33851,-0.8051 4.04303,0.0731 4.04303,0.0731 0.59917,1.71979 c 0.32954,0.94589 0.73805,2.01745 0.90779,2.38125 0.16974,0.3638 0.28784,0.75076 0.26245,0.8599 -0.0254,0.10914 0.0601,0.19843 0.1901,0.19843 0.12995,0 0.30718,0.18478 0.39385,0.41062 0.0982,0.25597 0.0491,0.34359 -0.13039,0.23265 -0.20516,-0.12679 -0.20429,-0.0216 0.003,0.36574 0.62434,1.1666 0.35148,1.7137 -1.54211,3.09204 -0.9996,0.7276 -1.75342,1.42766 -1.67515,1.55567 0.0783,0.12802 -0.0231,0.17264 -0.22525,0.0992 -0.20215,-0.0735 -0.69843,0.17478 -1.10283,0.55169 -0.4699,0.43797 -1.06224,0.69615 -1.64121,0.71536 -0.49827,0.0165 -0.85329,-0.0551 -0.78895,-0.15924 z m 3.12425,-2.34517 c 1.18682,-0.86179 2.38514,-1.73724 2.66293,-1.94544 0.49038,-0.36751 0.47191,-0.47595 -0.63454,-3.72476 l -1.13963,-3.34623 h -3.35731 -3.35731 l -0.96908,2.99693 c -0.533,1.64831 -0.96478,3.10682 -0.95952,3.24114 0.008,0.19265 5.14336,4.22325 5.5055,4.32073 0.0501,0.0135 1.06215,-0.68057 2.24896,-1.54237 z m -31.59334,-1.48498 c -9.05688,-6.65653 -10.36099,-7.64206 -10.46252,-7.90664 -0.061,-0.15897 0.49705,-1.95528 1.2401,-3.99182 0.74306,-2.03653 1.81339,-4.99046 2.37853,-6.56429 0.56513,-1.57382 1.18073,-3.18117 1.36799,-3.57187 l 0.34047,-0.71037 h 19.93935 19.93936 l 0.88391,2.51354 c 0.48615,1.38245 0.88801,2.7219 0.89302,2.97656 0.009,0.4367 -1.05644,0.46302 -18.73604,0.46302 h -18.74513 l -1.10069,2.97656 c -0.60538,1.63711 -1.09975,3.10438 -1.09861,3.26059 0.002,0.33355 3.45562,2.74751 3.82729,2.67549 0.13934,-0.027 0.73466,-1.47785 1.32292,-3.2241 l 1.06957,-3.175 2.97656,-0.0748 c 2.79674,-0.0703 2.97657,-0.0437 2.97657,0.43928 0,0.28274 -1.1311,3.88166 -2.51354,7.9976 -1.38245,4.11594 -2.51355,7.51572 -2.51355,7.55506 0,0.0394 -0.21592,0.1871 -0.47983,0.32834 -0.38861,0.20798 -1.05514,-0.16603 -3.50573,-1.96714 z m 3.00626,0.49494 c -0.10088,-0.26287 -0.0618,-0.37404 0.0971,-0.27588 0.1554,0.096 0.77451,-1.34358 1.48895,-3.46232 0.67262,-1.9947 1.64645,-4.87577 2.16408,-6.40237 0.51763,-1.5266 0.88655,-2.91789 0.81983,-3.09176 -0.0667,-0.17387 0.005,-0.35833 0.16009,-0.40992 0.15477,-0.0516 -0.51886,-0.12335 -1.49697,-0.15947 -1.14638,-0.0423 -1.92789,0.0555 -2.19913,0.27515 -0.35393,0.28667 -0.38552,0.27777 -0.19887,-0.0561 0.17316,-0.30972 0.14872,-0.32932 -0.1113,-0.0893 -0.18326,0.16919 -0.35175,0.64544 -0.37442,1.05834 -0.0227,0.41289 -0.11837,0.87207 -0.21266,1.02039 -0.46168,0.72619 -1.22316,3.12687 -1.09652,3.45691 0.079,0.20595 0.0119,0.37446 -0.14919,0.37446 -0.1611,0 -0.2929,0.17859 -0.2929,0.39688 0,0.7804 -1.20988,0.37204 -3.14017,-1.05987 -1.07224,-0.79541 -2.07291,-1.36995 -2.22369,-1.27676 -0.15868,0.0981 -0.19463,0.0408 -0.0854,-0.13604 0.10383,-0.168 0.0627,-0.30546 -0.0914,-0.30546 -0.40838,0 -0.34271,-1.10868 0.13313,-2.24753 0.22733,-0.54408 0.34776,-1.16012 0.26762,-1.36897 -0.0802,-0.20885 -0.0481,-0.31942 0.0711,-0.2457 0.11927,0.0737 0.4933,-0.66425 0.83116,-1.63991 0.33787,-0.97566 0.72975,-1.92276 0.87084,-2.10466 0.20038,-0.25833 4.17373,-0.3365 18.14966,-0.3571 9.84122,-0.0145 18.19078,-0.1217 18.55458,-0.23821 0.36381,-0.11651 0.51263,-0.22371 0.33073,-0.23821 -0.1819,-0.0145 -0.3014,-0.11567 -0.26556,-0.22481 0.0659,-0.20079 -0.45577,-2.08134 -0.8808,-3.175 l -0.23135,-0.59532 h -19.19452 -19.19451 l -0.26896,0.70743 c -0.14793,0.38908 -0.20482,1.07369 -0.12642,1.52135 0.0989,0.56447 0.0758,0.65761 -0.0752,0.3039 -0.16767,-0.3928 -0.53644,0.36738 -1.60441,3.30729 -0.76268,2.09953 -1.56427,4.239 -1.7813,4.75437 -0.21704,0.51538 -0.42321,1.11069 -0.45817,1.32292 -0.035,0.21223 -0.21084,0.65376 -0.39086,0.98118 -0.2629,0.47817 -0.2604,0.59943 0.0127,0.6162 0.27349,0.0168 0.27406,0.0474 0.003,0.15647 -0.41317,0.16617 1.83012,1.93931 2.45352,1.93931 0.2356,0 0.36558,0.10159 0.28884,0.22575 -0.18516,0.29959 2.25665,2.04234 2.71453,1.9374 0.19739,-0.0452 0.27921,0.0445 0.18282,0.20041 -0.15907,0.25738 0.18832,0.40225 0.73634,0.30705 0.11995,-0.0208 0.14773,0.076 0.0617,0.21515 -0.18785,0.30393 0.90001,1.12089 1.22505,0.92 0.12542,-0.0775 0.19531,0.0168 0.15532,0.20947 -0.04,0.19272 0.13099,0.33464 0.37995,0.31538 0.24895,-0.0193 0.42755,0.0618 0.39687,0.18016 -0.0804,0.31033 1.69886,1.58434 1.97465,1.4139 0.12741,-0.0787 0.19894,-0.031 0.15895,0.10609 -0.0732,0.25084 1.08597,1.35236 1.44035,1.36877 0.10457,0.005 0.1141,-0.18932 0.0212,-0.43147 z m 40.71201,-2.13941 c -0.1309,-0.25466 -0.48079,-1.23693 -0.77754,-2.18282 -0.29674,-0.94588 -1.09743,-3.50573 -1.77931,-5.68854 -1.84756,-5.9144 -3.95851,-12.62802 -5.69869,-18.12396 -0.85241,-2.69213 -1.74349,-5.5794 -1.98019,-6.41614 l -0.43036,-1.52136 -3.48695,0.002 -3.48696,0.002 -0.82088,2.11461 -0.82089,2.11461 h 3.78814 c 4.32864,0 3.86969,-0.26572 5.01236,2.90205 0.37402,1.03687 0.64272,2.14754 0.59711,2.46815 l -0.0829,0.5828 -8.46667,0.0642 c -4.94217,0.0375 -8.62873,-0.0392 -8.85599,-0.18412 -0.43747,-0.27899 -0.33664,-0.63742 1.97571,-7.0238 0.68496,-1.89177 1.6924,-4.68974 2.23876,-6.21771 l 0.99337,-2.77812 7.97954,-0.07 7.97954,-0.07 0.2498,0.59919 c 0.71346,1.71141 11.64865,35.37066 11.64865,35.85533 0,0.41898 -0.65542,1.02601 -2.48524,2.30178 -1.36688,0.95299 -2.61285,1.73272 -2.76882,1.73272 -0.15596,0 -0.39067,-0.20836 -0.52157,-0.46302 z m 3.07128,-2.27621 c 1.05083,-0.69859 1.90877,-1.40984 1.90655,-1.58057 -0.002,-0.18326 -0.11563,-0.14784 -0.27643,0.0865 -0.22533,0.32834 -0.26138,0.3055 -0.20874,-0.13229 0.0796,-0.6618 -0.60379,-3.30729 -0.85432,-3.30729 -0.10184,0 -0.16932,-0.14883 -0.14996,-0.33073 0.0421,-0.39539 -1.69035,-5.82943 -1.91902,-6.01927 -0.0877,-0.0728 -0.17126,-0.28112 -0.18582,-0.46302 -0.0828,-1.0354 -0.12814,-1.14192 -0.41129,-0.96692 -0.18188,0.11241 -0.23393,0.073 -0.12864,-0.0973 0.19354,-0.31316 -0.98554,-4.16939 -1.44359,-4.72131 -0.15649,-0.18856 -0.20772,-0.46711 -0.11385,-0.61901 0.0939,-0.15189 0.0376,-0.27617 -0.12513,-0.27617 -0.16269,0 -0.23141,-0.10419 -0.15271,-0.23155 0.14483,-0.23434 -0.59358,-2.69954 -0.88166,-2.94345 -0.0859,-0.0728 -0.15625,-0.25135 -0.15625,-0.39687 0,-0.75938 -1.03966,-3.53289 -1.27078,-3.39005 -0.14918,0.0922 -0.18469,0.0326 -0.0808,-0.13551 0.20842,-0.33722 -0.34736,-2.47169 -0.70869,-2.72173 -0.12865,-0.089 -0.21472,-0.23985 -0.19126,-0.33514 0.1223,-0.49679 -0.33918,-1.7355 -0.58904,-1.58109 -0.15834,0.0979 -0.20785,0.0524 -0.11194,-0.10281 0.24771,-0.4008 -0.10706,-1.94096 -0.40472,-1.757 -0.13754,0.085 -0.21811,-0.006 -0.17904,-0.20273 0.12051,-0.60623 -0.60313,-3.14295 -0.8526,-2.98877 -0.12942,0.08 -0.1627,-0.0438 -0.074,-0.27504 0.0889,-0.23159 -0.0498,-0.65374 -0.30862,-0.93978 -0.44431,-0.49096 -0.85002,-0.51931 -7.43111,-0.51931 -6.60315,0 -6.97518,0.0262 -7.23409,0.51 -0.15012,0.2805 -0.1936,0.71675 -0.0966,0.96944 0.12966,0.33787 0.0834,0.40201 -0.17491,0.24238 -0.26349,-0.16284 -0.31393,-0.0744 -0.20193,0.35384 0.0821,0.31399 0.0591,0.51515 -0.0512,0.44701 -0.21975,-0.13581 -0.98731,1.96036 -0.85973,2.34787 0.0435,0.13219 -0.0267,0.31078 -0.156,0.39688 -0.12932,0.0861 -0.56753,1.10904 -0.9738,2.2732 -0.40627,1.16417 -0.84671,2.32503 -0.97877,2.57969 -0.16839,0.32473 -0.13854,0.46553 0.0999,0.47143 0.20644,0.005 0.1434,0.15728 -0.16047,0.38731 -0.27528,0.2084 -0.51341,0.72869 -0.52917,1.1562 -0.0158,0.42752 -0.1334,0.71291 -0.26142,0.6342 -0.12802,-0.0787 -0.17798,0.0212 -0.11103,0.22209 0.0669,0.20085 -0.0423,0.52926 -0.24286,0.72978 -0.20052,0.20053 -0.29419,0.43499 -0.20814,0.52104 0.19725,0.19725 15.47917,0.32362 15.47917,0.128 0,-0.44149 -0.95225,-2.7287 -1.13605,-2.7287 -0.11996,0 -0.14129,-0.12427 -0.0474,-0.27617 0.0939,-0.1519 0.0268,-0.44955 -0.14907,-0.66146 -0.25271,-0.30449 -1.11412,-0.38528 -4.1082,-0.38528 -2.08365,0 -3.85668,-0.11041 -3.94008,-0.24535 -0.0834,-0.13493 0.0925,-0.86479 0.39096,-1.62189 0.29842,-0.75711 0.47869,-1.44046 0.4006,-1.51855 -0.0781,-0.0781 -0.14199,0.0168 -0.14199,0.21079 0,0.19402 -0.07,0.28276 -0.15559,0.19719 -0.0856,-0.0856 0.10704,-0.51082 0.42803,-0.94499 0.34248,-0.46322 0.4992,-0.926 0.37929,-1.12001 -0.12729,-0.20597 -0.0964,-0.26388 0.0821,-0.15361 0.15753,0.0974 0.36254,-0.0628 0.45558,-0.35599 0.15994,-0.50392 0.39175,-0.53301 4.24735,-0.53301 h 4.07817 l 0.16555,0.65963 c 0.092,0.36667 0.28869,0.58353 0.4428,0.48829 0.16184,-0.10003 0.19854,-0.044 0.0882,0.13456 -0.17348,0.28069 0.80838,3.7042 1.14982,4.00919 0.0815,0.0728 0.15027,0.25135 0.15291,0.39687 0.0162,0.8907 0.74873,3.01704 0.98836,2.86893 0.15996,-0.0989 0.20145,-0.0467 0.0971,0.12207 -0.10015,0.16204 -0.008,0.86505 0.20492,1.56223 0.21286,0.69718 0.45849,1.5999 0.54584,2.00603 0.098,0.45586 0.27275,0.66802 0.45654,0.55443 0.1808,-0.11174 0.22418,-0.065 0.11047,0.11895 -0.10297,0.16663 0.24749,1.70307 0.77881,3.41432 1.47588,4.75344 1.71898,5.45174 2.02732,5.82326 0.15684,0.18899 0.21503,0.41375 0.1293,0.49947 -0.13817,0.13818 -0.0132,0.56835 0.75778,2.60948 0.10994,0.29104 0.17315,0.68994 0.14047,0.88645 -0.037,0.22233 0.0642,0.28089 0.26781,0.15503 0.2235,-0.13813 0.27725,-0.072 0.16955,0.2087 -0.18306,0.47705 0.68185,3.4715 0.9308,3.22256 0.0918,-0.0918 0.15213,0.0549 0.13405,0.326 -0.0504,0.75642 0.59452,2.4773 0.92844,2.4773 0.21338,0 0.21622,0.0808 0.0101,0.2869 -0.35746,0.35745 -0.14725,1.26313 0.27866,1.20062 0.17299,-0.0254 1.1743,-0.61774 2.22513,-1.31633 z"
       id="path1020" />
  </g>
</svg>
