<?xml version="1.0" encoding="UTF-8" standalone="no"?>
<!-- Created with Inkscape (http://www.inkscape.org/) -->

<svg
   width="70.133377mm"
   height="46.917862mm"
   viewBox="0 0 70.133377 46.917862"
   version="1.1"
   id="svg5"
   inkscape:version="1.1.2 (b8e25be833, 2022-02-05)"
   sodipodi:docname="RAMPATGE.svg"
   xmlns:inkscape="http://www.inkscape.org/namespaces/inkscape"
   xmlns:sodipodi="http://sodipodi.sourceforge.net/DTD/sodipodi-0.dtd"
   xmlns="http://www.w3.org/2000/svg"
   xmlns:svg="http://www.w3.org/2000/svg">
  <sodipodi:namedview
     id="namedview7"
     pagecolor="#ffffff"
     bordercolor="#666666"
     borderopacity="1.0"
     inkscape:pageshadow="2"
     inkscape:pageopacity="0.0"
     inkscape:pagecheckerboard="0"
     inkscape:document-units="mm"
     showgrid="false"
     fit-margin-top="0"
     fit-margin-left="0"
     fit-margin-right="0"
     fit-margin-bottom="0"
     inkscape:zoom="0.71090067"
     inkscape:cx="-376.98656"
     inkscape:cy="-124.48997"
     inkscape:window-width="1920"
     inkscape:window-height="991"
     inkscape:window-x="-9"
     inkscape:window-y="-9"
     inkscape:window-maximized="1"
     inkscape:current-layer="layer1" />
  <defs
     id="defs2" />
  <g
     inkscape:label="Capa 1"
     inkscape:groupmode="layer"
     id="layer1"
     transform="translate(-204.86681,-181.88469)">
    <path
       style="fill:#e51822;stroke:none;stroke-width:0.264583"
       d="m 204.86681,181.9204 c 0.3553,1.07049 1.07565,1.04599 2.11667,1.05833 l -1.5875,6.87917 h 1.05833 l 0.93115,-5.29167 0.35973,-2.2216 -2.87838,-0.42423 m 12.43542,3.43958 c 1.19972,-1.04836 0.43555,-4.07025 -1.54832,-3.27585 -1.13855,0.45592 -0.79264,2.0557 -0.81272,3.01127 -0.027,1.28473 -0.72811,2.9642 0.0272,4.15964 0.6528,1.03325 2.23589,0.90464 2.7034,-0.21968 0.47514,-1.14263 0.0838,-2.60556 -0.36951,-3.67538 m 4.02897,-3.24217 c -2.0483,0.91835 -1.8306,9.05692 1.46685,7.54348 1.67486,-0.7687 1.701,-8.96377 -1.46685,-7.54348 m 3.37936,-0.19741 v 7.9375 h 1.05833 v -3.175 h 0.26459 c 0.31308,1.35268 0.57708,2.91015 2.11666,3.175 l -1.21859,-3.96875 0.95401,-3.96875 c -1.43806,0.24953 -1.56311,1.64981 -1.85208,2.91041 h -0.26459 v -2.91041 h -1.05833 m 3.43958,0 v 0.79375 c 2.22695,0.67603 1.32292,5.2316 1.32292,7.14375 h 1.05833 v -7.14375 h 1.05834 v -0.79375 h -3.43959 m 4.82283,0.19762 c -1.69545,0.75357 -1.64412,9.20117 1.46685,7.57779 1.70021,-0.8873 1.58379,-8.93356 -1.46685,-7.57779 m 3.37926,-0.19762 v 7.9375 c 3.39169,-3.7e-4 3.02154,-1.32475 3.02154,-4.23334 0,-1.00962 0.51197,-2.44276 -0.30745,-3.27993 -0.62918,-0.64258 -1.89997,-0.42414 -2.71409,-0.42423 m 4.23333,0 v 7.9375 h 2.64583 v -1.05834 h -1.5875 v -2.64583 h 1.32292 v -0.79375 h -1.32292 v -2.38125 h 1.5875 v -1.05833 h -2.64583 m 3.43958,0 v 7.9375 h 1.05834 v -3.70417 c 1.70815,0.94192 0.27569,3.35277 2.38125,3.70417 l -0.79375,-3.96875 c 1.45362,-2.72377 0.0132,-3.96846 -2.64584,-3.96875 m 6.87917,7.40833 -0.26458,-2.38125 h -1.05834 c 0.006,1.93717 2.29923,4.86683 3.04959,1.58628 0.54742,-2.39209 -2.71568,-3.80931 -1.1975,-6.0842 l 0.26458,2.11667 c 2.09762,-0.69673 0.29025,-3.57692 -1.4515,-2.33388 -2.25108,1.60657 2.19154,4.892 0.65775,7.09638 m 2.64583,-7.40833 v 7.9375 h 1.05834 v -3.70417 c 1.83303,-0.0217 3.30173,-2.19983 1.69254,-3.8091 -0.64162,-0.64152 -1.92723,-0.42414 -2.75088,-0.42423 m 3.96875,0 v 7.9375 h 1.05834 v -3.70417 c 1.37901,0.76049 1.05833,2.30537 1.05833,3.70417 h 1.05833 c 0,-3.48211 1.22873,-7.93702 -3.175,-7.9375 m 3.43959,0 v 0.79375 c 2.22699,0.67603 1.32291,5.2316 1.32291,7.14375 h 1.05834 v -7.14375 h 1.05833 v -0.79375 h -3.43958 m 3.96875,0 v 7.9375 h 0.79375 c 0,-0.87509 -0.19632,-2.05269 0.15954,-2.87124 0.34158,-0.78483 1.22211,-0.65148 1.68513,-1.25595 1.84547,-2.40905 -0.66966,-3.8101 -2.63842,-3.81031 m 3.96875,0 v 7.9375 h 2.64583 v -1.05834 l -1.5875,0.26459 v -7.14375 h -1.05833 m 4.7625,7.40833 -0.79375,-2.38125 h -0.79375 c 5.3e-4,0.81439 -0.14896,1.89307 0.42412,2.56069 0.91335,1.06357 2.27701,0.17611 2.44608,-0.97726 0.33946,-2.31535 -1.99311,-3.75643 -1.54729,-6.08135 h 0.52917 l 0.26458,2.11667 h 0.79375 c -0.002,-0.67276 0.13679,-1.65572 -0.31194,-2.2216 -0.81148,-1.02319 -2.36538,-0.16321 -2.53391,0.90379 -0.36989,2.33923 2.22355,3.59706 1.52294,6.08031 m -56.88542,-3.96875 c -1.24349,-0.41272 -1.05743,-1.49603 -1.05833,-2.64583 1.47187,0.25558 1.34945,1.40827 1.05833,2.64583 m 5.55625,-2.64583 c 0.44551,1.5072 0.99158,5.75744 -0.79375,6.35 l 0.26458,-6.35 h 0.52917 m 10.84792,6.35 v -6.35 c 1.69518,0.56258 1.69518,5.78741 0,6.35 m 4.23333,-3.70417 v -2.64583 c 1.32054,0.53086 1.41076,2.17757 0,2.64583 m 8.46667,-2.64583 c 0.33046,1.12109 0.46963,2.22649 -0.79375,2.64583 l 0.26458,-2.64583 h 0.52917 m 9.525,0 0.26458,2.64583 h -1.05833 l 0.26458,-2.64583 h 0.52917 m 3.96875,0 c 0.33046,1.12109 0.46963,2.22649 -0.79375,2.64583 l 0.26458,-2.64583 h 0.52917 m 6.61458,0 c 2.49555,1.37607 -0.92313,3.88956 0,0 m -55.03333,1.5875 v 1.85208 h -1.85209 v 0.79375 h 1.85209 v 1.85208 h 0.79375 c 0.0987,-1.29423 0.55784,-1.75334 1.85208,-1.85208 v -0.79375 c -1.28558,-0.0981 -1.80403,-0.53689 -1.5875,-1.85208 h -1.05833 m 4.7625,1.85208 c 2.84387,0.47461 0.0665,4.64976 0.001,1.32842 l -0.001,-1.32842 m 22.75416,0 c 0,1.13218 0.19474,2.19758 -0.79375,2.91042 l -0.26458,-2.91042 h 1.05833 m 21.43125,10.84792 h 3.175 c -0.0167,-3.06835 1.58512,-3.0851 1.5875,0 h 3.175 c -0.0267,-1.4999 0.26829,-3.72875 -0.685,-4.99176 -1.22608,-1.6247 -5.56445,-1.67212 -6.7609,0.0212 -0.89667,1.26883 -0.4916,3.49789 -0.4916,4.97054 m -54.76875,-5.82084 v 5.82084 h 3.175 c -0.018,-3.24506 1.60483,-3.17736 1.5875,0 h 3.175 c -0.008,-1.47804 0.40937,-4.00638 -0.67839,-5.17695 -1.31085,-1.41057 -5.47357,-0.64389 -7.25911,-0.64389 m 8.46667,0 v 2.64584 c 2.36212,0.0279 2.39268,1.12217 2.38125,3.175 h 2.64583 v -2.91042 l 0.52917,2.91042 h 2.64583 c 2.2e-4,-2.03745 0.0879,-3.14791 2.38125,-3.175 v -2.64584 h -10.58333 m 11.1125,0 v 5.82084 h 5.82083 l -1.25452,-5.5489 -4.56631,-0.27194 m 10.31875,0 -0.79375,5.82084 h 5.55625 v -5.82084 h -4.7625 m 5.55625,0 v 5.82084 h 3.175 v -3.175 c 1.68487,0.58385 1.59623,1.59475 1.5875,3.175 h 3.175 v -3.175 l 2.64583,0.26458 -0.26458,2.91042 h 2.91042 v -3.175 h 0.26458 v 3.175 h 2.91042 v -3.175 h 2.38125 v -2.64584 h -10.58334 v 1.85209 h -0.52916 c -0.45641,-2.88655 -5.47714,-1.85209 -7.67292,-1.85209 m 27.78125,0 v 5.82084 h 3.175 v -3.175 h 3.43958 v -2.64584 h -6.61458 m -63.23542,6.08542 v 1.85208 h 3.175 v -1.85208 h -3.175 m 4.7625,0 v 1.85208 h 3.175 v -1.85208 h -3.175 m 6.08542,0 -0.26458,1.85208 h 2.91041 v -1.85208 h -2.64583 m 3.175,0 v 1.85208 h 2.91042 c -0.0649,-1.97715 -1.22026,-1.85189 -2.91042,-1.85208 m 5.55625,0 v 1.85208 l 2.64583,-0.52916 3.43959,0.52916 -0.26459,-1.85208 h -5.82083 m 9.26042,1.85208 3.175,-0.52916 h 0.26458 l 2.38125,0.52916 v -1.85208 c -2.07804,0 -5.66711,-0.92202 -5.82083,1.85208 m 6.61458,-1.85208 v 1.85208 h 3.175 v -1.85208 h -3.175 m 4.7625,0 v 1.85208 h 3.175 v -1.85208 h -3.175 m 5.55625,0 v 1.85208 h 2.91042 v -1.85208 h -2.91042 m 3.175,1.85208 h 2.91042 v -1.85208 c -1.69016,1.9e-4 -2.8456,-0.12507 -2.91042,1.85208 m 5.82083,-1.85208 v 1.85208 h 3.175 v -1.85208 h -3.175 m 4.7625,0 v 1.85208 h 3.175 c -0.0688,-2.09171 -1.43615,-1.85208 -3.175,-1.85208 m 3.70417,0 v 1.85208 h 3.175 v -1.85208 h -3.175 m -63.23542,2.11667 v 4.23333 h 3.175 v -4.23333 h -3.175 m 4.7625,0 v 4.23333 c 3.37863,0 3.175,-1.15909 3.175,-4.23333 h -3.175 m 5.82084,4.23333 c 3.21474,-3.4e-4 2.90449,-1.40893 2.91041,-4.23333 -3.21632,3.4e-4 -2.8947,1.38562 -2.91041,4.23333 m 3.43958,-4.23333 c 0.0145,2.62202 -0.21201,4.9699 3.175,3.96875 l -0.26458,-3.96875 h -2.91042 m 5.55625,0 v 4.23333 h 2.91042 c -0.0538,-2.60535 -0.0162,-4.23108 -2.91042,-4.23333 m 2.91042,0 0.52916,4.23333 h 3.175 l -0.52916,-4.23333 h -3.175 m 5.55625,3.96875 3.175,0.26458 0.52916,-4.23333 c -3.3266,0 -2.95592,1.07696 -3.70416,3.96875 m 4.23333,-3.96875 -0.52917,4.23333 h 2.91042 v -4.23333 h -2.38125 m 3.175,0 v 4.23333 h 3.175 v -4.23333 h -3.175 m 4.7625,0 v 4.23333 c 3.36841,0 3.15807,-1.16184 3.175,-4.23333 h -3.175 m 5.55625,0 -0.26458,4.23333 c 3.33295,0 3.15806,-1.18541 3.175,-4.23333 h -2.91042 m 3.43958,0 v 4.23333 h 2.91042 c -0.0156,-2.84771 0.30586,-4.23299 -2.91042,-4.23333 m 5.55625,0 v 4.23333 h 3.175 v -4.23333 h -3.175 m 4.7625,0 v 1.85208 h 3.175 c -0.0688,-2.09172 -1.43615,-1.85208 -3.175,-1.85208 m 6.87917,4.23333 v -4.23333 c -0.77285,0 -2.10529,-0.24173 -2.75061,0.27194 -0.66437,0.52898 -0.66437,3.16047 0,3.68945 0.64532,0.51366 1.97776,0.27194 2.75061,0.27194 m -66.41042,0.26458 v 6.08542 h 3.175 c -0.007,-1.57427 -0.0301,-2.67996 1.85209,-2.11667 l -0.26459,2.11667 h 3.175 c -0.017,-2.03147 -0.44656,-3.56925 -2.64583,-3.96875 v -0.26458 l 2.38125,-1.85209 -4.23333,0.79375 c -0.79021,-1.09569 -2.20105,-0.79375 -3.43959,-0.79375 m 10.31875,0 -0.26458,6.08542 h 2.91042 l 0.52916,-6.08542 h -3.175 m 3.96875,0 0.26459,6.08542 h 3.175 l -0.52917,-6.08542 h -2.91042 m 5.29167,0 v 6.08542 h 3.175 l -0.26458,-6.08542 h -2.91042 m 3.43958,0 c 0.86379,3.33878 -0.17007,6.08542 3.96875,6.08542 -0.0106,-1.27556 0.11827,-4.97123 -0.95329,-5.81348 -0.69686,-0.54782 -2.18054,-0.27194 -3.01546,-0.27194 m 5.02709,0 -0.52917,6.08542 c 3.75576,-5.3e-4 3.10065,-2.97336 3.70417,-6.08542 h -3.175 m 3.70416,0 -0.26458,6.08542 h 3.175 v -6.08542 h -2.91042 m 3.70417,0 v 6.08542 c 1.67825,0 5.98514,0.76994 7.25831,-0.42413 1.19301,-1.11892 0.66093,-4.19086 0.67919,-5.66129 h -3.175 c 0.009,1.61441 0.25665,2.82459 -1.32292,3.70417 l -0.26458,-3.70417 h -3.175 m 10.05417,0 -0.52917,6.08542 h 3.175 l 0.26458,-6.08542 h -2.91041 m 3.70416,0 0.52917,6.08542 h 2.91042 c -0.0696,-3.36561 0.42042,-6.08542 -3.43959,-6.08542 m 5.55625,0 v 6.08542 h 3.175 v -6.08542 h -3.175 m 8.46667,0 v 6.08542 h 3.175 v -3.175 l 3.43958,-0.26458 v -2.64584 h -6.61458 m -4.49792,3.175 v 2.64584 l 3.96875,0.26458 v -2.91042 h -3.96875 m -58.7375,3.175 v 1.85209 h 3.175 v -1.85209 h -3.175 m 4.7625,0 v 1.85209 h 3.175 v -1.85209 h -3.175 m 5.02709,1.85209 h 3.175 v -1.85209 c -1.73887,0 -3.10632,-0.23971 -3.175,1.85209 m 4.7625,-1.85209 c 0.11488,2.07354 1.43875,1.85209 3.175,1.85209 v -1.85209 h -3.175 m 5.02708,0 v 1.85209 h 3.175 v -1.85209 h -3.175 m 4.49792,0 c 0.10845,1.95766 1.226,1.85182 2.91041,1.85209 v -1.85209 h -2.91041 m 3.43958,0 v 1.85209 h 2.38125 l 0.26458,-1.85209 h -2.64583 m 3.96875,0 v 1.85209 h 3.175 v -1.85209 h -3.175 m 3.96875,0 v 1.85209 h 3.175 v -1.85209 h -3.175 m 9.525,0 -0.26458,1.85209 h 3.175 l 0.26458,-1.85209 h -3.175 m 4.7625,0 v 1.85209 h 3.175 l -0.26458,-1.85209 h -2.91042 m 5.02708,0 v 1.85209 h 3.175 v -1.85209 h -3.175 m 4.7625,0 v 1.85209 h 3.175 c -0.0688,-2.0918 -1.43615,-1.85209 -3.175,-1.85209 m 3.70417,0 v 1.85209 h 3.175 v -1.85209 h -3.175 m -63.23542,2.11667 v 2.11667 h 3.175 v -2.11667 h -3.175 m 4.7625,0 v 2.11667 h 3.175 v -2.11667 h -3.175 m 4.49792,4.23333 h 3.175 v -1.85208 h -2.64583 v -0.26458 c 1.89587,-2.7e-4 2.88512,0.0172 2.91041,-2.11667 -3.16915,0 -3.37687,1.19486 -3.43958,4.23333 m 5.55625,-4.23333 c 0.0253,2.13387 1.01454,2.1164 2.91042,2.11667 v 0.26458 h -2.64584 c 0.0687,2.0918 1.43614,1.85208 3.175,1.85208 -0.0254,-3.06652 -0.24669,-4.23333 -3.43958,-4.23333 m 4.7625,0 v 2.11667 h 3.175 v -2.11667 h -3.175 m 4.7625,0 0.26458,2.11667 h 5.02709 l 0.26458,-2.11667 h -2.38125 l -0.26458,1.85208 h -0.26459 v -1.85208 h -2.64583 m 7.14375,0 v 2.11667 h 2.91042 v 0.26458 h -2.91042 v 1.85208 h 3.175 v -4.23333 h -3.175 m 3.96875,0 v 2.11667 h 3.175 v -2.11667 h -3.175 m 9.26042,0 -0.26459,1.85208 2.91042,0.26459 v 0.26458 h -2.91042 l -0.26458,1.85208 h 3.175 l 0.52917,-4.23333 h -3.175 m 5.29166,0 0.26459,4.23333 h 3.175 l -0.26459,-1.85208 h -2.64583 v -0.26458 l 2.64583,-0.26459 -0.26458,-1.85208 h -2.91042 m 4.7625,0 v 4.23333 h 3.175 v -1.85208 h -2.91041 v -0.26458 h 2.91041 v -2.11667 h -3.175 m 4.7625,0 v 2.11667 h 2.64584 v 0.26458 h -2.64584 v 1.85208 c 0.77285,0 2.10529,0.24183 2.75061,-0.27199 0.66437,-0.5289 0.66437,-3.16045 0,-3.68935 -0.64532,-0.51382 -1.97776,-0.27199 -2.75061,-0.27199 m 6.61459,2.11667 v 0.26458 h -2.91042 c 0.0688,2.0918 1.43616,1.85208 3.175,1.85208 v -4.23333 c -3.41233,0 -3.94944,2.11614 -0.26458,2.11667 m -66.14584,0.26458 v 1.85208 h 3.175 v -1.85208 h -3.175 m 4.7625,0 v 1.85208 h 3.175 v -1.85208 h -3.175 m 14.81667,0 v 1.85208 h 3.175 v -1.85208 h -3.175 m 5.02708,0 0.26459,1.85208 h 4.49791 l 0.26459,-1.85208 h -5.02709 m 10.84792,0 v 1.85208 h 3.175 v -1.85208 h -3.175 m -35.45417,2.11667 v 4.7625 h 3.175 v -4.7625 h -3.175 m 4.7625,0 0.26459,4.7625 h 3.175 l -0.26459,-4.7625 h -3.175 m 3.70417,4.7625 h 3.175 l 0.79375,-4.7625 c -3.81873,0 -3.34732,1.41711 -3.96875,4.7625 m 6.87917,-4.7625 0.52916,4.7625 h 3.175 l -0.52916,-4.7625 h -3.175 m 4.23333,0 v 4.7625 h 3.175 v -4.7625 h -3.175 m 5.29167,0 0.79375,4.7625 h 2.91041 l 0.79375,-4.7625 h -4.49791 m 6.61458,0 v 4.7625 h 3.175 v -4.7625 h -3.175 m 3.96875,0 v 4.7625 h 3.175 v -4.7625 h -3.175 m 8.73125,0 -0.52917,4.7625 h 3.175 l 0.52917,-4.7625 h -3.175 m 6.08542,0 0.52916,4.7625 h 3.43959 l -0.79375,-4.7625 h -3.175 m 4.49791,0 c 0,1.2364 -0.33628,3.0816 0.34872,4.17301 1.21815,1.94071 4.20344,0.558 5.47212,-0.46885 l 1.85208,1.05834 0.26458,-4.7625 h -3.175 c -0.0669,1.2184 -0.31591,1.90923 -1.5875,2.11666 v -2.11666 h -3.175 m 8.46667,0 v 4.7625 h 6.61458 v -2.64584 h -3.43958 v -2.11666 h -3.175 m -61.11854,6.01371 c -2.13281,0.12145 -3.04824,3.82323 -1.42929,5.17499 0.77402,0.64611 2.83148,-1.14962 4.07102,-0.8935 0.84646,0.17489 1.50546,1.12421 2.35636,1.11707 1.13186,-0.009 1.173,-3.97642 0.59531,-4.66169 -0.95446,-1.13216 -4.23725,-0.81386 -5.5934,-0.73687 m 20.37271,5.62795 c 0.80962,-0.0669 2.08946,0.10875 2.62522,-0.64002 0.59634,-0.83344 0.65376,-4.37621 -0.51898,-4.71726 -1.56144,-0.45429 -0.52295,2.58313 -1.76469,2.58313 -1.20251,0 -2.24015,-2.28706 -3.51655,-2.67679 -2.72312,-0.83106 -3.98997,3.54991 -2.22282,4.95459 1.43642,1.14194 1.26561,-2.05767 2.03846,-2.27066 1.01031,-0.2786 2.74177,2.08016 3.35936,2.76701 m 10.58333,-0.52916 v -0.26459 l -4.23333,-0.79375 v -0.26458 l 3.96875,-1.05833 c -1.41473,-0.41804 -3.12844,0.11536 -3.96875,-1.32292 1.44674,-2.6e-4 3.30941,0.23733 4.23333,-1.05833 -1.41287,-0.36169 -4.76938,-0.90064 -5.96953,0.15954 -0.86307,0.76227 -0.95964,4.1619 0.0357,4.86013 1.35149,0.94827 4.59581,0.43339 5.93381,-0.25717 m 19.31458,0.52916 c -0.31617,-2.20768 -2.55746,-6.46218 -5.28664,-5.66922 -1.12051,0.3257 -4.16004,4.05156 -3.40862,5.24483 0.32464,0.51568 1.08717,0.35031 1.55178,0.18653 2.97497,-1.0488 4.35504,0.45297 7.14348,0.23786 m 17.4625,-0.52916 v -0.26459 l -4.23333,-0.79375 v -0.26458 c 1.32662,-0.10477 3.49171,0.1143 3.96875,-1.32292 l -3.96875,-0.26458 v -0.52917 l 4.23333,-0.79375 v -0.52916 c -1.28217,-0.42334 -4.83526,-0.86413 -5.90894,0.15954 -0.8292,0.79111 -0.82417,4.19524 0.17225,4.86013 1.32477,0.88424 4.47251,0.49213 5.73669,-0.25717 m -54.23958,0.26458 c -0.79137,-1.4351 -2.52129,-1.05833 -3.96875,-1.05833 l 3.70417,-1.85209 c -1.43397,0 -3.15312,0.33788 -3.96875,-1.05833 l 4.23333,-0.52917 v -0.52916 c -1.30866,-0.38682 -4.51324,-0.78529 -5.7155,0.007 -1.05093,0.69294 -1.07233,4.31085 -0.0212,5.01226 1.35945,0.90726 4.24693,0.28496 5.73672,0.007 m 23.01875,0 c 2.27568,2.17885 4.48786,-2.32066 3.16124,-4.44791 -0.60298,-0.96652 -1.91267,-0.84217 -2.89666,-0.84376 -1.34355,-0.002 -3.33084,-0.35851 -4.38308,0.68078 -2.78977,2.75537 1.53855,5.35225 4.1185,4.61089 m 15.69429,-5.09534 c -1.18824,0.60192 -1.16602,4.3135 -0.18891,5.0882 1.02949,0.8165 6.07959,0.66622 7.21995,0.1098 1.52532,-0.74427 1.50918,-3.93488 0.2196,-4.90273 -1.19539,-0.8972 -5.92349,-0.96758 -7.25064,-0.29527 m -48.23804,1.65576 v 0.26458 l -3.70417,0.52917 c 0.5225,-1.61237 2.4139,-1.40706 3.70417,-0.79375 m 33.86667,0.52916 -1.85209,0.79375 1.32292,0.26459 v 0.79375 c -0.52387,-0.001 -1.06442,0.0257 -1.58459,-0.05 -4.92495,-0.71675 2.17302,-5.16519 2.11376,-1.80208 m 16.687,-0.90249 c 1.70154,-0.65008 5.38586,1.44277 2.83184,2.59503 -2.02618,0.91388 -5.62795,-1.52691 -2.83184,-2.59503 m -9.54325,1.43166 c 0.95938,-1.68619 1.93357,0.6559 0,0 z"
       id="path876" />
  </g>
</svg>
