<?xml version="1.0" encoding="UTF-8" standalone="no"?>
<svg
   version="1.0"
   width="151.70967pt"
   height="173.2pt"
   viewBox="0 0 151.70967 173.2"
   preserveAspectRatio="xMidYMid meet"
   id="svg18"
   sodipodi:docname="tomorrowland_bo.svg"
   inkscape:version="1.1.2 (b8e25be833, 2022-02-05)"
   xmlns:inkscape="http://www.inkscape.org/namespaces/inkscape"
   xmlns:sodipodi="http://sodipodi.sourceforge.net/DTD/sodipodi-0.dtd"
   xmlns="http://www.w3.org/2000/svg"
   xmlns:svg="http://www.w3.org/2000/svg">
  <defs
     id="defs22" />
  <sodipodi:namedview
     id="namedview20"
     pagecolor="#ffffff"
     bordercolor="#666666"
     borderopacity="1.0"
     inkscape:pageshadow="2"
     inkscape:pageopacity="0.0"
     inkscape:pagecheckerboard="0"
     inkscape:document-units="pt"
     showgrid="false"
     fit-margin-top="0"
     fit-margin-left="0"
     fit-margin-right="0"
     fit-margin-bottom="0"
     inkscape:zoom="2.66"
     inkscape:cx="101.50376"
     inkscape:cy="115.6015"
     inkscape:window-width="1920"
     inkscape:window-height="991"
     inkscape:window-x="-9"
     inkscape:window-y="-9"
     inkscape:window-maximized="1"
     inkscape:current-layer="g16" />
  <g
     transform="matrix(0.1,0,0,-0.1,-36.240335,199)"
     fill="#000000"
     stroke="none"
     id="g16">
    <path
       d="m 1045,1926 c -93,-98 -211,-144 -297,-115 -45,14 -71,5 -76,-27 -9,-66 -42,-124 -42,-76 0,25 -19,42 -47,42 -16,0 -40,-21 -83,-76 -114,-144 -155,-260 -131,-376 15,-72 15,-74 6,-183 -30,-333 221,-650 644,-816 l 104,-41 71,28 c 346,134 596,372 661,629 16,64 20,261 6,284 -5,8 -3,31 6,58 10,29 14,70 12,122 -4,67 -10,89 -46,162 -50,101 -142,209 -179,209 -18,0 -28,-8 -38,-30 l -12,-31 -12,26 c -7,14 -12,36 -12,49 0,41 -22,60 -61,51 -129,-29 -244,18 -352,143 -15,18 -35,32 -45,32 -9,-1 -44,-29 -77,-64 z m 145,-19 c 97,-94 215,-140 297,-118 56,16 60,14 68,-26 9,-49 43,-115 55,-108 5,3 13,20 18,38 5,18 16,33 25,35 34,7 165,-171 192,-262 19,-64 19,-152 0,-207 -13,-35 -13,-48 -4,-66 8,-14 10,-60 7,-140 -8,-191 -61,-305 -213,-459 -123,-123 -314,-244 -462,-291 -65,-20 -93,-13 -251,64 -356,173 -547,443 -530,745 3,44 10,83 16,87 7,4 5,23 -8,61 -11,30 -19,74 -20,96 0,94 62,228 157,333 44,50 67,51 78,2 4,-17 10,-33 15,-36 13,-8 42,40 56,93 10,41 15,47 35,44 13,-2 51,-4 85,-5 82,-2 175,43 253,124 31,32 58,59 61,59 3,0 35,-28 70,-63 z"
       id="path2" />
    <path
       d="m 1062,1879 c -33,-31 -86,-69 -118,-85 -51,-25 -70,-29 -146,-29 -74,0 -88,-3 -88,-16 0,-8 -11,-38 -25,-65 -24,-48 -24,-49 -6,-68 19,-18 20,-18 65,13 222,153 512,160 730,16 38,-25 72,-45 76,-45 4,0 13,7 20,15 11,13 9,23 -8,59 -12,24 -25,57 -28,74 -6,28 -9,30 -27,21 -11,-6 -47,-9 -81,-7 -84,5 -181,52 -250,121 l -53,53 z"
       id="path4" />
    <path
       d="m 1005,1693 c -54,-19 -155,-107 -155,-136 0,-25 37,-62 135,-135 68,-51 95,-78 114,-115 l 24,-49 19,38 c 23,48 60,87 118,126 55,38 140,118 140,133 0,25 -74,95 -127,121 -72,36 -192,43 -268,17 z m 231,-48 c 28,-14 63,-38 79,-55 l 29,-30 -30,-31 c -16,-16 -57,-44 -91,-61 -52,-25 -71,-30 -111,-26 -58,6 -122,35 -176,81 l -39,33 35,35 c 82,82 204,104 304,54 z"
       id="path6" />
    <path
       d="m 1057,1630 c -34,-27 -44,-78 -23,-118 32,-61 108,-72 157,-23 38,39 39,87 3,130 -21,26 -33,31 -69,31 -27,0 -51,-7 -68,-20 z m 72,-37 c 12,-23 -4,-53 -29,-53 -25,0 -41,29 -29,52 12,23 45,23 58,1 z"
       id="path8" />
    <path
       d="m 533,1647 c -24,-28 -60,-83 -80,-122 -36,-66 -38,-75 -38,-160 0,-110 15,-146 95,-226 61,-62 115,-96 226,-144 l 74,-32 -57,-29 c -73,-37 -96,-68 -95,-128 2,-98 83,-188 227,-251 l 55,-25 39,35 c 85,77 125,234 119,470 -3,136 -6,155 -29,205 -36,76 -53,92 -220,202 -146,97 -243,185 -255,234 -3,13 -9,24 -13,24 -3,0 -25,-24 -48,-53 z"
       id="path10" />
    <path
       d="m 1646,1666 c -24,-57 -105,-129 -258,-230 -79,-51 -153,-104 -165,-117 -60,-65 -89,-203 -79,-375 10,-182 59,-331 128,-389 32,-27 39,-26 133,21 76,39 130,88 159,146 49,98 26,167 -71,214 -53,27 -55,28 -32,38 258,105 379,229 379,388 0,83 -80,248 -154,317 l -25,23 z"
       id="path12" />
    <path
       d="m 420,1083 c 0,-123 19,-204 71,-304 91,-174 283,-331 529,-432 111,-45 108,-46 268,32 143,70 244,141 337,235 90,92 135,162 171,266 26,75 42,216 30,266 l -7,28 -24,-30 c -15,-18 -24,-43 -25,-64 -1,-71 -31,-177 -74,-266 C 1539,497 1152,370 831,531 638,628 507,814 480,1035 c -9,69 -16,95 -35,117 l -25,30 z"
       id="path14" />
  </g>
</svg>
