<?xml version="1.0" encoding="UTF-8" standalone="no"?>
<!-- Created with Inkscape (http://www.inkscape.org/) -->

<svg
   width="263.76874mm"
   height="263.02438mm"
   viewBox="0 0 263.76874 263.02438"
   version="1.1"
   id="svg125"
   inkscape:version="1.1.2 (b8e25be833, 2022-02-05)"
   sodipodi:docname="WORLD CLUB DOME.svg"
   xmlns:inkscape="http://www.inkscape.org/namespaces/inkscape"
   xmlns:sodipodi="http://sodipodi.sourceforge.net/DTD/sodipodi-0.dtd"
   xmlns="http://www.w3.org/2000/svg"
   xmlns:svg="http://www.w3.org/2000/svg">
  <sodipodi:namedview
     id="namedview127"
     pagecolor="#ffffff"
     bordercolor="#666666"
     borderopacity="1.0"
     inkscape:pageshadow="2"
     inkscape:pageopacity="0.0"
     inkscape:pagecheckerboard="0"
     inkscape:document-units="mm"
     showgrid="false"
     fit-margin-top="0"
     fit-margin-left="0"
     fit-margin-right="0"
     fit-margin-bottom="0"
     inkscape:zoom="0.35545034"
     inkscape:cx="542.97318"
     inkscape:cy="558.4465"
     inkscape:window-width="1920"
     inkscape:window-height="991"
     inkscape:window-x="-9"
     inkscape:window-y="-9"
     inkscape:window-maximized="1"
     inkscape:current-layer="layer1" />
  <defs
     id="defs122" />
  <g
     inkscape:label="Capa 1"
     inkscape:groupmode="layer"
     id="layer1"
     transform="translate(88.506874,-73.01944)">
    <rect
       style="fill:#c8beb7;stroke:#000000;stroke-width:0.264999"
       id="rect882"
       width="263.50375"
       height="262.7594"
       x="-88.374374"
       y="73.151939" />
    <path
       style="fill:#000000;stroke-width:0.264583"
       d="m 6.4628796,286.03966 c -11.14831,-2.44202 -17.3419356,-13.34899 -14.7004949,-25.88754 2.0798049,-9.87254 10.5169849,-15.98437 21.1631053,-15.33037 3.26306,0.20045 5.19859,0.69425 7.95718,2.03008 3.82506,1.85226 6.51069,4.53057 8.48235,8.45924 1.63965,3.26711 2.06074,5.35489 2.08216,10.32349 0.0163,3.79031 -0.0604,4.63901 -0.58226,6.44012 -2.06578,7.1296 -6.85136,11.96126 -13.68642,13.8182 -2.48779,0.67588 -7.9580904,0.75081 -10.7156204,0.14678 z m 8.9567304,-0.5876 c 3.66632,-0.57425 7.13638,-2.36982 9.7753,-5.0582 1.95576,-1.99241 2.77817,-3.16004 3.75533,-5.33165 4.05199,-9.00508 1.75244,-20.03823 -5.34883,-25.66338 -1.71189,-1.35605 -5.20487,-2.93371 -7.71278,-3.4836 -2.86245,-0.62762 -7.9817104,-0.43214 -10.6163804,0.40541 -6.49131,2.06354 -10.8348,6.67035 -12.736258,13.50839 -0.7467729,2.68555 -0.6813469,9.2186 0.120259,12.00826 2.255779,7.85035 8.435339,13.04731 16.524729,13.89716 2.0251704,0.21276 3.5050304,0.14578 6.2386304,-0.28239 z m -6.3420504,-9.07028 c -3.61417,-1.29153 -5.4248,-4.36931 -5.69987,-9.68889 -0.24423,-4.72302 0.74951,-7.9761 3.11136,-10.18533 2.23659,-2.09207 5.5457804,-2.53142 8.3380204,-1.107 3.20294,1.63393 4.60349,4.81613 4.59725,10.44546 -0.005,4.26035 -0.81098,6.71327 -2.88992,8.79221 -1.90914,1.90915 -4.9825,2.62775 -7.4568404,1.74355 z m 4.9686604,-0.94003 c 2.52248,-1.14532 4.00386,-3.54847 4.61484,-7.48638 0.50825,-3.27573 -0.20942,-7.40934 -1.65599,-9.53817 -2.57811,-3.79403 -7.7001804,-4.12324 -10.6439404,-0.68412 -1.72888,2.01981 -2.13281,3.51628 -2.13281,7.90148 0,3.40027 0.0707,4.01695 0.6218,5.42396 0.72627,1.85418 2.81916,4.08752 4.26061,4.54653 1.4752804,0.46978 3.7035904,0.39605 4.9354904,-0.1633 z m -49.683326,9.99818 c -0.382223,-0.32007 -2.886525,-9.24454 -9.428753,-33.60077 -0.806776,-3.00357 -1.389436,-5.66281 -1.2948,-5.90943 0.158973,-0.41427 1.012661,-0.43917 11.218112,-0.32716 12.11262,0.13294 13.135502,0.24441 16.453268,1.79301 2.465832,1.15095 4.107969,2.49924 5.716456,4.69353 2.561317,3.49415 3.8252818,7.96989 3.8252818,13.54545 0,10.62093 -4.7792668,17.26809 -13.8906248,19.31954 -3.119867,0.70245 -11.934379,1.04235 -12.59894,0.48583 z m 12.714705,-1.27742 c 5.221222,-1.29098 8.870998,-4.09344 11.016936,-8.45929 2.9203408,-5.94136 2.7657338,-15.02455 -0.358201,-21.04455 -1.307116,-2.51888 -4.124412,-5.34232 -6.408875,-6.42283 -3.56847,-1.68784 -3.834379,-1.71861 -15.941147,-1.84523 -8.099147,-0.0847 -11.046354,-0.0358 -11.046354,0.18327 0,0.16433 2.321719,8.81484 5.159375,19.22334 2.837656,10.40851 5.159375,18.9931 5.159375,19.07688 0,0.0838 2.291953,0.0822 5.09323,-0.004 3.860882,-0.11823 5.633384,-0.28952 7.325661,-0.70795 z m -12.29836,-9.07049 c -0.07009,-0.18266 -0.09612,-4.55821 -0.05784,-9.72343 l 0.0696,-9.39132 3.042708,-0.0813 c 4.869479,-0.13004 7.403899,0.83209 9.191806,3.48947 1.179081,1.75249 1.65668,3.55282 1.652971,6.23095 -0.0037,2.67052 -0.478497,4.66134 -1.512494,6.34185 -0.820467,1.33347 -2.736453,2.76999 -4.258286,3.19268 -1.458,0.40495 -7.96857,0.35775 -8.128465,-0.0589 z m 7.346786,-0.56166 c 1.65431,-0.38931 3.514773,-1.64298 4.362776,-2.93985 2.669572,-4.08262 1.76172,-11.04499 -1.758278,-13.48435 -1.48912,-1.03196 -3.21891,-1.47672 -6.433794,-1.65424 l -2.844271,-0.15705 v 9.30005 9.30005 l 2.579688,-0.004 c 1.418828,-0.002 3.261074,-0.16449 4.093879,-0.36048 z m 60.182755,11.04107 c -0.0997,-0.0997 -0.18132,-9.07842 -0.18132,-19.95266 0,-16.0591 0.0651,-19.79633 0.34671,-19.90439 0.51416,-0.1973 16.16132,-0.23858 16.9339,-0.0447 0.62924,0.15793 0.75244,0.53694 2.43339,7.48591 2.87909,11.90204 3.49297,14.22035 3.65469,13.80185 0.0844,-0.21828 0.7087,-2.71859 1.38744,-5.55625 2.88959,-12.08065 3.76675,-15.41515 4.11362,-15.6378 0.58988,-0.37864 17.07866,-0.27741 17.34453,0.10647 0.12105,0.17479 0.16056,9.18795 0.0878,20.02925 l -0.13229,19.71146 H 72.47642 66.65558 L 66.52329,274.16425 66.391,262.71793 63.37767,273.89967 c -1.65733,6.14995 -3.13042,11.33056 -3.27354,11.51246 -0.28891,0.3672 -8.80675,0.48387 -9.36302,0.12824 -0.16723,-0.10691 -0.90883,-2.45657 -1.64799,-5.22147 -0.73917,-2.76489 -2.11043,-7.82505 -3.04725,-11.24479 l -1.70332,-6.21771 -0.0883,11.37709 -0.0883,11.37708 -5.83795,0.0711 c -3.21087,0.0391 -5.91955,-0.0105 -6.01927,-0.11025 z m 11.19576,-13.05771 c 0,-16.37902 -0.1289,-16.33803 3.94186,-1.25348 1.6587,6.14645 3.18136,11.74091 3.38369,12.43213 l 0.36787,1.25677 h 4.22308 c 2.3227,0 4.22309,-0.0509 4.22309,-0.1132 0,-0.0623 0.30262,-1.22312 0.6725,-2.57969 0.36987,-1.35657 1.49202,-5.50258 2.49365,-9.21336 3.32435,-12.31578 3.51894,-12.96458 3.8884,-12.96458 0.2903,0 0.35378,2.23142 0.35378,12.43541 v 12.43542 h 5.42396 5.42396 v -19.31458 -19.31459 h -8.29932 -8.29931 l -1.48936,6.15157 c -0.81915,3.38336 -2.0645,8.53281 -2.76745,11.44323 -0.91805,3.80103 -1.38413,5.29166 -1.65455,5.29166 -0.42501,0 -0.31682,0.39369 -3.63546,-13.22916 l -2.32038,-9.52501 -8.25667,-0.0699 -8.25667,-0.0699 v 19.31835 19.31835 h 5.29167 5.29166 z m 36.31237,13.01002 c -0.26301,-0.16698 -0.31826,-4.35151 -0.26458,-20.03814 l 0.0678,-19.82709 h 16.40417 16.40416 l 0.0716,5.35467 0.0716,5.35466 -10.12578,0.0693 -10.12578,0.0693 v 1.98438 1.98437 l 9.19427,0.0696 9.19427,0.0696 v 5.02366 5.02365 h -9.27154 -9.27155 l 0.0773,2.05052 0.0773,2.05052 10.51719,0.0692 10.51718,0.0692 v 5.26032 c 0,4.55265 -0.0563,5.28193 -0.41851,5.42092 -0.63017,0.24182 -32.73541,0.18506 -33.11912,-0.0586 z m 32.74388,-5.3371 v -4.7625 H 102.1005 91.6402 l 0.0754,-2.71198 0.0754,-2.71198 9.19427,-0.0696 9.19427,-0.0696 v -4.22647 -4.22648 l -9.19427,-0.0696 -9.19427,-0.0696 -0.0754,-2.71198 -0.0754,-2.71198 h 10.20182 10.20181 l -0.0722,-4.69635 -0.0722,-4.69636 -15.80885,-0.0682 -15.80885,-0.0682 v 19.31666 19.31667 h 16.13958 16.13958 z m -75.55335,-38.6254 c -1.94437,-0.27308 -4.61492,-0.95241 -4.89524,-1.24524 -0.11253,-0.11756 -1.77047,-5.98827 -3.68431,-13.04603 -1.91384,-7.05776 -3.82891,-14.11026 -4.2557,-15.67221 -0.42679,-1.56196 -0.77598,-3.08851 -0.77598,-3.39234 0,-0.91072 4.0658,-4.73793 6.21771,-5.85284 3.16163,-1.63804 5.10596,-2.11713 9.20661,-2.26853 7.24417,-0.26747 11.91203,1.3237 15.3234,5.22341 2.04586,2.33872 3.9127,6.97879 3.9127,9.72509 v 1.13467 l -6.11988,-0.071 -6.11989,-0.071 -0.40422,-1.26703 c -0.96657,-3.02965 -3.90403,-4.82879 -6.81893,-4.17647 -0.77348,0.1731 -1.80066,0.5789 -2.28264,0.90178 -1.15954,0.77679 -2.492,2.79925 -3.05777,4.64122 -0.6406,2.08559 -0.62761,7.24914 0.0237,9.4255 1.1589,3.87242 4.07775,6.07569 7.39077,5.57888 2.31122,-0.34659 4.0998,-2.25822 4.83937,-5.17231 l 0.30463,-1.20032 6.25472,-0.0709 6.25471,-0.0709 -0.004,1.26156 c -0.0136,4.37851 -2.70043,9.39921 -6.55616,12.25093 -1.75954,1.30136 -4.75685,2.65171 -6.97251,3.14126 -1.74849,0.38633 -5.98152,0.54568 -7.78119,0.29293 z m 9.01064,-1.42557 c 2.68316,-0.85705 4.87552,-2.16875 6.82522,-4.08355 2.62079,-2.57389 4.26424,-5.73419 4.65052,-8.94279 l 0.20363,-1.69144 H 52.0664 46.43536 l -0.30239,1.12299 c -0.43447,1.61348 -1.13044,2.8551 -2.14222,3.82172 -1.18525,1.13235 -2.01807,1.40529 -4.28794,1.40529 -4.35805,0 -6.79068,-2.73951 -7.60152,-8.56046 -0.38518,-2.76515 -0.0455,-6.1315 0.86409,-8.5625 0.7026,-1.87785 2.51565,-3.86605 4.0651,-4.45779 1.55705,-0.59464 4.62792,-0.44112 6.07719,0.30382 1.14413,0.5881 2.63875,2.54076 2.99351,3.91093 l 0.21478,0.82954 5.60019,0.0714 5.60018,0.0714 -0.14768,-0.86514 c -0.94937,-5.56183 -3.93204,-9.96068 -8.09026,-11.93154 -2.93792,-1.39248 -5.12383,-1.84825 -8.94885,-1.86587 -4.90489,-0.0226 -8.16769,0.86789 -11.70032,3.1933 -1.86125,1.22519 -4.43926,3.87057 -4.43926,4.55525 0,0.63882 8.24451,30.81652 8.51081,31.15245 0.21764,0.27454 2.49388,0.96012 4.18919,1.26174 0.3638,0.0647 2.09021,0.0771 3.83646,0.0275 2.49868,-0.0709 3.62587,-0.23417 5.29166,-0.76626 z m 58.2579,1.39766 c -6.38588,-0.67452 -10.64019,-3.25002 -12.76733,-7.72916 -1.58,-3.32703 -1.68244,-4.51109 -1.69279,-19.56493 l -0.009,-13.4276 h 6.32169 c 5.52048,0 6.34205,0.053 6.48229,0.41851 0.0883,0.23019 0.1606,5.98311 0.1606,12.78427 0,13.7748 0.0537,14.28654 1.66259,15.84595 1.62104,1.57117 4.8844,1.77248 6.93648,0.4279 0.92629,-0.60692 1.68687,-2.3862 1.97762,-4.62635 0.14019,-1.0801 0.25856,-7.11328 0.26305,-13.40705 l 0.008,-11.44323 h 6.36269 6.36269 l -0.089,14.35364 c -0.097,15.64866 -0.083,15.49276 -1.70531,18.93836 -0.97147,2.06327 -3.46026,4.50157 -5.66916,5.55413 -3.79535,1.80852 -8.96029,2.47179 -14.60504,1.87556 z m 10.74913,-1.27145 c 5.42147,-1.42522 8.66611,-4.58216 9.97688,-9.70722 0.48776,-1.90712 0.52338,-2.96201 0.52338,-15.49784 v -13.45143 h -5.68854 -5.68854 v 12.38739 c 0,10.56651 -0.0621,12.59864 -0.42235,13.82448 -0.87203,2.96718 -2.2613,3.95063 -5.58084,3.95063 -2.9496,0 -4.16596,-0.64038 -5.24016,-2.75882 l -0.79519,-1.5682 -0.08,-12.91774 -0.08,-12.91774 h -5.67464 -5.67464 l 0.005,13.29531 c 0.005,14.62608 0.0732,15.4237 1.58946,18.6007 1.89685,3.97449 6.11654,6.5824 11.89969,7.3544 2.28024,0.30439 8.87738,-0.0541 10.93099,-0.59392 z m -55.91015,-19.4742 v -19.97604 h 6.35 6.35 v 14.54847 14.54847 l 8.6651,0.0698 8.66511,0.0698 0.0716,5.35781 0.0716,5.35781 H 74.20165 59.11492 Z m 29.36875,14.68438 v -4.7625 h -8.57065 c -7.57124,0 -8.58938,-0.0488 -8.73125,-0.41852 -0.0883,-0.23018 -0.1606,-6.77862 -0.1606,-14.55208 v -14.13357 h -5.68854 -5.68854 v 19.13819 c 0,10.52601 0.0794,19.21757 0.17639,19.31459 0.097,0.097 6.58592,0.17639 14.41979,0.17639 h 14.2434 z m 38.75863,4.98115 c -0.0737,-0.19302 -0.10323,-9.2211 -0.0656,-20.0624 l 0.0684,-19.71146 h 12.30312 c 11.29664,0 12.47534,0.0422 14.40819,0.51538 4.96007,1.21438 7.81681,4.74879 7.81681,9.67108 0,2.80757 -0.59174,4.33824 -2.36117,6.10766 l -1.52037,1.52038 1.5487,1.00225 c 2.52047,1.63111 3.95562,4.13968 4.31221,7.5375 0.52045,4.95924 -1.82885,9.42775 -6.14561,11.68932 -3.5171,1.84262 -3.56507,1.84799 -17.59628,1.97073 -10.32932,0.0904 -12.65886,0.0465 -12.76843,-0.24044 z m 25.86471,-0.87065 c 4.11564,-0.87216 7.22849,-3.13051 8.85708,-6.42576 0.96575,-1.95406 0.99978,-2.11796 0.99957,-4.81477 -1.8e-4,-2.463 -0.0823,-2.967 -0.69721,-4.27881 -0.93892,-2.00304 -2.27787,-3.42174 -4.19251,-4.44223 -0.8758,-0.46679 -1.59236,-0.95508 -1.59236,-1.08507 0,-0.13 0.53222,-0.60253 1.1827,-1.05007 2.37035,-1.63085 3.40034,-3.64945 3.37802,-6.62034 -0.0332,-4.42483 -2.21591,-7.30417 -6.66616,-8.79392 -1.66571,-0.55761 -2.20264,-0.58294 -14.23258,-0.67152 l -12.50156,-0.092 v 19.33097 19.33097 l 11.84011,-0.005 c 9.24218,-0.004 12.23171,-0.0876 13.6249,-0.38282 z m -13.82334,-12.31259 v -3.96875 h 4.67896 c 4.11724,0 4.80811,0.0627 5.75469,0.52189 1.34203,0.65108 1.74802,1.29284 1.90816,3.01621 0.1708,1.83814 -0.45332,3.0176 -2.01298,3.80409 -1.08846,0.54888 -1.53731,0.59531 -5.75469,0.59531 h -4.57414 z m 10.05048,2.71157 c 0.5073,-0.25443 1.07109,-0.76027 1.25288,-1.12407 0.45875,-0.91812 0.41996,-2.67609 -0.0746,-3.38222 -0.84442,-1.20557 -1.64447,-1.38028 -6.3208,-1.38028 h -4.37877 v 3.175 3.175 l 4.29948,-5.3e-4 c 3.56464,-2.6e-4 4.45713,-0.0795 5.22184,-0.46302 z m -10.05048,-16.60219 v -3.30729 h 4.0042 c 5.74108,0 6.81387,0.43312 7.03817,2.84159 0.0944,1.01345 -0.005,1.44033 -0.51077,2.18549 -0.89826,1.32445 -1.85227,1.55538 -6.49671,1.57257 l -4.03489,0.0149 z m 8.67431,2.22916 c 1.65194,-0.57587 2.21829,-2.78844 1.00541,-3.92788 -0.76615,-0.71976 -3.64394,-1.14678 -6.91058,-1.02542 l -2.10768,0.0783 -0.0757,2.57969 -0.0757,2.57969 h 3.67427 c 2.02084,0 4.04136,-0.12797 4.49004,-0.28438 z M -3.0461004,196.5553 c -4.550149,-0.58884 -8.2249546,-2.34923 -11.2608156,-5.39444 -3.818385,-3.83014 -5.626926,-8.14504 -5.880272,-14.02943 -0.307372,-7.13925 1.506069,-12.28307 5.880272,-16.67935 3.719872,-3.73866 8.1342256,-5.43039 14.18726561,-5.43705 4.97901999,-0.005 8.21002999,0.9079 11.93077039,3.37275 2.61568,1.73278 4.52518,3.98146 6.03079,7.10198 1.86924,3.8742 2.23504,5.56837 2.22798,10.31875 -0.005,3.33963 -0.10448,4.32526 -0.62781,6.21771 -2.30808,8.34645 -8.20359,13.47314 -16.7219304,14.54125 -2.45714999,0.3081 -3.30526999,0.30631 -5.76625,-0.0122 z m 8.66787,-1.29847 c 8.6137504,-2.41411 13.7897204,-9.7364 13.8022104,-19.52562 0.004,-3.31077 -0.5123,-5.95523 -1.72876,-8.85065 -2.20005,-5.2366 -6.58619,-9.03817 -12.1816604,-10.55813 -2.9444,-0.79982 -8.10776,-0.80379 -11.0328,-0.008 -7.8261086,2.1279 -13.0727586,8.52497 -13.9067526,16.95606 -0.225478,2.27942 0.07886,6.62122 0.604491,8.62392 1.546633,5.8928 5.830401,10.7075 11.4094026,12.82349 3.764889,1.42794 9.078809,1.64786 13.033869,0.53941 z m -7.00544,-8.48317 c -2.2207,-0.43106 -4.416,-2.0932 -5.4786,-4.14805 -0.792024,-1.53161 -1.2269539,-3.96793 -1.2237969,-6.85529 0.0045,-4.09184 0.7402619,-6.56474 2.5508369,-8.57306 1.45421,-1.61304 3.21029,-2.36458 5.51581001,-2.36056 2.15714999,0.004 3.51686999,0.52355 5.09194999,1.94654 4.04875,3.6578 3.98834,14.55915 -0.10057,18.14926 -1.79661,1.57745 -4.17087998,2.26525 -6.35563,1.84116 z m 4.36107,-1.35487 c 1.39678,-0.66983 3.02226,-2.65801 3.60326,-4.40723 1.13819,-3.42676 0.96747,-8.17826 -0.40558,-11.28846 -1.12354,-2.54501 -3.56748,-4.20026 -6.20157999,-4.20026 -3.97004001,0 -6.57365001,2.89509 -7.29487601,8.11154 -1.1911308,8.61521 4.153866,14.73125 10.298776,11.78441 z m -63.3205476,10.03504 c -0.517086,-1.4947 -10.452311,-38.61579 -10.452311,-39.05308 0,-0.56515 0.03417,-0.56828 6.19895,-0.56828 h 6.198949 l 0.277455,1.38906 c 2.260148,11.31537 3.993396,20.29646 3.993396,20.69242 0,1.50023 0.556067,-0.92814 2.495884,-10.89961 l 2.149543,-11.04958 5.529901,-0.0717 c 3.041443,-0.0394 5.614352,0.0201 5.717574,0.13229 0.10322,0.11217 1.117571,5.17497 2.25411,11.25066 1.136536,6.0757 2.146327,10.95726 2.243976,10.84792 0.09765,-0.10934 1.161556,-5.16966 2.36424,-11.24515 l 2.186697,-11.04636 h 6.166549 c 3.611626,0 6.230945,0.1042 6.321978,0.25149 0.08549,0.13832 -0.575133,2.847 -1.468044,6.01927 -0.892907,3.17228 -2.371598,8.44669 -3.285971,11.72091 -1.493602,5.34833 -5.460503,19.49378 -5.935909,21.16667 l -0.187973,0.66145 h -6.198674 -6.198672 l -0.32412,-1.63787 c -0.178266,-0.90082 -0.81217,-4.41317 -1.408676,-7.8052 -1.903939,-10.82675 -2.322743,-13.059 -2.345754,-12.50296 -0.02021,0.4886 -3.257301,19.5831 -3.619579,21.35072 l -0.149125,0.72761 h -6.20499 c -4.726583,0 -6.23225,-0.0788 -6.319404,-0.33073 z m 12.037273,-0.73215 c 0,-0.28731 3.598539,-21.32651 3.857148,-22.55119 0.08451,-0.40018 0.31332,-0.7276 0.508477,-0.7276 0.402981,0 0.33133,-0.30722 1.573551,6.74687 0.512522,2.91042 1.386972,7.85151 1.943219,10.98021 l 1.011362,5.68854 5.584299,0.0713 5.584298,0.0714 0.408128,-1.26197 c 0.22447,-0.69408 1.968667,-6.8579 3.875995,-13.69738 4.394097,-15.75678 6.332942,-22.66557 6.478424,-23.0849 0.08944,-0.25781 -1.125173,-0.33073 -5.508869,-0.33073 h -5.62361 l -2.348249,11.9724 c -1.291534,6.58481 -2.448113,12.0855 -2.570168,12.22375 -0.14016,0.15875 -0.313147,0.15875 -0.469537,0 -0.214842,-0.21809 -1.349841,-5.98252 -3.878517,-19.69823 -0.362188,-1.96453 -0.721093,-3.78024 -0.797565,-4.0349 -0.126034,-0.41969 -0.606089,-0.46302 -5.13047,-0.46302 -4.528685,0 -5.003265,0.0429 -5.119169,0.46302 -0.07026,0.25466 -0.571632,2.78474 -1.11416,5.6224 -2.278573,11.91788 -3.446529,17.59994 -3.634314,17.68078 -0.109863,0.0473 -0.300913,0.0473 -0.424556,0 -0.172572,-0.066 -3.620789,-16.87749 -4.671195,-22.77401 l -0.176747,-0.99219 h -5.555488 -5.555487 l 0.176131,0.72761 c 0.204866,0.84631 9.237914,34.18285 9.82193,36.24791 l 0.392837,1.38907 h 5.68115 c 3.674985,0 5.681152,-0.095 5.681152,-0.26913 z M 20.75038,175.80851 v -19.97604 l 12.63385,0.005 c 13.9485,0.005 14.84375,0.0855 17.9447,1.61209 2.18493,1.07564 4.33129,3.33493 5.17925,5.45178 0.87303,2.1794 0.87534,6.90439 0.004,9.10944 -0.76093,1.92666 -1.90829,3.49699 -3.21565,4.40109 -0.57261,0.39598 -1.04111,0.7795 -1.04111,0.85226 0,0.0728 0.461,0.45094 1.02445,0.8404 1.16796,0.80732 2.64979,3.27635 3.30667,5.5096 0.23542,0.80037 0.54266,2.94079 0.68277,4.75651 0.14011,1.81571 0.40423,4.01836 0.58695,4.89479 0.28205,1.35288 0.35218,-1.34287 0.4645,-17.85338 l 0.13229,-19.44688 h 6.35 6.35 l 0.0684,14.48228 0.0684,14.48228 8.53056,0.0698 8.53056,0.0698 0.0716,5.35968 0.0716,5.35968 -21.36946,-0.068 -21.36947,-0.068 -0.31426,-0.95931 c -0.17284,-0.52763 -0.50716,-2.71964 -0.74293,-4.87115 -0.76771,-7.00559 -1.65009,-7.88011 -7.8086,-7.73904 l -3.30729,0.0757 -0.0706,6.81302 -0.0706,6.81303 h -6.34554 -6.34553 z m 12.17083,12.43542 v -6.74688 h 4.10954 c 4.67438,0 5.40761,0.189 6.66865,1.71886 0.9726,1.17994 1.30626,2.38313 1.66773,6.01396 0.14883,1.49502 0.40144,3.40284 0.56135,4.23958 l 0.29074,1.52136 h 5.63565 5.63565 l -0.24769,-0.8599 c -0.13623,-0.47294 -0.42006,-2.70537 -0.63073,-4.96094 -0.37186,-3.98125 -0.84448,-6.2075 -1.64937,-7.76932 -0.54506,-1.05764 -2.42103,-3.04364 -3.30853,-3.50258 -0.91576,-0.47356 -0.95624,-1.05221 -0.0889,-1.26991 1.19648,-0.3003 3.4185,-2.78151 4.07502,-4.55035 2.10902,-5.68226 0.32046,-11.29855 -4.39621,-13.80466 -3.00833,-1.5984 -3.5162,-1.64693 -17.23666,-1.64693 H 21.54413 v 19.18229 19.1823 h 5.68854 5.68854 z m 0.13076,-14.72526 c -0.08,-0.20858 -0.11244,-2.15995 -0.072,-4.33636 l 0.0735,-3.95713 3.96875,0.009 c 4.758,0.0102 6.13752,0.32267 7.30729,1.65497 0.77267,0.88002 0.81204,1.03012 0.71599,2.72982 -0.11474,2.0308 -0.67688,2.90084 -2.33474,3.61363 -1.35581,0.58293 -9.45292,0.82312 -9.65883,0.28652 z m 9.59018,-1.09852 c 2.44843,-1.31104 2.41292,-4.57552 -0.0636,-5.85211 -0.90114,-0.46451 -1.6576,-0.55982 -5.09322,-0.64174 l -4.0349,-0.0962 v 3.62787 3.62786 l 4.16719,-0.10329 c 3.30554,-0.0819 4.34447,-0.19821 5.02459,-0.56239 z m 45.04781,17.94411 v -4.62654 l -8.53281,-0.0698 -8.53281,-0.0698 -0.0684,-14.48594 -0.0684,-14.48594 h -5.68629 -5.68628 v 19.18229 19.1823 h 14.2875 14.2875 z m 1.57571,5.35415 c -0.14344,-0.805 -0.26299,-35.56215 -0.12849,-37.35614 l 0.19187,-2.5592 11.9466,0.0925 c 11.07382,0.0857 12.08276,0.13187 13.81035,0.63161 5.86036,1.69522 9.80871,5.93712 11.54394,12.40219 0.48013,1.78886 0.56904,2.85422 0.57413,6.87916 0.005,4.07246 -0.0765,5.06101 -0.56342,6.82274 -2.05549,7.43691 -7.36532,11.86524 -15.44133,12.87788 -1.82102,0.22834 -21.89612,0.41988 -21.93365,0.20928 z m 24.88262,-1.48968 c 3.395,-1.02022 5.23728,-2.07431 7.43565,-4.25441 2.15999,-2.14204 3.47356,-4.42566 4.34358,-7.55122 0.68144,-2.44807 0.83516,-9.01057 0.27573,-11.77146 -1.5201,-7.50201 -5.34276,-11.81339 -11.97913,-13.51069 -1.83815,-0.47012 -2.98339,-0.51473 -13.21502,-0.51473 H 89.80663 v 19.20025 19.20025 l 11.17864,-0.10084 c 10.67822,-0.0963 11.26748,-0.12752 13.16302,-0.69715 z m -12.83274,-8.801 c -0.0763,-0.19874 -0.10736,-4.64702 -0.0691,-9.88507 l 0.0696,-9.52373 2.51353,-0.0822 c 6.07612,-0.19859 9.56715,1.75887 10.88711,6.10453 0.80315,2.64421 0.62195,6.52694 -0.41197,8.82765 -0.87006,1.9361 -2.19318,3.29755 -3.99285,4.10855 -1.12111,0.50522 -1.8976,0.61259 -5.09027,0.70387 -3.01465,0.0862 -3.79505,0.0355 -3.90601,-0.25365 z m 8.76251,-1.21377 c 1.71996,-0.90793 2.62723,-1.80463 3.37751,-3.33817 1.90027,-3.884 1.16598,-9.6531 -1.52992,-12.02014 -1.82202,-1.59975 -3.76084,-2.17172 -7.36851,-2.17379 l -2.57968,-0.001 v 9.15408 9.15409 l 3.50573,-0.0998 c 2.96541,-0.0845 3.67359,-0.18845 4.59487,-0.67477 z M 39.4371,146.8158 c -0.55452,-0.43619 -0.69506,-0.77289 -0.69506,-1.66524 0,-0.61518 0.14883,-1.28176 0.33073,-1.48129 0.1819,-0.19954 -0.0128,-0.10429 -0.43255,0.21166 -0.6549,0.49288 -1.10991,0.57446 -3.20423,0.57446 -2.11922,0 -2.56056,-0.0812 -3.34854,-0.61592 l -0.9076,-0.61592 -0.46459,0.61592 c -0.38604,0.51178 -0.70678,0.61592 -1.89701,0.61592 -0.88314,0 -1.56325,-0.14108 -1.77359,-0.36789 -0.29115,-0.31396 -0.44989,-0.31189 -1.08296,0.0141 -0.56439,0.29065 -1.57686,0.36194 -4.23334,0.29805 -1.92034,-0.0462 -3.67012,-0.1723 -3.8884,-0.28025 -0.28702,-0.14195 -0.54335,0.0788 -0.92604,0.79744 -0.88317,1.6585 -2.29382,2.18435 -5.85967,2.18435 -1.6331904,0 -3.3046004,-0.12664 -3.7142504,-0.28142 -0.89617,-0.33859 -2.20004,-1.53401 -2.20004,-2.01704 0,-0.23979 -0.40387,-0.34737 -1.30402,-0.34737 -0.84266,0 -1.45381,-0.1498 -1.72742,-0.4234 -0.38815,-0.38815 -0.4977,-0.38815 -1.31564998,0 -0.70623001,0.33512 -1.80479002,0.4234 -5.26904002,0.4234 -4.2229048,0 -4.3912618,-0.0207 -4.7886608,-0.58804 -0.341855,-0.48807 -0.411877,-1.55761 -0.411877,-6.29113 0,-6.87105 0.0028,-6.87917 2.3812498,-6.87917 1.309538,0 1.623068,0.0936 1.969378,0.58804 0.22653,0.32342 0.41187,0.97827 0.41187,1.45521 v 0.86717 l 2.31511,0.0116 c 1.2733,0.006 2.76159001,0.17095 3.30729002,0.36569 l 0.99218998,0.35409 v -1.50341 c 0,-0.82687 0.14287,-1.64628 0.3175,-1.8209 0.17937,-0.17938 1.03862,-0.3175 1.97506,-0.3175 1.98552,0 2.30017,0.36054 2.16221,2.4776 l -0.0892,1.36809 0.91584,-0.46764 c 1.24799,-0.63723 8.8287404,-0.69467 9.7154304,-0.0736 0.49823,0.34897 0.67036,0.34897 1.50558,0 1.25649,-0.525 6.18386,-0.54002 7.42216,-0.0226 l 0.8889,0.3714 -0.112,-1.19885 c -0.0748,-0.80055 0.0247,-1.4074 0.29934,-1.82661 0.36301,-0.55403 0.61327,-0.62776 2.13069,-0.62776 1.57723,0 1.74428,0.0547 2.02074,0.66145 0.27597,0.60568 0.44479,0.66146 2.00169,0.66146 1.64626,0 1.70983,0.0252 1.99991,0.79375 0.28506,0.75522 0.37349,0.79375 1.82142,0.79375 h 1.52182 l 0.0738,-3.50573 0.0738,-3.50573 3.9026,-0.0732 3.90261,-0.0732 v -3.02892 -3.02892 l 4.16718,-0.0801 4.16719,-0.0801 -4.15204,-0.0589 -4.15203,-0.0589 0.0103,-1.32935 0.0103,-1.32935 4.27403,0.0726 4.27404,0.0726 0.0443,1.32291 c 0.0244,0.72761 0.0541,1.94482 0.0661,2.70491 l 0.0218,1.38199 3.9026,0.0732 3.90261,0.0732 0.0347,1.32292 c 0.0191,0.7276 0.0489,1.65033 0.0662,2.05052 l 0.0314,0.7276 h 3.58146 3.58146 l -0.0195,-5.35781 c -0.0107,-2.9468 -0.0151,-6.16444 -0.01,-7.15031 l 0.01,-1.79249 4.29948,0.0727 4.29948,0.0727 0.0347,1.32292 c 0.0191,0.7276 0.0489,3.08855 0.0661,5.24655 l 0.0314,3.92363 3.4183,-0.0872 c 1.88006,-0.0479 3.4933,-0.16252 3.58497,-0.25461 0.0917,-0.0921 0.16525,-1.37495 0.1635,-2.85078 l -0.003,-2.68333 4.28956,0.0726 4.28955,0.0727 0.0443,1.32292 c 0.0244,0.7276 0.0541,2.48059 0.0661,3.89553 l 0.0218,2.57261 3.90261,0.0732 3.9026,0.0732 0.0723,7.9375 c 0.0814,8.93547 0.008,9.35277 -1.79205,10.2522 -1.23532,0.61711 -8.23986,0.67585 -9.66345,0.081 -0.7967,-0.33288 -1.00973,-0.33309 -1.64515,-0.002 -1.02342,0.53386 -5.489,0.52055 -6.52445,-0.0194 -0.68542,-0.35745 -0.81488,-0.35728 -1.21146,0.002 -0.60457,0.54712 -9.83185,0.58458 -10.85341,0.0441 -0.54932,-0.29065 -0.78243,-0.29007 -1.37503,0.003 -0.46815,0.23187 -1.81331,0.36028 -3.91112,0.37337 -2.7126,0.0169 -3.36804,-0.0626 -4.32164,-0.52422 -1.11414,-0.53935 -1.13337,-0.53968 -2.17429,-0.038 -1.17545,0.56651 -1.92957,0.62959 -6.91829,0.57875 -4.10331,-0.0418 -4.31838,-0.15116 -4.31838,-2.19558 v -1.3285 l -1.01992,1.95954 c -1.87729,3.60678 -2.30589,3.96599 -5.09804,4.27272 -1.25723,0.13811 -1.59545,0.0787 -2.18281,-0.3833 z m -24.57047,-1.0054 c 0.95819,-0.48883 1.915,-1.81376 1.915,-2.65177 0,-0.41165 0.2903,-0.36665 1.72293,0.26707 1.07889,0.47725 1.64742,0.54303 3.93624,0.45543 2.0278,-0.0776 2.8807,-0.22487 3.52437,-0.60853 0.77556,-0.46226 0.89025,-0.47005 1.32292,-0.0899 0.70217,0.61702 1.50746,0.79003 2.29088,0.49217 0.61054,-0.23212 0.69641,-0.41239 0.69641,-1.46194 0,-1.02079 0.078,-1.19718 0.52916,-1.19718 0.34003,0 0.52917,0.17639 0.52917,0.49349 0,1.49542 2.31488,2.60704 4.87807,2.3425 2.29483,-0.23685 3.32401,-1.24167 3.32401,-3.24531 0,-1.38007 0.62934,-1.14378 1.56763,0.5886 0.44749,0.82621 0.81362,1.64443 0.81362,1.81827 0,0.17384 -0.46325,0.39015 -1.02945,0.48069 -1.08423,0.17337 -1.3518,0.51863 -1.3518,1.74434 0,1.09549 0.57494,1.4333 2.12665,1.24952 2.20919,-0.26165 2.75931,-0.76772 4.43687,-4.08167 0.82845,-1.63657 1.6551,-2.97611 1.837,-2.97675 0.22976,-8e-4 0.33073,0.50843 0.33073,1.66805 0,2.70499 -0.0162,2.6964 5.07189,2.6964 4.09157,0 4.38039,-0.0341 5.44358,-0.64307 l 1.12277,-0.64307 1.25848,0.64307 c 1.10726,0.56579 1.60824,0.64307 4.16891,0.64307 2.14608,0 3.12541,-0.11087 3.72906,-0.42216 0.75925,-0.39154 0.90893,-0.3867 2.06325,0.0667 1.01263,0.39776 1.92034,0.48343 4.8699,0.45963 3.81405,-0.0308 5.34508,-0.29387 5.34508,-0.91847 0,-0.55378 0.70384,-0.45867 1.62038,0.21896 0.6893,0.50962 1.13525,0.59531 3.09814,0.59531 1.79709,0 2.47539,-0.1104 3.13665,-0.5105 0.83342,-0.50429 0.85752,-0.50429 1.97716,0 0.93286,0.42015 1.74348,0.5105 4.58025,0.5105 6.00115,0 5.96034,0.0577 5.96034,-8.43427 v -6.23596 l -3.90261,-0.0732 c -3.70181,-0.0694 -3.9026,-0.10044 -3.9026,-0.60238 0,-0.50009 0.21813,-0.53605 3.96875,-0.6544 l 3.96875,-0.12522 -3.96875,-0.13936 c -3.72929,-0.13095 -3.97104,-0.17129 -4.00677,-0.66852 -0.0209,-0.29105 -0.0507,-1.69003 -0.0661,-3.10886 l -0.0281,-2.57969 h -3.57188 c -2.66966,0 -3.57729,0.0835 -3.59333,0.33073 -0.0118,0.1819 -0.0416,0.80698 -0.0661,1.38907 l -0.0447,1.05833 -4.29948,0.0727 -4.29948,0.0727 v -3.84301 -3.84302 h -3.69901 -3.69901 l -0.0713,5.75469 -0.0713,5.75469 h -4.10104 -4.10104 l -0.083,-0.72063 -0.0831,-0.72063 -3.8857,-0.0731 c -3.80283,-0.0716 -3.88751,-0.0858 -3.97025,-0.66843 -0.0842,-0.59312 -0.0696,-0.59552 3.96875,-0.65067 l 4.05329,-0.0554 -3.96875,-0.14308 -3.96875,-0.14309 -0.0777,-1.91823 -0.0777,-1.91823 h -3.70559 -3.70559 l 0.0269,3.37344 c 0.0148,1.85539 0.0206,3.52226 0.013,3.70416 -0.0103,0.24699 -1.03549,0.34475 -4.04875,0.38608 l -4.0349,0.0554 3.96875,0.14308 c 3.84964,0.13879 3.97126,0.16074 4.05236,0.73123 0.0828,0.58233 0.0449,0.58886 -3.83646,0.66146 l -3.92007,0.0733 -0.0768,2.18281 -0.0769,2.18281 -2.03982,-0.006 c -2.03811,-0.006 -2.04015,-0.006 -2.43669,-0.8599 -0.65882,-1.41794 -2.58173,-1.30032 -3.18783,0.19498 -0.21553,0.53173 -0.21847,0.53185 -0.23904,0.009 -0.0173,-0.44004 -0.064,-0.46232 -0.2773,-0.13229 -0.18892,0.29233 -0.25755,0.11462 -0.26053,-0.67469 -0.005,-1.29558 -0.36452,-1.70656 -1.49328,-1.70656 -1.37802,0 -1.7744,0.6145 -1.56877,2.43205 0.21156,1.86991 -0.0955,2.10835 -1.58398,1.23011 -0.87856,-0.51836 -1.37302,-0.59682 -3.6951,-0.58632 -2.32319,0.0105 -2.83095,0.0965 -3.80629,0.64468 l -1.12549,0.63256 -0.45226,-0.59958 c -0.43093,-0.57129 -0.63903,-0.60219 -4.41193,-0.65518 -3.7111104,-0.0521 -4.0243404,-0.0174 -4.9900804,0.55333 -1.46937,0.86835 -1.74771,0.65471 -1.74771,-1.34148 0,-1.90175 -0.26329,-2.31018 -1.48922,-2.31018 -1.37158,0 -1.77418,0.61652 -1.57164,2.40675 0.10988,0.97119 0.07,1.58049 -0.11076,1.6922 -0.15535,0.096 -0.80844,-0.08 -1.45130998,-0.39126 -0.90669001,-0.43892 -1.75070001,-0.58071 -3.76306002,-0.63219 l -2.59422,-0.0664 -0.0786,-1.17384 c -0.047,-0.70297 -0.25306,-1.30651 -0.51359,-1.50457 -0.55314,-0.42052 -1.9824589,-0.42841 -2.3976378,-0.0132 -0.389578,0.38958 -0.444785,11.24232 -0.06028,11.85047 0.2027679,0.32072 1.0018808,0.39455 4.2954278,0.39688 3.79478001,0.003 4.11554001,-0.0368 5.15999002,-0.6351 l 1.11367998,-0.63797 0.51666,0.63797 c 0.42408,0.52365 0.73481,0.6297 1.73417,0.59188 1.0981,-0.0416 1.25663,0.0296 1.61632,0.72511 0.82251,1.59057 2.37819,2.12816 5.7190904,1.97632 1.61207,-0.0733 2.59853,-0.26213 3.33703,-0.63888 z m 25.39121,0.0726 c -0.32657,-0.32657 -0.21543,-1.69209 0.13785,-1.69366 0.7627,-0.003 2.3151,-0.57531 2.3151,-0.85289 0,-0.56726 -3.78009,-7.12381 -3.94929,-6.85004 -0.0931,0.15059 -1.23684,0.30857 -2.54173,0.35108 l -2.37252,0.0773 v 1.90531 c 0,2.23037 0.24777,2.5945 1.73877,2.5554 1.28019,-0.0336 1.34315,-0.0884 1.54804,-1.34893 0.14497,-0.89188 0.24362,-0.99511 0.95101,-0.99511 0.78713,0 0.78924,0.004 0.7812,1.55126 -0.007,1.28639 -0.11028,1.63403 -0.60672,2.03602 -1.28519,1.04068 -4.52883,0.95686 -5.81665,-0.15032 -0.66606,-0.57263 -0.71827,-0.77711 -0.804,-3.14916 l -0.0917,-2.53676 h -0.78498 c -0.72622,0 -0.77876,-0.0643 -0.70206,-0.8599 0.0686,-0.71137 0.2059,-0.87409 0.79495,-0.94211 0.58582,-0.0676 0.72652,-0.23179 0.79375,-0.92604 0.0748,-0.77242 0.16007,-0.84382 1.00775,-0.84382 0.85137,0 0.93273,0.0693 1.00895,0.85989 l 0.0829,0.8599 2.43064,0.0245 c 1.33684,0.0135 2.90688,0.008 3.48896,-0.0125 1.02137,-0.0357 1.08384,0.012 1.78859,1.36453 0.40164,0.77083 1.13341,2.10882 1.62615,2.9733 l 0.89588,1.57179 1.48492,-2.96085 c 1.45659,-2.90435 1.50218,-2.96083 2.38935,-2.96083 0.63986,0 0.93908,0.13545 1.02288,0.46302 0.0651,0.25466 0.0585,-0.15211 -0.0148,-0.90392 -0.0733,-0.75182 -0.0561,-1.67456 0.0383,-2.05053 0.1624,-0.64708 0.26311,-0.68357 1.88631,-0.68357 h 1.71475 v 1.65364 1.65365 h 2.88264 c 3.13229,0 3.74353,0.24378 4.31202,1.71979 l 0.25477,0.66146 0.34928,-0.82595 c 0.61485,-1.45393 1.24121,-1.68759 4.52381,-1.68759 1.61939,0 3.31145,0.12797 3.76013,0.28438 0.87176,0.30389 1.64186,1.24821 1.64849,2.02141 0.002,0.25978 0.11312,0.64474 0.24643,0.85546 0.15824,0.25012 0.19161,0.005 0.0961,-0.70749 -0.12441,-0.92761 -0.0444,-1.19249 0.53529,-1.77219 0.667,-0.66699 0.76025,-0.68157 4.35914,-0.68157 3.53692,0 3.70433,0.0248 4.37765,0.64882 l 0.7001,0.64883 v -0.64883 c 0,-0.51569 0.13572,-0.64882 0.66146,-0.64882 0.55313,0 0.66145,-0.12536 0.66145,-0.76545 0,-0.92288 0.22219,-1.01221 2.18282,-0.87756 1.47928,0.10159 1.52135,0.12575 1.52135,0.87374 v 0.76927 h 2.08836 c 2.22544,0 2.40956,0.11119 2.40956,1.45521 0,1.34541 -0.18289,1.4552 -2.42406,1.4552 h -2.10285 l 0.0806,1.25677 c 0.0676,1.05351 0.16623,1.25678 0.60981,1.25678 0.34732,0 0.55822,-0.20458 0.61371,-0.59532 0.0777,-0.54687 0.22298,-0.59531 1.78594,-0.59531 1.33596,0 1.70139,0.0852 1.70139,0.39688 0,0.21828 0.18534,0.39687 0.41188,0.39687 0.37278,0 0.37278,-0.0558 0,-0.58804 -0.41348,-0.59032 -0.55465,-2.43622 -0.24753,-3.23656 0.35397,-0.92244 1.53405,-1.20263 5.04803,-1.19858 3.73992,0.004 4.49081,0.21695 5.07603,1.43748 0.28463,0.59364 0.29757,0.87487 0.0579,1.25866 -0.24348,0.38987 -0.22311,0.61635 0.0965,1.07263 0.65153,0.93018 0.53035,3.00533 -0.21927,3.75495 -0.75756,0.75756 -3.10127,1.07832 -6.38301,0.87358 -2.43713,-0.15205 -3.13688,-0.42757 -3.66998,-1.44504 -0.35391,-0.67545 -0.37558,-0.68139 -0.54445,-0.1493 -0.3502,1.10336 -1.42831,1.52809 -3.85941,1.52042 -3.36708,-0.0106 -4.23333,-0.82935 -4.23333,-4.00114 0,-1.23934 -0.0659,-1.41573 -0.52917,-1.41573 -0.49407,0 -0.52917,0.17639 -0.52917,2.65973 v 2.65973 l -1.91823,-0.0102 c -1.05502,-0.006 -2.65881,0.0617 -3.56396,0.14962 -2.14062,0.20787 -3.95142,-0.0758 -4.5956,-0.72002 -0.50981,-0.50981 -0.52228,-0.50901 -1.32601,0.0852 -0.73865,0.5461 -1.09987,0.59986 -4.03034,0.59986 -2.95516,0 -3.29044,-0.051 -4.09079,-0.62181 -0.53524,-0.38175 -0.9342,-0.93377 -1.03342,-1.42985 l -0.16161,-0.80804 -0.50565,1.07436 c -0.8334,1.77075 -1.71286,1.93427 -8.67231,1.61251 l -1.98437,-0.0917 -0.13229,-3.36573 -0.13229,-3.36574 -2.21369,4.37205 c -1.21753,2.40463 -2.46768,4.53296 -2.77812,4.72962 -0.66388,0.42056 -3.13527,0.79161 -3.41427,0.51261 z m 2.82744,-1.19268 c 0.85152,-0.6698 5.09186,-8.96617 4.58269,-8.96617 -0.18569,0 -1.01918,1.36922 -1.8522,3.04271 -0.89925,1.80655 -1.67204,3.0427 -1.90216,3.0427 -0.224,0 -1.07145,-1.28424 -2.00783,-3.0427 -0.97149,-1.82439 -1.78041,-3.04271 -2.02026,-3.04271 -0.3173,0 -0.26504,0.23249 0.25279,1.12448 2.1405,3.68713 3.36623,6.01253 3.36623,6.38624 0,0.68936 -0.99239,1.48511 -1.85208,1.48511 -0.43656,0 -0.79375,0.11906 -0.79375,0.26458 0,0.4758 1.49955,0.27763 2.22657,-0.29424 z m -5.40157,-2.61617 c 0.55262,-0.55262 0.7558,-2.38125 0.26458,-2.38125 -0.14552,0 -0.26458,0.3929 -0.26458,0.87312 0,1.21819 -0.40922,1.50813 -2.12858,1.50813 -2.18005,0 -2.41,-0.34508 -2.31357,-3.47189 l 0.0765,-2.48124 2.51354,-0.1222 2.51354,-0.1222 -2.51354,-0.14238 -2.51354,-0.14238 -0.0829,-0.8599 c -0.0494,-0.51245 -0.22972,-0.8599 -0.44626,-0.8599 -0.21653,0 -0.39684,0.34745 -0.44625,0.8599 -0.0704,0.73071 -0.20216,0.87638 -0.87666,0.96959 l -0.79375,0.1097 0.79375,0.15655 0.79375,0.15655 0.13229,2.73465 c 0.11957,2.47174 0.19234,2.78319 0.75691,3.23949 0.90725,0.73324 3.79266,0.71776 4.53476,-0.0243 z m 14.02292,0.13229 c 0,-0.51807 0.64699,-0.50523 1.46237,0.029 0.49591,0.32493 1.12774,0.40177 2.6651,0.32414 1.81325,-0.0916 2.07848,-0.17545 2.64797,-0.83753 0.54112,-0.62908 0.63289,-1.01285 0.63289,-2.64652 0,-2.25638 -0.36936,-2.94407 -1.79374,-3.33965 -1.37835,-0.38281 -3.24429,-0.32696 -4.02709,0.12053 -1.19301,0.68198 -1.32292,0.53907 -1.32292,-1.45521 v -1.85208 h -1.19063 -1.19062 v 5.02708 5.02708 h 1.05833 c 0.76436,0 1.05834,-0.11024 1.05834,-0.39687 z m 0.3175,-1.50813 c -0.17463,-0.17462 -0.3175,-0.88224 -0.3175,-1.57249 0,-1.63136 0.58585,-2.07876 2.7221,-2.07876 2.23669,0 2.56956,0.25142 2.56956,1.94077 0,0.76614 -0.14287,1.53586 -0.3175,1.71048 -0.4242,0.4242 -4.23246,0.4242 -4.65666,0 z m 4.0451,-0.51733 c 0.29075,-0.29074 0.31718,-1.5584 0.0404,-1.93693 -0.24538,-0.33557 -0.67269,-0.41488 -1.89684,-0.35205 l -1.58011,0.0811 -0.0823,0.99474 c -0.0686,0.82932 0.0194,1.03789 0.52916,1.25415 0.55652,0.23609 2.74255,0.2061 2.98967,-0.041 z m 12.27225,2.12992 c 0.79349,-0.27661 1.35681,-0.91693 1.35681,-1.54228 0,-0.45169 -2.03549,-0.34598 -2.21234,0.1149 -0.11664,0.30394 -0.61675,0.39688 -2.13567,0.39688 -1.68773,0 -2.02405,-0.076 -2.25631,-0.51 -0.15012,-0.2805 -0.2011,-0.69722 -0.1133,-0.92604 0.1333,-0.34737 0.70092,-0.41605 3.43864,-0.41605 h 3.27898 v -0.75427 c 0,-2.33303 -1.26029,-3.21448 -4.59608,-3.21448 -3.45874,0 -4.39975,0.75848 -4.39975,3.54629 0,2.85844 0.91139,3.58187 4.52458,3.59144 1.25159,0.003 2.65309,-0.12556 3.11444,-0.28639 z m -5.36632,-4.37134 c -0.31254,-0.81448 0.34634,-1.15709 2.22522,-1.15709 1.86833,0 2.59724,0.37842 2.28686,1.18726 -0.23231,0.60538 -4.27857,0.57833 -4.51208,-0.0302 z m 13.73459,4.39916 c 0.0899,-0.14552 0.39462,-0.26458 0.67708,-0.26458 0.28245,0 0.51355,0.11906 0.51355,0.26458 0,0.14552 0.47625,0.26458 1.05833,0.26458 h 1.05833 v -2.79551 c 0,-1.53754 -0.11654,-3.0133 -0.25899,-3.27947 -0.39718,-0.74213 -1.70734,-1.06877 -4.2869,-1.06877 -2.62388,0 -4.02766,0.42675 -4.25427,1.29329 -0.13216,0.50539 -0.0362,0.5588 1.00411,0.5588 0.63263,0 1.22383,-0.11907 1.31376,-0.26459 0.23355,-0.37788 3.66215,-0.33306 4.04813,0.0529 0.17462,0.17463 0.3175,0.57703 0.3175,0.89423 0,0.56507 -0.0575,0.57404 -2.84427,0.44361 -3.29143,-0.15404 -3.93371,0.12552 -4.2067,1.83095 -0.12973,0.81045 -0.0421,1.08636 0.52518,1.65365 0.6245,0.62449 0.86689,0.68089 2.92627,0.68089 1.23495,0 2.31896,-0.11906 2.40889,-0.26458 z m -3.46613,-1.42898 c -0.0828,-0.21571 -0.10903,-0.60751 -0.0583,-0.87067 0.0803,-0.41675 0.3818,-0.47847 2.33748,-0.47847 h 2.24534 v 0.79375 0.79375 l -2.18699,0.0769 c -1.73877,0.0611 -2.21783,-0.003 -2.33748,-0.31527 z m 3.71358,-0.39538 c 0.19511,-0.3157 -0.48502,-0.55689 -1.57036,-0.55689 -0.48552,0 -1.07041,0.072 -1.29976,0.16002 -0.79356,0.30451 -0.11835,0.63373 1.29976,0.63373 0.78318,0 1.48985,-0.10659 1.57036,-0.23686 z m 11.90664,1.31092 c 0.41755,-0.39227 0.6782,-0.92447 0.6782,-1.38476 0,-0.67516 -0.088,-0.74763 -0.90764,-0.74763 -0.73981,0 -0.92327,0.11007 -0.99218,0.59531 -0.0723,0.50897 -0.26855,0.60708 -1.35321,0.67644 l -1.26867,0.0811 0.078,-1.93321 0.078,-1.93321 2.05052,-0.0773 c 1.97047,-0.0743 2.05052,-0.10223 2.05052,-0.71647 0,-0.61425 -0.08,-0.64222 -2.05052,-0.71648 l -2.05052,-0.0773 -0.0829,-0.8599 c -0.0797,-0.82642 -0.12796,-0.8599 -1.24001,-0.8599 -1.11205,0 -1.16032,0.0335 -1.24001,0.8599 -0.0635,0.65906 -0.22194,0.87964 -0.67822,0.94444 -0.42538,0.0604 -0.59531,0.26286 -0.59531,0.70921 0,0.44634 0.16993,0.64878 0.59531,0.7092 0.54605,0.0776 0.60626,0.25618 0.72761,2.15868 0.12029,1.88609 0.2024,2.13439 0.90558,2.73859 0.70193,0.60313 0.95069,0.6555 2.69524,0.5674 1.58705,-0.0801 2.04011,-0.20807 2.60014,-0.73419 z m 10.56954,0.41096 c 0.98547,-0.41176 1.39116,-1.53262 0.96265,-2.65967 -0.4228,-1.11206 -1.05074,-1.25675 -6.28992,-1.4493 -0.45278,-0.0166 -0.59532,-0.18026 -0.59532,-0.68334 0,-0.64629 0.0451,-0.66146 1.96876,-0.66146 1.08282,0 2.04235,0.11906 2.13229,0.26458 0.0899,0.14552 0.69227,0.26459 1.33853,0.26459 1.28315,0 1.44742,-0.25675 0.66491,-1.03927 -0.64701,-0.647 -2.28963,-0.89373 -5.15606,-0.77444 -1.89162,0.0787 -2.35025,0.18734 -2.83404,0.67121 -0.81037,0.81052 -0.73476,2.15467 0.16474,2.92843 0.6161,0.52998 0.97724,0.59532 3.29073,0.59532 2.68549,0 3.38206,0.25685 3.04917,1.12436 -0.26987,0.70326 -4.35395,0.8415 -4.77416,0.1616 -0.0774,-0.1252 -0.65829,-0.22763 -1.29092,-0.22763 -1.02635,0 -1.13508,0.058 -1.00952,0.53811 0.258,0.9866 1.31593,1.29203 4.51459,1.30338 1.96927,0.007 3.28401,-0.11432 3.86357,-0.35647 z m -32.77779,-1.7496 c 0.1025,-0.16586 -0.45935,-0.26308 -1.50574,-0.26054 -1.1754,0.003 -1.55185,0.0799 -1.27239,0.26054 0.52279,0.33785 2.56932,0.33785 2.77813,0 z m 29.9688,0.0755 c -0.39758,-0.0604 -1.11195,-0.0616 -1.5875,-0.003 -0.47555,0.0589 -0.15026,0.10828 0.72286,0.10976 0.87313,0.002 1.26221,-0.0467 0.86464,-0.10706 z m -89.2945204,4.69422 c -1.34473,-0.81992 -1.53709,-2.64669 -0.27998,-2.65894 l 0.60361,-0.006 -0.58173,-0.45714 c -0.7959,-0.62545 -1.13878,-1.66873 -1.13416,-3.45093 0.008,-2.90627 1.091,-3.75201 4.8075204,-3.75267 1.26384,-2.3e-4 2.60329,0.1157 2.97656,0.25762 0.45931,0.17463 0.67869,0.16895 0.67869,-0.0176 0,-0.15158 0.32742,-0.23793 0.7276,-0.19189 l 0.7276,0.0837 0.0729,4.33566 c 0.0608,3.61815 0.003,4.44278 -0.3513,4.98303 -0.67601,1.03171 -1.93386,1.39705 -4.8063,1.39595 -2.1060704,-8e-4 -2.7470404,-0.0978 -3.4409804,-0.52096 z m 7.2541904,-0.90972 0.74236,-0.63792 0.0852,-3.99229 c 0.058,-2.71699 -0.005,-3.99229 -0.19844,-3.99229 -0.33765,0 -0.35473,0.23864 -0.31837,4.44709 0.0269,3.11845 8e-4,3.28385 -0.618,3.9026 -0.59976,0.59976 -0.8378,0.64614 -3.31603,0.64614 -2.4819104,0 -2.7156104,-0.0457 -3.3193104,-0.64943 -0.42284,-0.42284 -0.64944,-0.52039 -0.64944,-0.27959 0,0.86702 1.09798,1.1936 4.0128704,1.1936 2.61634,0 2.89448,-0.0496 3.57915,-0.63791 z m -0.85985,-0.67279 c 0.22637,-0.18787 0.41181,-0.53537 0.41208,-0.77221 5.3e-4,-0.37822 -0.38247,-0.42074 -3.14628,-0.34937 -3.0114104,0.0778 -3.1407404,0.10431 -3.0065704,0.61739 0.0771,0.29487 0.39161,0.64491 0.69888,0.77786 0.79116,0.34232 4.5451904,0.13855 5.0418904,-0.27367 z m -3.11697,-1.84381 c -3.1766304,-0.19148 -3.3506104,-0.34865 -3.3506104,-3.02679 0,-1.34719 0.11846,-1.97772 0.43788,-2.33068 0.24083,-0.26612 0.36453,-0.48385 0.27489,-0.48385 -0.0897,0 -0.40576,0.26058 -0.70247,0.57906 -0.69424,0.74518 -0.76512,3.47896 -0.11429,4.40815 0.61896,0.88368 1.29464,1.06782 3.8081504,1.03782 l 2.24896,-0.0268 z m 3.0447,-1.25212 c 0.59572,-0.53912 0.66287,-2.65574 0.10831,-3.41415 -0.32444,-0.4437 -0.70542,-0.51359 -2.79946,-0.51359 -2.0940304,0 -2.4750104,0.0699 -2.7994504,0.51359 -0.49885,0.68222 -0.47829,2.52927 0.0363,3.26399 0.37142,0.53029 0.63575,0.58804 2.6911504,0.58804 1.74958,0 2.39171,-0.10175 2.76312,-0.43788 z m -1.42551,-4.78332 c -0.68634,-0.0543 -1.87697,-0.0549 -2.6458304,-0.001 -0.76886,0.0536 -0.20731,0.0981 1.2479004,0.0987 1.45521,7.9e-4 2.08428,-0.0432 1.39793,-0.0975 z m 6.4934,7.21639 c -1.15925,-0.50425 -1.69802,-1.44369 -1.85957,-3.2425 -0.19421,-2.16254 0.27003,-3.67745 1.32387,-4.32001 0.70103,-0.42744 1.33738,-0.51629 3.70386,-0.5171 3.37213,-10e-4 4.21842,0.31043 4.6853,1.72511 0.40876,1.23856 0.19448,1.71348 -0.77309,1.71348 -0.59849,0 -0.87116,-0.17472 -1.13552,-0.7276 -0.33404,-0.69861 -0.43741,-0.73073 -2.59413,-0.80596 -2.03265,-0.0709 -2.29024,-0.0241 -2.70924,0.49233 -0.57276,0.70595 -0.61105,2.56423 -0.0688,3.33842 0.46731,0.66717 2.45684,1.02375 4.13248,0.74065 0.88764,-0.14996 1.15256,-0.33157 1.38606,-0.95016 0.2375,-0.62923 0.44249,-0.76476 1.1567,-0.76476 0.83121,0 0.86803,0.0434 0.86803,1.02225 0,1.22014 -0.89424,2.26545 -2.1535,2.5173 -1.46302,0.2926 -5.0904,0.15788 -5.96247,-0.22145 z m 6.62462,-1.003 c 0.83354,-0.75778 1.16924,-1.78594 0.58313,-1.78594 -0.23428,0 -0.4147,0.2237 -0.4147,0.51417 0,0.97429 -0.98679,1.33792 -3.63075,1.33792 -3.22233,0 -3.513,-0.24758 -3.513,-2.99214 0,-2.67403 0.22388,-2.92193 2.75428,-3.04971 2.92283,-0.14759 3.83817,0.0786 4.16996,1.03036 0.30189,0.866 0.74867,1.04212 0.74867,0.29511 0,-0.26568 -0.30709,-0.77169 -0.68242,-1.12448 -0.59528,-0.55952 -0.98038,-0.65311 -3.01553,-0.73289 -3.75725,-0.14728 -4.77254,0.62186 -4.76481,3.60963 0.007,2.90075 0.76678,3.48364 4.54541,3.48938 2.29255,0.004 2.63446,-0.0593 3.21976,-0.59141 z m -33.5801713,0.78595 c -0.07145,-0.18619 -0.09748,-2.65673 -0.05784,-5.4901 l 0.07206,-5.15158 0.8508179,-0.0822 c 0.722893,-0.0699 0.876293,0.0193 1.020223,0.59273 0.0932,0.37124 0.12489,1.14179 0.0705,1.71233 -0.0867,0.90944 -0.0434,1.00764 0.35144,0.79633 0.64022,-0.34264 4.59649,-0.29883 5.80856001,0.0643 0.56054,0.16794 1.20107999,0.58299 1.42342999,0.92233 0.56293,0.85914 0.78406,3.4317 0.41291,4.80366 -0.47146,1.74273 -1.37364999,2.16852 -4.59744,2.16975 -1.4284,5.3e-4 -2.82738,-0.12226 -3.10886,-0.2729 -0.35277,-0.1888 -0.51177,-0.1888 -0.51177,0 0,0.39635 -1.5797099,0.33746 -1.7340129,-0.0646 z m 8.21237091,-0.82518 c 0.88349001,-0.57889 1.19455999,-1.42246 1.19455999,-3.23949 0,-1.25907 -0.10568,-1.56402 -0.77339999,-2.23173 -0.75187,-0.75188 -0.84717,-0.7734 -3.42397001,-0.7734 -1.45781,0 -2.70611,0.0893 -2.77399,0.19843 -0.0679,0.10915 1.10415,0.16124 2.60452,0.11578 2.54397001,-0.0771 2.76537001,-0.0425 3.28281001,0.51291 0.78265001,0.84008 0.81294001,4.20646 0.0448,4.97464 -0.62455,0.62455 -2.47424001,0.9286 -4.47472001,0.73556 -1.02986,-0.0994 -1.29093,-0.0719 -0.83602,0.0879 1.07048,0.37611 4.37261001,0.13232 5.15544001,-0.3806 z m -7.00752001,-0.0269 c 0,-0.21829 0.14287,-0.39688 0.3175,-0.39688 0.24694,0 0.24694,-0.0706 0,-0.3175 -0.3909,-0.3909 -0.42308,-3.48876 -0.0436,-4.19781 0.1888,-0.35278 0.1888,-0.51177 0,-0.51177 -0.16446,0 -0.2739,-0.79289 -0.2739,-1.98438 0,-1.14652 -0.11171,-1.98437 -0.264579,-1.98437 -0.166854,0 -0.264583,1.80798 -0.264583,4.89479 0,3.08681 0.09773,4.89479 0.264583,4.89479 0.145519,0 0.264579,-0.17859 0.264589,-0.39687 z m 6.46339001,-0.81265 c 0.22867,-0.22868 0.4319,-0.67516 0.45162,-0.99219 0.19999,-3.21547 -0.0396,-3.48683 -3.07856001,-3.48683 -2.83919,0 -3.18131,0.27025 -3.0984,2.44751 0.0803,2.10959 0.52755,2.44728 3.24111,2.44728 1.52764,0 2.17716001,-0.10871 2.48423001,-0.41577 z m 3.64992999,-2.01434 0.0731,-4.05218 h 0.79375 0.79375 v 3.96875 3.96875 l -0.86688,0.0834 -0.86688,0.0834 z m 0.99918,-0.0834 c 0,-2.02847 -0.10231,-3.30729 -0.26459,-3.30729 -0.16227,0 -0.26458,1.27882 -0.26458,3.30729 0,2.02847 0.10231,3.30729 0.26458,3.30729 0.16228,0 0.26459,-1.27882 0.26459,-3.30729 z m 23.6071704,0.0661 0.073,-4.03489 0.99218,-0.0821 0.99219,-0.0821 v 4.11702 4.11701 h -1.06522 -1.06523 z m 1.52824,0.0662 c 0,-2.88102 -0.0644,-3.43958 -0.39687,-3.43958 -0.33243,0 -0.39688,0.55856 -0.39688,3.43958 0,2.88102 0.0645,3.43958 0.39688,3.43958 0.33242,0 0.39687,-0.55856 0.39687,-3.43958 z m -1.47676,-5.38471 c -0.0826,-0.21528 -0.11155,-0.7289 -0.0643,-1.14138 0.0761,-0.66434 0.19159,-0.74995 1.01192,-0.74995 0.904,0 0.92604,0.0252 0.92604,1.05833 0,1.00109 -0.0466,1.06283 -0.86171,1.14138 -0.5752,0.0554 -0.91166,-0.0471 -1.01192,-0.30838 z m 1.47676,-0.833 c 0,-0.21828 -0.17859,-0.39687 -0.39687,-0.39687 -0.21828,0 -0.39688,0.17859 -0.39688,0.39687 0,0.21828 0.1786,0.39688 0.39688,0.39688 0.21828,0 0.39687,-0.1786 0.39687,-0.39688 z m -26.1937504,0 c 0,-0.88194 0.0441,-0.92604 0.92604,-0.92604 0.88195,0 0.92605,0.0441 0.92605,0.92604 0,0.88195 -0.0441,0.92604 -0.92605,0.92604 -0.88194,0 -0.92604,-0.0441 -0.92604,-0.92604 z m 1.05834,0 c 0,-0.21828 -0.11907,-0.39687 -0.26459,-0.39687 -0.14552,0 -0.26458,0.17859 -0.26458,0.39687 0,0.21828 0.11906,0.39688 0.26458,0.39688 0.14552,0 0.26459,-0.1786 0.26459,-0.39688 z m 36.7164704,9.233 c -0.37413,-0.82112 -0.55471,-0.79946 -0.89708,0.10758 -0.26872,0.71193 -0.25056,0.73735 0.45302,0.63409 0.66813,-0.0981 0.70741,-0.16367 0.44406,-0.74167 z m 59.39342,-15.38263 c -1.05502,-0.0502 -2.78143,-0.0502 -3.83645,0 -1.05503,0.0502 -0.19183,0.0913 1.91822,0.0913 2.11006,0 2.97326,-0.0411 1.91823,-0.0913 z m -8.20208,-6.35 c -1.05503,-0.0502 -2.78143,-0.0502 -3.83646,0 -1.05502,0.0502 -0.19182,0.0913 1.91823,0.0913 2.11005,0 2.97326,-0.0411 1.91823,-0.0913 z m -0.0116,-0.79398 c -1.06139,-0.0504 -2.72827,-0.05 -3.70417,7.9e-4 -0.9759,0.0508 -0.10748,0.092 1.92981,0.0915 2.03729,-5.2e-4 2.83575,-0.0419 1.77436,-0.0923 z M 52.30193,119.3881 c -1.05503,-0.0502 -2.78143,-0.0502 -3.83646,0 -1.05503,0.0502 -0.19182,0.0913 1.91823,0.0913 2.11005,0 2.97325,-0.0411 1.91823,-0.0913 z m -0.39688,-0.79282 c -0.83674,-0.0525 -2.20596,-0.0525 -3.04271,0 -0.83674,0.0525 -0.15213,0.0955 1.52136,0.0955 1.67349,0 2.3581,-0.043 1.52135,-0.0955 z m 24.20938,-3.7051 c -1.05503,-0.0502 -2.78143,-0.0502 -3.83646,0 -1.05503,0.0502 -0.19182,0.0913 1.91823,0.0913 2.11005,0 2.97325,-0.0411 1.91823,-0.0913 z"
       id="path840" />
  </g>
</svg>
